NotoEmoji-Regular.ufo
<glyph name="numbersign" format="2">
  <advance width="2600"/>
  <unicode hex="0023"/>
  <outline>
    <contour>
      <point x="1740" y="953" type="line"/>
      <point x="1654" y="504" type="line"/>
      <point x="2037" y="504" type="line"/>
      <point x="2037" y="316" type="line"/>
      <point x="1617" y="316" type="line"/>
      <point x="1504" y="-270" type="line"/>
      <point x="1303" y="-270" type="line"/>
      <point x="1418" y="316" type="line"/>
      <point x="1019" y="316" type="line"/>
      <point x="907" y="-270" type="line"/>
      <point x="710" y="-270" type="line"/>
      <point x="817" y="316" type="line"/>
      <point x="463" y="316" type="line"/>
      <point x="463" y="504" type="line"/>
      <point x="854" y="504" type="line"/>
      <point x="943" y="953" type="line"/>
      <point x="567" y="953" type="line"/>
      <point x="567" y="1141" type="line"/>
      <point x="977" y="1141" type="line"/>
      <point x="1089" y="1732" type="line"/>
      <point x="1291" y="1732" type="line"/>
      <point x="1178" y="1141" type="line"/>
      <point x="1580" y="1141" type="line"/>
      <point x="1695" y="1732" type="line"/>
      <point x="1892" y="1732" type="line"/>
      <point x="1777" y="1141" type="line"/>
      <point x="2136" y="1141" type="line"/>
      <point x="2136" y="953" type="line"/>
    </contour>
    <contour>
      <point x="1055" y="504" type="line"/>
      <point x="1454" y="504" type="line"/>
      <point x="1541" y="953" type="line"/>
      <point x="1143" y="953" type="line"/>
    </contour>
  </outline>
</glyph>
<glyph name="zero" format="2">
  <advance width="2600"/>
  <unicode hex="0030"/>
  <outline>
    <contour>
      <point x="660" y="734" type="qcurve" smooth="yes"/>
      <point x="660" y="1258"/>
      <point x="974" y="1764"/>
      <point x="1297" y="1764" type="qcurve" smooth="yes"/>
      <point x="1615" y="1764"/>
      <point x="1940" y="1233"/>
      <point x="1940" y="734" type="qcurve" smooth="yes"/>
      <point x="1940" y="208"/>
      <point x="1622" y="-297"/>
      <point x="1297" y="-297" type="qcurve" smooth="yes"/>
      <point x="984" y="-297"/>
      <point x="660" y="232"/>
    </contour>
    <contour>
      <point x="1688" y="734" type="qcurve" smooth="yes"/>
      <point x="1688" y="1166"/>
      <point x="1499" y="1551"/>
      <point x="1297" y="1551" type="qcurve" smooth="yes"/>
      <point x="1097" y="1551"/>
      <point x="914" y="1169"/>
      <point x="914" y="734" type="qcurve" smooth="yes"/>
      <point x="914" y="301"/>
      <point x="1096" y="-85"/>
      <point x="1297" y="-85" type="qcurve" smooth="yes"/>
      <point x="1501" y="-85"/>
      <point x="1688" y="303"/>
    </contour>
  </outline>
</glyph>
<glyph name="one" format="2">
  <advance width="2600"/>
  <unicode hex="0031"/>
  <outline>
    <contour>
      <point x="1665" y="-269" type="line"/>
      <point x="1423" y="-269" type="line"/>
      <point x="1423" y="981" type="line" smooth="yes"/>
      <point x="1423" y="1044"/>
      <point x="1425" y="1179"/>
      <point x="1427" y="1241" type="qcurve" smooth="yes"/>
      <point x="1431" y="1368" type="line" smooth="yes"/>
      <point x="1433" y="1429"/>
      <point x="1434" y="1476" type="qcurve"/>
      <point x="1411" y="1451"/>
      <point x="1376" y="1416"/>
      <point x="1358" y="1400" type="qcurve" smooth="yes"/>
      <point x="1269" y="1321" type="line"/>
      <point x="1066" y="1155" type="line"/>
      <point x="934" y="1324" type="line"/>
      <point x="1459" y="1733" type="line"/>
      <point x="1665" y="1733" type="line"/>
    </contour>
  </outline>
</glyph>
<glyph name="two" format="2">
  <advance width="2600"/>
  <unicode hex="0032"/>
  <outline>
    <contour>
      <point x="1925" y="-273" type="line"/>
      <point x="675" y="-273" type="line"/>
      <point x="675" y="-60" type="line"/>
      <point x="1155" y="462" type="line" smooth="yes"/>
      <point x="1238" y="551"/>
      <point x="1460" y="803"/>
      <point x="1593" y="1062"/>
      <point x="1593" y="1213" type="qcurve" smooth="yes"/>
      <point x="1593" y="1369"/>
      <point x="1419" y="1547"/>
      <point x="1270" y="1547" type="qcurve" smooth="yes"/>
      <point x="1140" y="1547"/>
      <point x="930" y="1442"/>
      <point x="836" y="1360" type="qcurve"/>
      <point x="696" y="1523" type="line"/>
      <point x="833" y="1645"/>
      <point x="1124" y="1758"/>
      <point x="1273" y="1758" type="qcurve" smooth="yes"/>
      <point x="1537" y="1758"/>
      <point x="1845" y="1468"/>
      <point x="1845" y="1223" type="qcurve" smooth="yes"/>
      <point x="1845" y="1089"/>
      <point x="1749" y="845"/>
      <point x="1580" y="605"/>
      <point x="1366" y="375" type="qcurve" smooth="yes"/>
      <point x="981" y="-35" type="line"/>
      <point x="981" y="-46" type="line"/>
      <point x="1925" y="-46" type="line"/>
    </contour>
  </outline>
</glyph>
<glyph name="three" format="2">
  <advance width="2600"/>
  <unicode hex="0033"/>
  <outline>
    <contour>
      <point x="1438" y="785" type="qcurve"/>
      <point x="1438" y="777" type="line"/>
      <point x="1681" y="747"/>
      <point x="1933" y="499"/>
      <point x="1933" y="300" type="qcurve" smooth="yes"/>
      <point x="1933" y="22"/>
      <point x="1553" y="-297"/>
      <point x="1197" y="-297" type="qcurve" smooth="yes"/>
      <point x="1048" y="-297"/>
      <point x="784" y="-250"/>
      <point x="667" y="-189" type="qcurve"/>
      <point x="667" y="44" type="line"/>
      <point x="786" y="-19"/>
      <point x="1064" y="-87"/>
      <point x="1192" y="-87" type="qcurve" smooth="yes"/>
      <point x="1428" y="-87"/>
      <point x="1677" y="109"/>
      <point x="1677" y="308" type="qcurve" smooth="yes"/>
      <point x="1677" y="482"/>
      <point x="1415" y="662"/>
      <point x="1155" y="662" type="qcurve" smooth="yes"/>
      <point x="973" y="662" type="line"/>
      <point x="973" y="869" type="line"/>
      <point x="1155" y="869" type="line" smooth="yes"/>
      <point x="1372" y="869"/>
      <point x="1615" y="1076"/>
      <point x="1615" y="1248" type="qcurve" smooth="yes"/>
      <point x="1615" y="1389"/>
      <point x="1427" y="1551"/>
      <point x="1273" y="1551" type="qcurve" smooth="yes"/>
      <point x="1125" y="1551"/>
      <point x="902" y="1458"/>
      <point x="801" y="1385" type="qcurve"/>
      <point x="675" y="1557" type="line"/>
      <point x="795" y="1654"/>
      <point x="1105" y="1762"/>
      <point x="1273" y="1762" type="qcurve" smooth="yes"/>
      <point x="1554" y="1762"/>
      <point x="1871" y="1492"/>
      <point x="1871" y="1265" type="qcurve" smooth="yes"/>
      <point x="1871" y="1075"/>
      <point x="1645" y="821"/>
    </contour>
  </outline>
</glyph>
<glyph name="four" format="2">
  <advance width="2600"/>
  <unicode hex="0034"/>
  <outline>
    <contour>
      <point x="2029" y="179" type="line"/>
      <point x="1737" y="179" type="line"/>
      <point x="1737" y="-270" type="line"/>
      <point x="1496" y="-270" type="line"/>
      <point x="1496" y="179" type="line"/>
      <point x="571" y="179" type="line"/>
      <point x="571" y="397" type="line"/>
      <point x="1479" y="1744" type="line"/>
      <point x="1737" y="1744" type="line"/>
      <point x="1737" y="407" type="line"/>
      <point x="2029" y="407" type="line"/>
    </contour>
    <contour>
      <point x="1496" y="407" type="line"/>
      <point x="1496" y="895" type="line" smooth="yes"/>
      <point x="1496" y="982"/>
      <point x="1503" y="1268"/>
      <point x="1509" y="1370" type="qcurve" smooth="yes"/>
      <point x="1514" y="1486" type="line"/>
      <point x="1501" y="1486" type="line"/>
      <point x="1483" y="1431"/>
      <point x="1408" y="1284"/>
      <point x="1378" y="1240" type="qcurve" smooth="yes"/>
      <point x="815" y="407" type="line"/>
    </contour>
  </outline>
</glyph>
<glyph name="five" format="2">
  <advance width="2600"/>
  <unicode hex="0035"/>
  <outline>
    <contour>
      <point x="1182" y="-293" type="qcurve" smooth="yes"/>
      <point x="1044" y="-293"/>
      <point x="784" y="-239"/>
      <point x="695" y="-185" type="qcurve"/>
      <point x="695" y="51" type="line"/>
      <point x="779" y="-9"/>
      <point x="1068" y="-81"/>
      <point x="1189" y="-81" type="qcurve" smooth="yes"/>
      <point x="1417" y="-81"/>
      <point x="1648" y="140"/>
      <point x="1648" y="349" type="qcurve" smooth="yes"/>
      <point x="1648" y="545"/>
      <point x="1407" y="752"/>
      <point x="1177" y="752" type="qcurve" smooth="yes"/>
      <point x="1117" y="752"/>
      <point x="950" y="732"/>
      <point x="860" y="717" type="qcurve"/>
      <point x="737" y="795" type="line"/>
      <point x="812" y="1737" type="line"/>
      <point x="1758" y="1737" type="line"/>
      <point x="1758" y="1510" type="line"/>
      <point x="1029" y="1510" type="line"/>
      <point x="975" y="936" type="line"/>
      <point x="1028" y="946"/>
      <point x="1173" y="963"/>
      <point x="1262" y="963" type="qcurve" smooth="yes"/>
      <point x="1550" y="963"/>
      <point x="1904" y="650"/>
      <point x="1904" y="377" type="qcurve" smooth="yes"/>
      <point x="1904" y="55"/>
      <point x="1525" y="-293"/>
    </contour>
  </outline>
</glyph>
<glyph name="six" format="2">
  <advance width="2600"/>
  <unicode hex="0036"/>
  <outline>
    <contour>
      <point x="1780" y="1736" type="qcurve"/>
      <point x="1780" y="1524" type="line"/>
      <point x="1732" y="1540"/>
      <point x="1611" y="1557"/>
      <point x="1552" y="1557" type="qcurve" smooth="yes"/>
      <point x="1354" y="1557"/>
      <point x="1084" y="1396"/>
      <point x="937" y="1058"/>
      <point x="923" y="751" type="qcurve"/>
      <point x="940" y="751" type="line"/>
      <point x="1006" y="870"/>
      <point x="1222" y="984"/>
      <point x="1360" y="984" type="qcurve" smooth="yes"/>
      <point x="1627" y="984"/>
      <point x="1930" y="660"/>
      <point x="1930" y="376" type="qcurve" smooth="yes"/>
      <point x="1930" y="64"/>
      <point x="1601" y="-297"/>
      <point x="1322" y="-297" type="qcurve" smooth="yes"/>
      <point x="1024" y="-297"/>
      <point x="669" y="167"/>
      <point x="669" y="587" type="qcurve" smooth="yes"/>
      <point x="669" y="1186"/>
      <point x="1108" y="1762"/>
      <point x="1544" y="1762" type="qcurve" smooth="yes"/>
      <point x="1608" y="1762"/>
      <point x="1744" y="1747"/>
    </contour>
    <contour>
      <point x="1328" y="788" type="qcurve" smooth="yes"/>
      <point x="1153" y="788"/>
      <point x="918" y="564"/>
      <point x="918" y="424" type="qcurve" smooth="yes"/>
      <point x="918" y="217"/>
      <point x="1139" y="-87"/>
      <point x="1319" y="-87" type="qcurve" smooth="yes"/>
      <point x="1491" y="-87"/>
      <point x="1689" y="147"/>
      <point x="1689" y="376" type="qcurve" smooth="yes"/>
      <point x="1689" y="576"/>
      <point x="1499" y="788"/>
    </contour>
  </outline>
</glyph>
<glyph name="seven" format="2">
  <advance width="2600"/>
  <unicode hex="0037"/>
  <outline>
    <contour>
      <point x="918" y="-269" type="line"/>
      <point x="1689" y="1506" type="line"/>
      <point x="656" y="1506" type="line"/>
      <point x="656" y="1733" type="line"/>
      <point x="1944" y="1733" type="line"/>
      <point x="1944" y="1535" type="line"/>
      <point x="1184" y="-269" type="line"/>
    </contour>
  </outline>
</glyph>
<glyph name="eight" format="2">
  <advance width="2600"/>
  <unicode hex="0038"/>
  <outline>
    <contour>
      <point x="1505" y="790" type="qcurve"/>
      <point x="1726" y="674"/>
      <point x="1929" y="410"/>
      <point x="1929" y="252" type="qcurve" smooth="yes"/>
      <point x="1929" y="6"/>
      <point x="1586" y="-297"/>
      <point x="1300" y="-297" type="qcurve" smooth="yes"/>
      <point x="1002" y="-297"/>
      <point x="671" y="-12"/>
      <point x="671" y="241" type="qcurve" smooth="yes"/>
      <point x="671" y="411"/>
      <point x="861" y="685"/>
      <point x="1059" y="779" type="qcurve"/>
      <point x="881" y="893"/>
      <point x="737" y="1141"/>
      <point x="737" y="1285" type="qcurve" smooth="yes"/>
      <point x="737" y="1504"/>
      <point x="1055" y="1764"/>
      <point x="1300" y="1764" type="qcurve" smooth="yes"/>
      <point x="1550" y="1764"/>
      <point x="1864" y="1506"/>
      <point x="1864" y="1282" type="qcurve" smooth="yes"/>
      <point x="1864" y="1126"/>
      <point x="1697" y="887"/>
    </contour>
    <contour>
      <point x="1685" y="249" type="qcurve" smooth="yes"/>
      <point x="1685" y="375"/>
      <point x="1507" y="567"/>
      <point x="1305" y="664" type="qcurve" smooth="yes"/>
      <point x="1264" y="683" type="line"/>
      <point x="1092" y="601"/>
      <point x="916" y="389"/>
      <point x="916" y="238" type="qcurve" smooth="yes"/>
      <point x="916" y="81"/>
      <point x="1110" y="-91"/>
      <point x="1295" y="-91" type="qcurve" smooth="yes"/>
      <point x="1479" y="-91"/>
      <point x="1685" y="86"/>
    </contour>
    <contour>
      <point x="1303" y="892" type="qcurve"/>
      <point x="1483" y="975"/>
      <point x="1621" y="1157"/>
      <point x="1621" y="1273" type="qcurve" smooth="yes"/>
      <point x="1621" y="1410"/>
      <point x="1449" y="1556"/>
      <point x="1297" y="1556" type="qcurve" smooth="yes"/>
      <point x="1152" y="1556"/>
      <point x="981" y="1411"/>
      <point x="981" y="1273" type="qcurve" smooth="yes"/>
      <point x="981" y="1184"/>
      <point x="1045" y="1057"/>
      <point x="1163" y="958"/>
    </contour>
  </outline>
</glyph>
<glyph name="nine" format="2">
  <advance width="2600"/>
  <unicode hex="0039"/>
  <outline>
    <contour>
      <point x="820" y="-272" type="qcurve"/>
      <point x="820" y="-59" type="line"/>
      <point x="868" y="-76"/>
      <point x="989" y="-93"/>
      <point x="1048" y="-93" type="qcurve" smooth="yes"/>
      <point x="1345" y="-93"/>
      <point x="1658" y="275"/>
      <point x="1677" y="713" type="qcurve"/>
      <point x="1659" y="713" type="line"/>
      <point x="1598" y="599"/>
      <point x="1385" y="480"/>
      <point x="1238" y="480" type="qcurve" smooth="yes"/>
      <point x="972" y="480"/>
      <point x="668" y="806"/>
      <point x="668" y="1088" type="qcurve" smooth="yes"/>
      <point x="668" y="1394"/>
      <point x="994" y="1762"/>
      <point x="1278" y="1762" type="qcurve" smooth="yes"/>
      <point x="1580" y="1762"/>
      <point x="1932" y="1292"/>
      <point x="1932" y="878" type="qcurve" smooth="yes"/>
      <point x="1932" y="285"/>
      <point x="1496" y="-297"/>
      <point x="1056" y="-297" type="qcurve" smooth="yes"/>
      <point x="993" y="-297"/>
      <point x="852" y="-281"/>
    </contour>
    <contour>
      <point x="1273" y="676" type="qcurve" smooth="yes"/>
      <point x="1446" y="676"/>
      <point x="1682" y="899"/>
      <point x="1682" y="1040" type="qcurve" smooth="yes"/>
      <point x="1682" y="1249"/>
      <point x="1462" y="1551"/>
      <point x="1281" y="1551" type="qcurve" smooth="yes"/>
      <point x="1107" y="1551"/>
      <point x="911" y="1314"/>
      <point x="911" y="1088" type="qcurve" smooth="yes"/>
      <point x="911" y="889"/>
      <point x="1099" y="676"/>
    </contour>
  </outline>
</glyph>
<glyph name="copyright" format="2">
  <advance width="2600"/>
  <unicode hex="00A9"/>
  <outline>
    <contour>
      <point x="1300" y="-300" type="qcurve" smooth="yes"/>
      <point x="1015" y="-300"/>
      <point x="527" y="-11"/>
      <point x="258" y="469"/>
      <point x="258" y="741" type="qcurve" smooth="yes"/>
      <point x="258" y="1019"/>
      <point x="538" y="1503"/>
      <point x="1022" y="1783"/>
      <point x="1300" y="1783" type="qcurve" smooth="yes"/>
      <point x="1572" y="1783"/>
      <point x="2052" y="1514"/>
      <point x="2341" y="1026"/>
      <point x="2341" y="741" type="qcurve" smooth="yes"/>
      <point x="2341" y="461"/>
      <point x="2062" y="-21"/>
      <point x="1580" y="-300"/>
    </contour>
    <contour>
      <point x="1300" y="1683" type="qcurve" smooth="yes"/>
      <point x="1048" y="1683"/>
      <point x="611" y="1430"/>
      <point x="358" y="994"/>
      <point x="358" y="741" type="qcurve" smooth="yes"/>
      <point x="358" y="488"/>
      <point x="612" y="52"/>
      <point x="1048" y="-200"/>
      <point x="1300" y="-200" type="qcurve" smooth="yes"/>
      <point x="1553" y="-200"/>
      <point x="1988" y="53"/>
      <point x="2241" y="488"/>
      <point x="2241" y="741" type="qcurve" smooth="yes"/>
      <point x="2241" y="994"/>
      <point x="1989" y="1429"/>
      <point x="1553" y="1683"/>
    </contour>
    <contour>
      <point x="1799" y="274" type="line"/>
      <point x="1799" y="272"/>
      <point x="1800" y="268" type="qcurve"/>
      <point x="1800" y="252"/>
      <point x="1643" y="151"/>
      <point x="1454" y="97"/>
      <point x="1344" y="97" type="qcurve" smooth="yes"/>
      <point x="1056" y="97"/>
      <point x="681" y="463"/>
      <point x="681" y="741" type="qcurve" smooth="yes"/>
      <point x="681" y="1020"/>
      <point x="1056" y="1385"/>
      <point x="1344" y="1385" type="qcurve" smooth="yes"/>
      <point x="1478" y="1385"/>
      <point x="1695" y="1319"/>
      <point x="1778" y="1253" type="qcurve" smooth="yes"/>
      <point x="1784" y="1248"/>
      <point x="1784" y="1242" type="qcurve" smooth="yes"/>
      <point x="1784" y="1238"/>
      <point x="1782" y="1235" type="qcurve"/>
      <point x="1634" y="965" type="line" smooth="yes"/>
      <point x="1631" y="959"/>
      <point x="1625" y="959" type="qcurve" smooth="yes"/>
      <point x="1619" y="959" type="line" smooth="yes"/>
      <point x="1613" y="959"/>
      <point x="1576" y="990"/>
      <point x="1434" y="1045"/>
      <point x="1345" y="1045" type="qcurve" smooth="yes"/>
      <point x="1209" y="1045"/>
      <point x="1030" y="876"/>
      <point x="1030" y="741" type="qcurve" smooth="yes"/>
      <point x="1030" y="607"/>
      <point x="1208" y="437"/>
      <point x="1345" y="437" type="qcurve" smooth="yes"/>
      <point x="1420" y="437"/>
      <point x="1587" y="499"/>
      <point x="1645" y="544"/>
      <point x="1655" y="544" type="qcurve" smooth="yes"/>
      <point x="1661" y="544"/>
      <point x="1665" y="537" type="qcurve" smooth="yes"/>
    </contour>
  </outline>
</glyph>
<glyph name="registered" format="2">
  <advance width="2600"/>
  <unicode hex="00AE"/>
  <outline>
    <contour>
      <point x="1300" y="-300" type="qcurve" smooth="yes"/>
      <point x="1019" y="-300"/>
      <point x="531" y="-14"/>
      <point x="258" y="469"/>
      <point x="258" y="743" type="qcurve" smooth="yes"/>
      <point x="258" y="1017"/>
      <point x="531" y="1500"/>
      <point x="1019" y="1786"/>
      <point x="1300" y="1786" type="qcurve" smooth="yes"/>
      <point x="1578" y="1786"/>
      <point x="2061" y="1507"/>
      <point x="2341" y="1023"/>
      <point x="2341" y="743" type="qcurve" smooth="yes"/>
      <point x="2341" y="463"/>
      <point x="2061" y="-21"/>
      <point x="1578" y="-300"/>
    </contour>
    <contour>
      <point x="1300" y="1686" type="qcurve" smooth="yes"/>
      <point x="1051" y="1686"/>
      <point x="612" y="1433"/>
      <point x="358" y="996"/>
      <point x="358" y="743" type="qcurve" smooth="yes"/>
      <point x="358" y="490"/>
      <point x="612" y="53"/>
      <point x="1051" y="-200"/>
      <point x="1300" y="-200" type="qcurve" smooth="yes"/>
      <point x="1551" y="-200"/>
      <point x="1988" y="54"/>
      <point x="2241" y="491"/>
      <point x="2241" y="743" type="qcurve" smooth="yes"/>
      <point x="2241" y="995"/>
      <point x="1988" y="1432"/>
      <point x="1551" y="1686"/>
    </contour>
    <contour>
      <point x="1848" y="170" type="line"/>
      <point x="1854" y="164"/>
      <point x="1854" y="154" type="qcurve" smooth="yes"/>
      <point x="1854" y="143"/>
      <point x="1837" y="126"/>
      <point x="1826" y="126" type="qcurve" smooth="yes"/>
      <point x="1567" y="126" type="line" smooth="yes"/>
      <point x="1552" y="126"/>
      <point x="1544" y="137" type="qcurve" smooth="yes"/>
      <point x="1247" y="533" type="line"/>
      <point x="1144" y="533" type="line"/>
      <point x="1144" y="154" type="line" smooth="yes"/>
      <point x="1144" y="143"/>
      <point x="1129" y="128"/>
      <point x="1118" y="128" type="qcurve" smooth="yes"/>
      <point x="859" y="128" type="line" smooth="yes"/>
      <point x="848" y="128"/>
      <point x="833" y="143"/>
      <point x="833" y="154" type="qcurve" smooth="yes"/>
      <point x="833" y="1347" type="line" smooth="yes"/>
      <point x="833" y="1358"/>
      <point x="848" y="1375"/>
      <point x="859" y="1375" type="qcurve" smooth="yes"/>
      <point x="1388" y="1375" type="line" smooth="yes"/>
      <point x="1563" y="1375"/>
      <point x="1814" y="1126"/>
      <point x="1814" y="954" type="qcurve" smooth="yes"/>
      <point x="1814" y="828"/>
      <point x="1671" y="615"/>
      <point x="1551" y="565" type="qcurve"/>
    </contour>
    <contour>
      <point x="1362" y="781" type="line" smooth="yes"/>
      <point x="1427" y="781"/>
      <point x="1522" y="883"/>
      <point x="1522" y="954" type="qcurve" smooth="yes"/>
      <point x="1522" y="1030"/>
      <point x="1429" y="1128"/>
      <point x="1355" y="1128" type="qcurve" smooth="yes"/>
      <point x="1149" y="1128" type="line" smooth="yes"/>
      <point x="1143" y="1128"/>
      <point x="1143" y="1121" type="qcurve" smooth="yes"/>
      <point x="1143" y="787" type="line" smooth="yes"/>
      <point x="1143" y="783"/>
      <point x="1149" y="781"/>
      <point x="1158" y="781" type="qcurve" smooth="yes"/>
    </contour>
  </outline>
</glyph>
<glyph name="exclamdbl" format="2">
  <advance width="2600"/>
  <unicode hex="203C"/>
  <outline>
    <contour>
      <point x="819" y="486" type="line" smooth="yes"/>
      <point x="803" y="486"/>
      <point x="803" y="500" type="qcurve"/>
      <point x="733" y="1492" type="line"/>
      <point x="733" y="1497"/>
      <point x="741" y="1507"/>
      <point x="751" y="1507" type="qcurve" smooth="yes"/>
      <point x="1141" y="1507" type="line" smooth="yes"/>
      <point x="1149" y="1507"/>
      <point x="1159" y="1500"/>
      <point x="1159" y="1492" type="qcurve"/>
      <point x="1091" y="500" type="line"/>
      <point x="1087" y="486"/>
      <point x="1073" y="486" type="qcurve" smooth="yes"/>
    </contour>
    <contour>
      <point x="1151" y="-35" type="qcurve" smooth="yes"/>
      <point x="1151" y="-131"/>
      <point x="1041" y="-234"/>
      <point x="948" y="-234" type="qcurve" smooth="yes"/>
      <point x="850" y="-234"/>
      <point x="741" y="-130"/>
      <point x="741" y="-35" type="qcurve" smooth="yes"/>
      <point x="741" y="65"/>
      <point x="850" y="163"/>
      <point x="948" y="163" type="qcurve" smooth="yes"/>
      <point x="1040" y="163"/>
      <point x="1151" y="62"/>
    </contour>
    <contour>
      <point x="1526" y="486" type="line" smooth="yes"/>
      <point x="1520" y="486"/>
      <point x="1510" y="494"/>
      <point x="1510" y="500" type="qcurve"/>
      <point x="1440" y="1492" type="line"/>
      <point x="1440" y="1497"/>
      <point x="1448" y="1507"/>
      <point x="1458" y="1507" type="qcurve" smooth="yes"/>
      <point x="1848" y="1507" type="line" smooth="yes"/>
      <point x="1856" y="1507"/>
      <point x="1866" y="1500"/>
      <point x="1866" y="1492" type="qcurve"/>
      <point x="1797" y="500" type="line"/>
      <point x="1795" y="486"/>
      <point x="1780" y="486" type="qcurve" smooth="yes"/>
    </contour>
    <contour>
      <point x="1858" y="-35" type="qcurve" smooth="yes"/>
      <point x="1858" y="-131"/>
      <point x="1748" y="-234"/>
      <point x="1655" y="-234" type="qcurve" smooth="yes"/>
      <point x="1557" y="-234"/>
      <point x="1448" y="-130"/>
      <point x="1448" y="-35" type="qcurve" smooth="yes"/>
      <point x="1448" y="65"/>
      <point x="1557" y="163"/>
      <point x="1655" y="163" type="qcurve" smooth="yes"/>
      <point x="1747" y="163"/>
      <point x="1858" y="62"/>
    </contour>
  </outline>
</glyph>
<glyph name="uni2049" format="2">
  <advance width="2600"/>
  <unicode hex="2049"/>
  <outline>
    <contour>
      <point x="1368" y="362" type="line"/>
      <point x="1368" y="447" type="line" smooth="yes"/>
      <point x="1368" y="567"/>
      <point x="1473" y="738"/>
      <point x="1692" y="903"/>
      <point x="1756" y="1010"/>
      <point x="1756" y="1086" type="qcurve" smooth="yes"/>
      <point x="1756" y="1156"/>
      <point x="1661" y="1238"/>
      <point x="1574" y="1238" type="qcurve" smooth="yes"/>
      <point x="1493" y="1238"/>
      <point x="1306" y="1172"/>
      <point x="1208" y="1122" type="qcurve"/>
      <point x="1089" y="1380" type="line"/>
      <point x="1229" y="1456"/>
      <point x="1474" y="1526"/>
      <point x="1578" y="1526" type="qcurve" smooth="yes"/>
      <point x="1818" y="1526"/>
      <point x="2093" y="1298"/>
      <point x="2093" y="1101" type="qcurve" smooth="yes"/>
      <point x="2093" y="978"/>
      <point x="1991" y="796"/>
      <point x="1771" y="619"/>
      <point x="1677" y="525"/>
      <point x="1677" y="431" type="qcurve" smooth="yes"/>
      <point x="1677" y="362" type="line"/>
    </contour>
    <contour>
      <point x="1740" y="-38" type="qcurve" smooth="yes"/>
      <point x="1740" y="-134"/>
      <point x="1629" y="-237"/>
      <point x="1536" y="-237" type="qcurve" smooth="yes"/>
      <point x="1441" y="-237"/>
      <point x="1330" y="-136"/>
      <point x="1330" y="-38" type="qcurve" smooth="yes"/>
      <point x="1330" y="63"/>
      <point x="1436" y="160"/>
      <point x="1536" y="160" type="qcurve" smooth="yes"/>
      <point x="1630" y="160"/>
      <point x="1740" y="59"/>
    </contour>
    <contour>
      <point x="593" y="484" type="line" smooth="yes"/>
      <point x="585" y="484"/>
      <point x="575" y="491"/>
      <point x="575" y="497" type="qcurve"/>
      <point x="507" y="1489" type="line"/>
      <point x="507" y="1495"/>
      <point x="515" y="1506"/>
      <point x="523" y="1506" type="qcurve" smooth="yes"/>
      <point x="915" y="1506" type="line" smooth="yes"/>
      <point x="923" y="1506"/>
      <point x="933" y="1495"/>
      <point x="933" y="1489" type="qcurve"/>
      <point x="863" y="497" type="line"/>
      <point x="863" y="491"/>
      <point x="853" y="484"/>
      <point x="845" y="484" type="qcurve" smooth="yes"/>
    </contour>
    <contour>
      <point x="925" y="-38" type="qcurve" smooth="yes"/>
      <point x="925" y="-133"/>
      <point x="812" y="-237"/>
      <point x="720" y="-237" type="qcurve" smooth="yes"/>
      <point x="625" y="-237"/>
      <point x="515" y="-134"/>
      <point x="515" y="-38" type="qcurve" smooth="yes"/>
      <point x="515" y="61"/>
      <point x="619" y="160"/>
      <point x="720" y="160" type="qcurve" smooth="yes"/>
      <point x="817" y="160"/>
      <point x="925" y="57"/>
    </contour>
  </outline>
</glyph>
<glyph name="uni20E3" format="2">
  <advance width="2600"/>
  <unicode hex="20E3"/>
  <outline>
    <contour>
      <point x="2222" y="1780" type="line" smooth="yes"/>
      <point x="2268" y="1780"/>
      <point x="2334" y="1714"/>
      <point x="2334" y="1668" type="qcurve" smooth="yes"/>
      <point x="2334" y="-177" type="line" smooth="yes"/>
      <point x="2334" y="-222"/>
      <point x="2267" y="-288"/>
      <point x="2222" y="-288" type="qcurve" smooth="yes"/>
      <point x="377" y="-288" type="line" smooth="yes"/>
      <point x="332" y="-288"/>
      <point x="266" y="-222"/>
      <point x="266" y="-177" type="qcurve" smooth="yes"/>
      <point x="266" y="1668" type="line" smooth="yes"/>
      <point x="266" y="1713"/>
      <point x="332" y="1780"/>
      <point x="377" y="1780" type="qcurve" smooth="yes"/>
    </contour>
    <contour>
      <point x="563" y="16" type="line" smooth="yes"/>
      <point x="563" y="9"/>
      <point x="570" y="9" type="qcurve" smooth="yes"/>
      <point x="2029" y="9" type="line" smooth="yes"/>
      <point x="2037" y="9"/>
      <point x="2037" y="16" type="qcurve" smooth="yes"/>
      <point x="2037" y="1475" type="line" smooth="yes"/>
      <point x="2037" y="1482"/>
      <point x="2029" y="1482" type="qcurve" smooth="yes"/>
      <point x="570" y="1482" type="line" smooth="yes"/>
      <point x="563" y="1482"/>
      <point x="563" y="1475" type="qcurve" smooth="yes"/>
    </contour>
    <contour>
      <point x="2232" y="1700" type="line"/>
      <point x="2222" y="1701" type="line"/>
      <point x="377" y="1701" type="line" smooth="yes"/>
      <point x="363" y="1701"/>
      <point x="344" y="1682"/>
      <point x="344" y="1668" type="qcurve" smooth="yes"/>
      <point x="344" y="-177" type="line" smooth="yes"/>
      <point x="344" y="-185"/>
      <point x="349" y="-196"/>
      <point x="353" y="-201" type="qcurve"/>
      <point x="507" y="-46" type="line"/>
      <point x="496" y="-33"/>
      <point x="482" y="-2"/>
      <point x="482" y="16" type="qcurve" smooth="yes"/>
      <point x="482" y="1475" type="line" smooth="yes"/>
      <point x="482" y="1511"/>
      <point x="534" y="1563"/>
      <point x="570" y="1563" type="qcurve" smooth="yes"/>
      <point x="2029" y="1563" type="line" smooth="yes"/>
      <point x="2058" y="1563"/>
      <point x="2080" y="1546" type="qcurve"/>
    </contour>
  </outline>
</glyph>
<glyph name="trademark" format="2">
  <advance width="2600"/>
  <unicode hex="2122"/>
  <outline>
    <contour>
      <point x="1177" y="1636" type="line" smooth="yes"/>
      <point x="1188" y="1636"/>
      <point x="1202" y="1622"/>
      <point x="1202" y="1611" type="qcurve" smooth="yes"/>
      <point x="1202" y="1392" type="line" smooth="yes"/>
      <point x="1202" y="1381"/>
      <point x="1188" y="1366"/>
      <point x="1177" y="1366" type="qcurve" smooth="yes"/>
      <point x="825" y="1366" type="line"/>
      <point x="825" y="381" type="line" smooth="yes"/>
      <point x="825" y="370"/>
      <point x="809" y="356"/>
      <point x="799" y="356" type="qcurve" smooth="yes"/>
      <point x="574" y="356" type="line" smooth="yes"/>
      <point x="563" y="356"/>
      <point x="549" y="370"/>
      <point x="549" y="381" type="qcurve" smooth="yes"/>
      <point x="549" y="1366" type="line"/>
      <point x="197" y="1366" type="line" smooth="yes"/>
      <point x="187" y="1366"/>
      <point x="171" y="1381"/>
      <point x="171" y="1392" type="qcurve" smooth="yes"/>
      <point x="171" y="1611" type="line" smooth="yes"/>
      <point x="171" y="1622"/>
      <point x="187" y="1636"/>
      <point x="197" y="1636" type="qcurve" smooth="yes"/>
    </contour>
    <contour>
      <point x="2428" y="389" type="line"/>
      <point x="2428" y="378"/>
      <point x="2414" y="360"/>
      <point x="2402" y="360" type="qcurve" smooth="yes"/>
      <point x="2187" y="360" type="line" smooth="yes"/>
      <point x="2177" y="360"/>
      <point x="2162" y="374"/>
      <point x="2161" y="385" type="qcurve" smooth="yes"/>
      <point x="2119" y="893" type="line"/>
      <point x="1956" y="379" type="line" smooth="yes"/>
      <point x="1950" y="360"/>
      <point x="1934" y="360" type="qcurve" smooth="yes"/>
      <point x="1773" y="360" type="line" smooth="yes"/>
      <point x="1765" y="360"/>
      <point x="1750" y="369"/>
      <point x="1747" y="379" type="qcurve" smooth="yes"/>
      <point x="1585" y="893" type="line"/>
      <point x="1543" y="385" type="line"/>
      <point x="1543" y="374"/>
      <point x="1527" y="360"/>
      <point x="1517" y="360" type="qcurve" smooth="yes"/>
      <point x="1303" y="360" type="line" smooth="yes"/>
      <point x="1292" y="360"/>
      <point x="1277" y="375"/>
      <point x="1277" y="389" type="qcurve"/>
      <point x="1363" y="1606" type="line"/>
      <point x="1365" y="1615"/>
      <point x="1379" y="1630"/>
      <point x="1389" y="1630" type="qcurve" smooth="yes"/>
      <point x="1618" y="1630" type="line" smooth="yes"/>
      <point x="1639" y="1630"/>
      <point x="1644" y="1611" type="qcurve" smooth="yes"/>
      <point x="1852" y="803" type="line"/>
      <point x="2061" y="1611" type="line" smooth="yes"/>
      <point x="2066" y="1630"/>
      <point x="2087" y="1630" type="qcurve" smooth="yes"/>
      <point x="2315" y="1630" type="line" smooth="yes"/>
      <point x="2325" y="1630"/>
      <point x="2340" y="1620"/>
      <point x="2341" y="1606" type="qcurve" smooth="yes"/>
    </contour>
  </outline>
</glyph>
<glyph name="uni2139" format="2">
  <advance width="2600"/>
  <unicode hex="2139"/>
  <outline>
    <contour>
      <point x="1300" y="-339" type="qcurve" smooth="yes"/>
      <point x="1001" y="-339"/>
      <point x="486" y="-41"/>
      <point x="188" y="474"/>
      <point x="188" y="773" type="qcurve" smooth="yes"/>
      <point x="188" y="1071"/>
      <point x="486" y="1585"/>
      <point x="1000" y="1884"/>
      <point x="1300" y="1884" type="qcurve" smooth="yes"/>
      <point x="1598" y="1884"/>
      <point x="2113" y="1586"/>
      <point x="2411" y="1071"/>
      <point x="2411" y="773" type="qcurve" smooth="yes"/>
      <point x="2411" y="474"/>
      <point x="2113" y="-41"/>
      <point x="1598" y="-339"/>
    </contour>
    <contour>
      <point x="1300" y="1724" type="qcurve" smooth="yes"/>
      <point x="1046" y="1724"/>
      <point x="603" y="1468"/>
      <point x="348" y="1027"/>
      <point x="348" y="773" type="qcurve" smooth="yes"/>
      <point x="348" y="519"/>
      <point x="603" y="76"/>
      <point x="1046" y="-179"/>
      <point x="1300" y="-179" type="qcurve" smooth="yes"/>
      <point x="1552" y="-179"/>
      <point x="1993" y="73"/>
      <point x="2251" y="518"/>
      <point x="2251" y="773" type="qcurve" smooth="yes"/>
      <point x="2251" y="1029"/>
      <point x="1992" y="1472"/>
      <point x="1552" y="1724"/>
    </contour>
    <contour>
      <point x="1186" y="1036" type="line"/>
      <point x="1414" y="1036" type="line"/>
      <point x="1414" y="205" type="line"/>
      <point x="1186" y="205" type="line"/>
    </contour>
    <contour>
      <point x="1300" y="1139" type="qcurve" smooth="yes"/>
      <point x="1240" y="1139"/>
      <point x="1177" y="1195"/>
      <point x="1177" y="1250" type="qcurve" smooth="yes"/>
      <point x="1177" y="1306"/>
      <point x="1238" y="1361"/>
      <point x="1300" y="1361" type="qcurve" smooth="yes"/>
      <point x="1359" y="1361"/>
      <point x="1423" y="1308"/>
      <point x="1423" y="1250" type="qcurve" smooth="yes"/>
      <point x="1423" y="1197"/>
      <point x="1360" y="1139"/>
    </contour>
  </outline>
</glyph>
<glyph name="arrowboth" format="2">
  <advance width="2600"/>
  <unicode hex="2194"/>
  <outline>
    <contour>
      <point x="1693" y="974" type="line"/>
      <point x="1693" y="1376" type="line"/>
      <point x="2570" y="733" type="line"/>
      <point x="1693" y="89" type="line"/>
      <point x="1693" y="491" type="line"/>
      <point x="906" y="491" type="line"/>
      <point x="906" y="89" type="line"/>
      <point x="29" y="733" type="line"/>
      <point x="906" y="1376" type="line"/>
      <point x="906" y="974" type="line"/>
    </contour>
  </outline>
</glyph>
<glyph name="arrowupdn" format="2">
  <advance width="2600"/>
  <unicode hex="2195"/>
  <outline>
    <contour>
      <point x="1541" y="371" type="line"/>
      <point x="1943" y="371" type="line"/>
      <point x="1300" y="-506" type="line"/>
      <point x="656" y="371" type="line"/>
      <point x="1058" y="371" type="line"/>
      <point x="1058" y="1158" type="line"/>
      <point x="656" y="1158" type="line"/>
      <point x="1300" y="2035" type="line"/>
      <point x="1943" y="1158" type="line"/>
      <point x="1541" y="1158" type="line"/>
    </contour>
  </outline>
</glyph>
<glyph name="uni2196" format="2">
  <advance width="2600"/>
  <unicode hex="2196"/>
  <outline>
    <contour>
      <point x="615" y="1444" type="line"/>
      <point x="1689" y="1278" type="line"/>
      <point x="1405" y="994" type="line"/>
      <point x="1985" y="416" type="line"/>
      <point x="1645" y="76" type="line"/>
      <point x="1067" y="656" type="line"/>
      <point x="781" y="368" type="line"/>
    </contour>
  </outline>
</glyph>
<glyph name="uni2197" format="2">
  <advance width="2600"/>
  <unicode hex="2197"/>
  <outline>
    <contour>
      <point x="1984" y="1446" type="line"/>
      <point x="1818" y="372" type="line"/>
      <point x="1534" y="656" type="line"/>
      <point x="956" y="76" type="line"/>
      <point x="616" y="416" type="line"/>
      <point x="1196" y="994" type="line"/>
      <point x="908" y="1280" type="line"/>
    </contour>
  </outline>
</glyph>
<glyph name="uni2198" format="2">
  <advance width="2600"/>
  <unicode hex="2198"/>
  <outline>
    <contour>
      <point x="1985" y="76" type="line"/>
      <point x="911" y="242" type="line"/>
      <point x="1195" y="526" type="line"/>
      <point x="615" y="1104" type="line"/>
      <point x="955" y="1444" type="line"/>
      <point x="1533" y="864" type="line"/>
      <point x="1819" y="1152" type="line"/>
    </contour>
  </outline>
</glyph>
<glyph name="uni2199" format="2">
  <advance width="2600"/>
  <unicode hex="2199"/>
  <outline>
    <contour>
      <point x="616" y="75" type="line"/>
      <point x="782" y="1149" type="line"/>
      <point x="1066" y="865" type="line"/>
      <point x="1644" y="1445" type="line"/>
      <point x="1984" y="1105" type="line"/>
      <point x="1404" y="527" type="line"/>
      <point x="1692" y="241" type="line"/>
    </contour>
  </outline>
</glyph>
<glyph name="uni21A9" format="2">
  <advance width="2600"/>
  <unicode hex="21A9"/>
  <outline>
    <contour>
      <point x="1214" y="350" type="line" smooth="yes"/>
      <point x="1649" y="350"/>
      <point x="2013" y="556"/>
      <point x="2013" y="815" type="qcurve" smooth="yes"/>
      <point x="2013" y="1073"/>
      <point x="1648" y="1279"/>
      <point x="1214" y="1279" type="qcurve" smooth="yes"/>
      <point x="427" y="1279" type="line"/>
      <point x="427" y="1609" type="line"/>
      <point x="1214" y="1609" type="line" smooth="yes"/>
      <point x="1797" y="1609"/>
      <point x="2343" y="1216"/>
      <point x="2343" y="815" type="qcurve" smooth="yes"/>
      <point x="2343" y="413"/>
      <point x="1793" y="20"/>
      <point x="1214" y="20" type="qcurve" smooth="yes"/>
      <point x="865" y="20" type="line"/>
      <point x="865" y="-259" type="line"/>
      <point x="256" y="186" type="line"/>
      <point x="865" y="633" type="line"/>
      <point x="865" y="350" type="line"/>
    </contour>
  </outline>
</glyph>
<glyph name="uni21AA" format="2">
  <advance width="2600"/>
  <unicode hex="21AA"/>
  <outline>
    <contour>
      <point x="1734" y="350" type="line"/>
      <point x="1734" y="633" type="line"/>
      <point x="2343" y="186" type="line"/>
      <point x="1734" y="-259" type="line"/>
      <point x="1734" y="20" type="line"/>
      <point x="1385" y="20" type="line" smooth="yes"/>
      <point x="806" y="20"/>
      <point x="256" y="413"/>
      <point x="256" y="815" type="qcurve" smooth="yes"/>
      <point x="256" y="1216"/>
      <point x="802" y="1609"/>
      <point x="1385" y="1609" type="qcurve" smooth="yes"/>
      <point x="2172" y="1609" type="line"/>
      <point x="2172" y="1279" type="line"/>
      <point x="1385" y="1279" type="line" smooth="yes"/>
      <point x="951" y="1279"/>
      <point x="586" y="1073"/>
      <point x="586" y="815" type="qcurve" smooth="yes"/>
      <point x="586" y="556"/>
      <point x="950" y="350"/>
      <point x="1385" y="350" type="qcurve" smooth="yes"/>
    </contour>
  </outline>
</glyph>
<glyph name="uni231A" format="2">
  <advance width="2600"/>
  <unicode hex="231A"/>
  <outline>
    <contour>
      <point x="2177" y="907" type="line"/>
      <point x="2177" y="605" type="line"/>
      <point x="2052" y="605" type="line"/>
      <point x="2023" y="444"/>
      <point x="1840" y="166"/>
      <point x="1706" y="76" type="qcurve"/>
      <point x="1706" y="-277" type="line"/>
      <point x="782" y="-277" type="line"/>
      <point x="782" y="76" type="line"/>
      <point x="617" y="187"/>
      <point x="422" y="549"/>
      <point x="422" y="756" type="qcurve" smooth="yes"/>
      <point x="422" y="959"/>
      <point x="611" y="1317"/>
      <point x="782" y="1434" type="qcurve"/>
      <point x="782" y="1789" type="line"/>
      <point x="1706" y="1789" type="line"/>
      <point x="1706" y="1436" type="line"/>
      <point x="1843" y="1342"/>
      <point x="2023" y="1065"/>
      <point x="2052" y="907" type="qcurve"/>
    </contour>
    <contour>
      <point x="501" y="756" type="qcurve" smooth="yes"/>
      <point x="501" y="560"/>
      <point x="697" y="217"/>
      <point x="1041" y="13"/>
      <point x="1244" y="13" type="qcurve" smooth="yes"/>
      <point x="1442" y="13"/>
      <point x="1790" y="215"/>
      <point x="1987" y="559"/>
      <point x="1987" y="756" type="qcurve" smooth="yes"/>
      <point x="1987" y="955"/>
      <point x="1785" y="1301"/>
      <point x="1440" y="1499"/>
      <point x="1244" y="1499" type="qcurve" smooth="yes"/>
      <point x="1053" y="1499"/>
      <point x="709" y="1306"/>
      <point x="501" y="959"/>
    </contour>
    <contour>
      <point x="1797" y="1142" type="line"/>
      <point x="1858" y="1037" type="line"/>
      <point x="1370" y="757" type="line"/>
      <point x="1370" y="704"/>
      <point x="1295" y="630"/>
      <point x="1244" y="630" type="qcurve" smooth="yes"/>
      <point x="1195" y="630"/>
      <point x="1118" y="703"/>
      <point x="1118" y="759" type="qcurve"/>
      <point x="832" y="925" type="line"/>
      <point x="892" y="1029" type="line"/>
      <point x="1180" y="863" type="line"/>
      <point x="1194" y="871"/>
      <point x="1227" y="881"/>
      <point x="1244" y="881" type="qcurve" smooth="yes"/>
      <point x="1263" y="881"/>
      <point x="1296" y="871"/>
      <point x="1310" y="863" type="qcurve"/>
    </contour>
    <contour>
      <point x="1244" y="803" type="qcurve" smooth="yes"/>
      <point x="1224" y="803"/>
      <point x="1196" y="773"/>
      <point x="1196" y="756" type="qcurve" smooth="yes"/>
      <point x="1196" y="736"/>
      <point x="1224" y="708"/>
      <point x="1244" y="708" type="qcurve" smooth="yes"/>
      <point x="1264" y="708"/>
      <point x="1292" y="736"/>
      <point x="1292" y="756" type="qcurve" smooth="yes"/>
      <point x="1292" y="772"/>
      <point x="1266" y="803"/>
    </contour>
    <contour>
      <point x="1933" y="756" type="qcurve" smooth="yes"/>
      <point x="1933" y="736"/>
      <point x="1907" y="708"/>
      <point x="1887" y="708" type="qcurve" smooth="yes"/>
      <point x="1868" y="708"/>
      <point x="1839" y="736"/>
      <point x="1839" y="756" type="qcurve" smooth="yes"/>
      <point x="1839" y="775"/>
      <point x="1868" y="803"/>
      <point x="1887" y="803" type="qcurve" smooth="yes"/>
      <point x="1907" y="803"/>
      <point x="1933" y="776"/>
    </contour>
    <contour>
      <point x="1566" y="1359" type="qcurve" smooth="yes"/>
      <point x="1586" y="1359"/>
      <point x="1613" y="1330"/>
      <point x="1613" y="1312" type="qcurve" smooth="yes"/>
      <point x="1613" y="1292"/>
      <point x="1585" y="1264"/>
      <point x="1566" y="1264" type="qcurve" smooth="yes"/>
      <point x="1549" y="1264"/>
      <point x="1518" y="1290"/>
      <point x="1518" y="1311" type="qcurve" smooth="yes"/>
      <point x="1518" y="1331"/>
      <point x="1547" y="1359"/>
    </contour>
    <contour>
      <point x="875" y="1312" type="qcurve" smooth="yes"/>
      <point x="875" y="1330"/>
      <point x="902" y="1359"/>
      <point x="922" y="1359" type="qcurve" smooth="yes"/>
      <point x="941" y="1359"/>
      <point x="970" y="1333"/>
      <point x="970" y="1311" type="qcurve" smooth="yes"/>
      <point x="970" y="1292"/>
      <point x="942" y="1264"/>
      <point x="922" y="1264" type="qcurve" smooth="yes"/>
      <point x="903" y="1264"/>
      <point x="875" y="1292"/>
    </contour>
    <contour>
      <point x="1244" y="1445" type="qcurve" smooth="yes"/>
      <point x="1264" y="1445"/>
      <point x="1292" y="1418"/>
      <point x="1292" y="1397" type="qcurve" smooth="yes"/>
      <point x="1292" y="1377"/>
      <point x="1264" y="1351"/>
      <point x="1244" y="1351" type="qcurve" smooth="yes"/>
      <point x="1224" y="1351"/>
      <point x="1196" y="1377"/>
      <point x="1196" y="1397" type="qcurve" smooth="yes"/>
      <point x="1196" y="1418"/>
      <point x="1224" y="1445"/>
    </contour>
    <contour>
      <point x="688" y="1029" type="qcurve" smooth="yes"/>
      <point x="666" y="1029"/>
      <point x="640" y="1060"/>
      <point x="640" y="1077" type="qcurve" smooth="yes"/>
      <point x="640" y="1098"/>
      <point x="671" y="1125"/>
      <point x="688" y="1125" type="qcurve" smooth="yes"/>
      <point x="705" y="1125"/>
      <point x="734" y="1097"/>
      <point x="734" y="1077" type="qcurve" smooth="yes"/>
      <point x="734" y="1055"/>
      <point x="705" y="1029"/>
    </contour>
    <contour>
      <point x="601" y="708" type="qcurve" smooth="yes"/>
      <point x="581" y="708"/>
      <point x="555" y="736"/>
      <point x="555" y="756" type="qcurve" smooth="yes"/>
      <point x="555" y="776"/>
      <point x="581" y="803"/>
      <point x="601" y="803" type="qcurve" smooth="yes"/>
      <point x="621" y="803"/>
      <point x="649" y="776"/>
      <point x="649" y="756" type="qcurve" smooth="yes"/>
      <point x="649" y="736"/>
      <point x="621" y="708"/>
    </contour>
    <contour>
      <point x="734" y="434" type="qcurve" smooth="yes"/>
      <point x="734" y="417"/>
      <point x="710" y="386"/>
      <point x="688" y="386" type="qcurve" smooth="yes"/>
      <point x="669" y="386"/>
      <point x="640" y="412"/>
      <point x="640" y="434" type="qcurve" smooth="yes"/>
      <point x="640" y="453"/>
      <point x="667" y="482"/>
      <point x="688" y="482" type="qcurve" smooth="yes"/>
      <point x="705" y="482"/>
      <point x="734" y="456"/>
    </contour>
    <contour>
      <point x="923" y="152" type="qcurve" smooth="yes"/>
      <point x="903" y="152"/>
      <point x="875" y="180"/>
      <point x="875" y="198" type="qcurve" smooth="yes"/>
      <point x="875" y="218"/>
      <point x="903" y="246"/>
      <point x="922" y="246" type="qcurve" smooth="yes"/>
      <point x="939" y="246"/>
      <point x="970" y="220"/>
      <point x="970" y="200" type="qcurve" smooth="yes"/>
      <point x="970" y="180"/>
      <point x="942" y="152"/>
    </contour>
    <contour>
      <point x="1244" y="66" type="qcurve" smooth="yes"/>
      <point x="1224" y="66"/>
      <point x="1196" y="93"/>
      <point x="1196" y="113" type="qcurve" smooth="yes"/>
      <point x="1196" y="133"/>
      <point x="1224" y="160"/>
      <point x="1244" y="160" type="qcurve" smooth="yes"/>
      <point x="1264" y="160"/>
      <point x="1292" y="133"/>
      <point x="1292" y="113" type="qcurve" smooth="yes"/>
      <point x="1292" y="93"/>
      <point x="1264" y="66"/>
    </contour>
    <contour>
      <point x="1613" y="198" type="qcurve" smooth="yes"/>
      <point x="1613" y="180"/>
      <point x="1585" y="152"/>
      <point x="1565" y="152" type="qcurve" smooth="yes"/>
      <point x="1547" y="152"/>
      <point x="1518" y="177"/>
      <point x="1518" y="198" type="qcurve" smooth="yes"/>
      <point x="1518" y="217"/>
      <point x="1546" y="246"/>
      <point x="1566" y="246" type="qcurve" smooth="yes"/>
      <point x="1585" y="246"/>
      <point x="1613" y="218"/>
    </contour>
    <contour>
      <point x="1800" y="386" type="qcurve" smooth="yes"/>
      <point x="1778" y="386"/>
      <point x="1752" y="417"/>
      <point x="1752" y="434" type="qcurve" smooth="yes"/>
      <point x="1752" y="456"/>
      <point x="1783" y="482"/>
      <point x="1800" y="482" type="qcurve" smooth="yes"/>
      <point x="1819" y="482"/>
      <point x="1848" y="454"/>
      <point x="1848" y="434" type="qcurve" smooth="yes"/>
      <point x="1848" y="412"/>
      <point x="1817" y="386"/>
    </contour>
  </outline>
</glyph>
<glyph name="uni231B" format="2">
  <advance width="2600"/>
  <unicode hex="231B"/>
  <outline>
    <contour>
      <point x="1995" y="-51" type="qcurve"/>
      <point x="2037" y="-60"/>
      <point x="2092" y="-127"/>
      <point x="2092" y="-172" type="qcurve" smooth="yes"/>
      <point x="2092" y="-224"/>
      <point x="2019" y="-296"/>
      <point x="1967" y="-296" type="qcurve" smooth="yes"/>
      <point x="632" y="-296" type="line" smooth="yes"/>
      <point x="580" y="-296"/>
      <point x="507" y="-222"/>
      <point x="507" y="-172" type="qcurve" smooth="yes"/>
      <point x="507" y="-128"/>
      <point x="561" y="-62"/>
      <point x="603" y="-51" type="qcurve"/>
      <point x="609" y="233"/>
      <point x="788" y="569"/>
      <point x="1091" y="724"/>
      <point x="1119" y="778"/>
      <point x="1119" y="798" type="qcurve" smooth="yes"/>
      <point x="1119" y="867"/>
      <point x="904" y="959"/>
      <point x="719" y="1128"/>
      <point x="606" y="1434"/>
      <point x="603" y="1660" type="qcurve"/>
      <point x="561" y="1671"/>
      <point x="507" y="1737"/>
      <point x="507" y="1781" type="qcurve" smooth="yes"/>
      <point x="507" y="1832"/>
      <point x="582" y="1905"/>
      <point x="632" y="1905" type="qcurve" smooth="yes"/>
      <point x="1967" y="1905" type="line" smooth="yes"/>
      <point x="2017" y="1905"/>
      <point x="2092" y="1834"/>
      <point x="2092" y="1781" type="qcurve" smooth="yes"/>
      <point x="2092" y="1736"/>
      <point x="2037" y="1669"/>
      <point x="1995" y="1660" type="qcurve"/>
      <point x="1989" y="1367"/>
      <point x="1810" y="1028"/>
      <point x="1500" y="869"/>
      <point x="1478" y="813"/>
      <point x="1478" y="798" type="qcurve" smooth="yes"/>
      <point x="1478" y="729"/>
      <point x="1689" y="639"/>
      <point x="1876" y="471"/>
      <point x="1989" y="172"/>
    </contour>
    <contour>
      <point x="1036" y="607" type="line" smooth="yes"/>
      <point x="914" y="543"/>
      <point x="826" y="459"/>
      <point x="748" y="342"/>
      <point x="685" y="117"/>
      <point x="681" y="-48" type="qcurve"/>
      <point x="1915" y="-48" type="line"/>
      <point x="1909" y="220"/>
      <point x="1742" y="525"/>
      <point x="1399" y="677"/>
      <point x="1399" y="798" type="qcurve" smooth="yes"/>
      <point x="1399" y="912"/>
      <point x="1687" y="1049"/>
      <point x="1832" y="1211"/>
      <point x="1912" y="1464"/>
      <point x="1917" y="1652" type="qcurve"/>
      <point x="681" y="1652" type="line"/>
      <point x="684" y="1478"/>
      <point x="758" y="1221"/>
      <point x="903" y="1050"/>
      <point x="1197" y="912"/>
      <point x="1197" y="798" type="qcurve" smooth="yes"/>
      <point x="1197" y="747"/>
      <point x="1141" y="663"/>
      <point x="1072" y="627" type="qcurve" smooth="yes"/>
    </contour>
    <contour>
      <point x="1521" y="541" type="line"/>
      <point x="1645" y="478"/>
      <point x="1744" y="370"/>
      <point x="1821" y="183"/>
      <point x="1834" y="22" type="qcurve"/>
      <point x="762" y="22" type="line"/>
      <point x="776" y="213"/>
      <point x="899" y="445"/>
      <point x="1010" y="506" type="qcurve" smooth="yes"/>
      <point x="1076" y="541" type="line"/>
    </contour>
  </outline>
</glyph>
<glyph name="uni23E9" format="2">
  <advance width="2600"/>
  <unicode hex="23E9"/>
  <outline>
    <contour>
      <point x="236" y="1365" type="line"/>
      <point x="1248" y="780" type="line"/>
      <point x="1248" y="1365" type="line"/>
      <point x="2363" y="720" type="line"/>
      <point x="1248" y="76" type="line"/>
      <point x="1248" y="660" type="line"/>
      <point x="236" y="76" type="line"/>
    </contour>
  </outline>
</glyph>
<glyph name="uni23EA" format="2">
  <advance width="2600"/>
  <unicode hex="23EA"/>
  <outline>
    <contour>
      <point x="2363" y="76" type="line"/>
      <point x="1351" y="660" type="line"/>
      <point x="1351" y="76" type="line"/>
      <point x="236" y="720" type="line"/>
      <point x="1351" y="1365" type="line"/>
      <point x="1351" y="780" type="line"/>
      <point x="2363" y="1365" type="line"/>
    </contour>
  </outline>
</glyph>
<glyph name="uni23EB" format="2">
  <advance width="2600"/>
  <unicode hex="23EB"/>
  <outline>
    <contour>
      <point x="655" y="-343" type="line"/>
      <point x="1240" y="669" type="line"/>
      <point x="655" y="669" type="line"/>
      <point x="1300" y="1784" type="line"/>
      <point x="1944" y="669" type="line"/>
      <point x="1360" y="669" type="line"/>
      <point x="1944" y="-343" type="line"/>
    </contour>
  </outline>
</glyph>
<glyph name="uni23EC" format="2">
  <advance width="2600"/>
  <unicode hex="23EC"/>
  <outline>
    <contour>
      <point x="1944" y="1784" type="line"/>
      <point x="1360" y="772" type="line"/>
      <point x="1944" y="772" type="line"/>
      <point x="1300" y="-343" type="line"/>
      <point x="655" y="772" type="line"/>
      <point x="1240" y="772" type="line"/>
      <point x="655" y="1784" type="line"/>
    </contour>
  </outline>
</glyph>
<glyph name="uni23F0" format="2">
  <advance width="2600"/>
  <unicode hex="23F0"/>
  <outline>
    <contour>
      <point x="1355" y="1533" type="line"/>
      <point x="1576" y="1520"/>
      <point x="1957" y="1283"/>
      <point x="2182" y="884"/>
      <point x="2182" y="653" type="qcurve" smooth="yes"/>
      <point x="2182" y="510"/>
      <point x="2097" y="253"/>
      <point x="2021" y="144" type="qcurve"/>
      <point x="2074" y="-115" type="line"/>
      <point x="2076" y="-120"/>
      <point x="2076" y="-134"/>
      <point x="2077" y="-152" type="qcurve"/>
      <point x="2077" y="-211"/>
      <point x="2012" y="-279"/>
      <point x="1948" y="-279" type="qcurve" smooth="yes"/>
      <point x="1289" y="-274" type="line"/>
      <point x="632" y="-279" type="line" smooth="yes"/>
      <point x="568" y="-279"/>
      <point x="501" y="-212"/>
      <point x="501" y="-152" type="qcurve" smooth="yes"/>
      <point x="501" y="-136"/>
      <point x="504" y="-122"/>
      <point x="506" y="-115" type="qcurve"/>
      <point x="564" y="166" type="line"/>
      <point x="494" y="272"/>
      <point x="418" y="517"/>
      <point x="418" y="653" type="qcurve" smooth="yes"/>
      <point x="418" y="881"/>
      <point x="639" y="1278"/>
      <point x="1021" y="1519"/>
      <point x="1244" y="1533" type="qcurve"/>
      <point x="1244" y="1658" type="line"/>
      <point x="1169" y="1658" type="line"/>
      <point x="1169" y="1783" type="line"/>
      <point x="1432" y="1783" type="line"/>
      <point x="1432" y="1658" type="line"/>
      <point x="1355" y="1658" type="line"/>
    </contour>
    <contour>
      <point x="1300" y="1417" type="qcurve" smooth="yes"/>
      <point x="1096" y="1417"/>
      <point x="739" y="1212"/>
      <point x="536" y="855"/>
      <point x="536" y="653" type="qcurve" smooth="yes"/>
      <point x="536" y="446"/>
      <point x="744" y="91"/>
      <point x="1097" y="-112"/>
      <point x="1300" y="-112" type="qcurve" smooth="yes"/>
      <point x="1505" y="-112"/>
      <point x="1860" y="95"/>
      <point x="2065" y="452"/>
      <point x="2065" y="653" type="qcurve" smooth="yes"/>
      <point x="2065" y="856"/>
      <point x="1860" y="1211"/>
      <point x="1503" y="1417"/>
    </contour>
    <contour>
      <point x="1359" y="764" type="line"/>
      <point x="1391" y="749"/>
      <point x="1426" y="687"/>
      <point x="1426" y="653" type="qcurve" smooth="yes"/>
      <point x="1426" y="599"/>
      <point x="1357" y="528"/>
      <point x="1295" y="528" type="qcurve"/>
      <point x="1155" y="284" type="line"/>
      <point x="1049" y="344" type="line"/>
      <point x="1192" y="590" type="line"/>
      <point x="1184" y="604"/>
      <point x="1174" y="637"/>
      <point x="1174" y="654" type="qcurve" smooth="yes"/>
      <point x="1174" y="688"/>
      <point x="1210" y="745"/>
      <point x="1239" y="762" type="qcurve"/>
      <point x="1239" y="1303" type="line"/>
      <point x="1359" y="1303" type="line"/>
    </contour>
    <contour>
      <point x="1347" y="653" type="qcurve" smooth="yes"/>
      <point x="1347" y="671"/>
      <point x="1317" y="701"/>
      <point x="1300" y="701" type="qcurve" smooth="yes"/>
      <point x="1280" y="701"/>
      <point x="1252" y="673"/>
      <point x="1252" y="653" type="qcurve" smooth="yes"/>
      <point x="1252" y="632"/>
      <point x="1282" y="605"/>
      <point x="1300" y="605" type="qcurve" smooth="yes"/>
      <point x="1319" y="605"/>
      <point x="1347" y="633"/>
    </contour>
    <contour>
      <point x="1943" y="605" type="qcurve" smooth="yes"/>
      <point x="1922" y="605"/>
      <point x="1895" y="633"/>
      <point x="1895" y="653" type="qcurve" smooth="yes"/>
      <point x="1895" y="673"/>
      <point x="1922" y="701"/>
      <point x="1943" y="701" type="qcurve" smooth="yes"/>
      <point x="1960" y="701"/>
      <point x="1989" y="673"/>
      <point x="1989" y="653" type="qcurve" smooth="yes"/>
      <point x="1989" y="635"/>
      <point x="1963" y="605"/>
    </contour>
    <contour>
      <point x="1621" y="1161" type="qcurve" smooth="yes"/>
      <point x="1599" y="1161"/>
      <point x="1573" y="1192"/>
      <point x="1573" y="1209" type="qcurve" smooth="yes"/>
      <point x="1573" y="1232"/>
      <point x="1605" y="1255"/>
      <point x="1622" y="1255" type="qcurve" smooth="yes"/>
      <point x="1641" y="1255"/>
      <point x="1667" y="1228"/>
      <point x="1667" y="1207" type="qcurve" smooth="yes"/>
      <point x="1667" y="1187"/>
      <point x="1638" y="1161"/>
    </contour>
    <contour>
      <point x="978" y="1161" type="qcurve" smooth="yes"/>
      <point x="961" y="1161"/>
      <point x="932" y="1186"/>
      <point x="932" y="1207" type="qcurve" smooth="yes"/>
      <point x="932" y="1226"/>
      <point x="957" y="1255"/>
      <point x="977" y="1255" type="qcurve" smooth="yes"/>
      <point x="996" y="1255"/>
      <point x="1026" y="1231"/>
      <point x="1026" y="1209" type="qcurve" smooth="yes"/>
      <point x="1026" y="1192"/>
      <point x="1000" y="1161"/>
    </contour>
    <contour>
      <point x="1808" y="975" type="qcurve" smooth="yes"/>
      <point x="1808" y="993"/>
      <point x="1836" y="1021"/>
      <point x="1855" y="1021" type="qcurve" smooth="yes"/>
      <point x="1877" y="1021"/>
      <point x="1903" y="992"/>
      <point x="1903" y="975" type="qcurve" smooth="yes"/>
      <point x="1903" y="957"/>
      <point x="1878" y="927"/>
      <point x="1856" y="927" type="qcurve" smooth="yes"/>
      <point x="1838" y="927"/>
      <point x="1808" y="954"/>
    </contour>
    <contour>
      <point x="743" y="927" type="qcurve" smooth="yes"/>
      <point x="721" y="927"/>
      <point x="696" y="957"/>
      <point x="696" y="975" type="qcurve"/>
      <point x="699" y="996"/>
      <point x="725" y="1021"/>
      <point x="745" y="1021" type="qcurve" smooth="yes"/>
      <point x="764" y="1021"/>
      <point x="791" y="994"/>
      <point x="791" y="973" type="qcurve" smooth="yes"/>
      <point x="791" y="951"/>
      <point x="761" y="927"/>
    </contour>
    <contour>
      <point x="660" y="606" type="qcurve" smooth="yes"/>
      <point x="639" y="606"/>
      <point x="610" y="633"/>
      <point x="610" y="653" type="qcurve" smooth="yes"/>
      <point x="610" y="670"/>
      <point x="637" y="701"/>
      <point x="658" y="701" type="qcurve" smooth="yes"/>
      <point x="678" y="701"/>
      <point x="704" y="673"/>
      <point x="704" y="653" type="qcurve" smooth="yes"/>
      <point x="704" y="633"/>
      <point x="679" y="606"/>
    </contour>
    <contour>
      <point x="789" y="332" type="qcurve" smooth="yes"/>
      <point x="789" y="316"/>
      <point x="769" y="284"/>
      <point x="744" y="284" type="qcurve" smooth="yes"/>
      <point x="721" y="284"/>
      <point x="696" y="314"/>
      <point x="696" y="329" type="qcurve" smooth="yes"/>
      <point x="696" y="348"/>
      <point x="721" y="379"/>
      <point x="743" y="379" type="qcurve" smooth="yes"/>
      <point x="761" y="379"/>
      <point x="789" y="352"/>
    </contour>
    <contour>
      <point x="977" y="50" type="qcurve" smooth="yes"/>
      <point x="956" y="50"/>
      <point x="932" y="79"/>
      <point x="932" y="98" type="qcurve" smooth="yes"/>
      <point x="932" y="120"/>
      <point x="961" y="144"/>
      <point x="978" y="144" type="qcurve" smooth="yes"/>
      <point x="996" y="144"/>
      <point x="1026" y="116"/>
      <point x="1026" y="96" type="qcurve" smooth="yes"/>
      <point x="1026" y="73"/>
      <point x="996" y="50"/>
    </contour>
    <contour>
      <point x="1300" y="-37" type="qcurve" smooth="yes"/>
      <point x="1280" y="-37"/>
      <point x="1252" y="-10"/>
      <point x="1252" y="10" type="qcurve" smooth="yes"/>
      <point x="1252" y="30"/>
      <point x="1280" y="58"/>
      <point x="1300" y="58" type="qcurve" smooth="yes"/>
      <point x="1320" y="58"/>
      <point x="1347" y="30"/>
      <point x="1347" y="10" type="qcurve" smooth="yes"/>
      <point x="1347" y="-10"/>
      <point x="1317" y="-37"/>
    </contour>
    <contour>
      <point x="1667" y="98" type="qcurve" smooth="yes"/>
      <point x="1667" y="79"/>
      <point x="1643" y="50"/>
      <point x="1622" y="50" type="qcurve" smooth="yes"/>
      <point x="1605" y="50"/>
      <point x="1573" y="73"/>
      <point x="1573" y="96" type="qcurve" smooth="yes"/>
      <point x="1573" y="114"/>
      <point x="1601" y="144"/>
      <point x="1621" y="144" type="qcurve" smooth="yes"/>
      <point x="1638" y="144"/>
      <point x="1667" y="118"/>
    </contour>
    <contour>
      <point x="1855" y="284" type="qcurve" smooth="yes"/>
      <point x="1832" y="284"/>
      <point x="1810" y="317"/>
      <point x="1810" y="336" type="qcurve" smooth="yes"/>
      <point x="1810" y="355"/>
      <point x="1839" y="379"/>
      <point x="1856" y="379" type="qcurve" smooth="yes"/>
      <point x="1875" y="379"/>
      <point x="1903" y="351"/>
      <point x="1903" y="331" type="qcurve" smooth="yes"/>
      <point x="1903" y="311"/>
      <point x="1875" y="284"/>
    </contour>
    <contour>
      <point x="485" y="1675" type="qcurve"/>
      <point x="482" y="1682"/>
      <point x="480" y="1696"/>
      <point x="480" y="1703" type="qcurve" smooth="yes"/>
      <point x="480" y="1735"/>
      <point x="526" y="1783"/>
      <point x="558" y="1783" type="qcurve" smooth="yes"/>
      <point x="588" y="1783"/>
      <point x="612" y="1762" type="qcurve"/>
      <point x="697" y="1802"/>
      <point x="775" y="1802" type="qcurve" smooth="yes"/>
      <point x="889" y="1802"/>
      <point x="1041" y="1668"/>
      <point x="1041" y="1647" type="qcurve" smooth="yes"/>
      <point x="1041" y="1643"/>
      <point x="1038" y="1634"/>
      <point x="1033" y="1632" type="qcurve"/>
      <point x="464" y="1240" type="line" smooth="yes"/>
      <point x="456" y="1234"/>
      <point x="448" y="1231"/>
      <point x="445" y="1231" type="qcurve" smooth="yes"/>
      <point x="426" y="1231"/>
      <point x="369" y="1363"/>
      <point x="369" y="1429" type="qcurve" smooth="yes"/>
      <point x="369" y="1498"/>
      <point x="428" y="1621"/>
    </contour>
    <contour>
      <point x="1567" y="1632" type="line" smooth="yes"/>
      <point x="1559" y="1637"/>
      <point x="1559" y="1647" type="qcurve" smooth="yes"/>
      <point x="1559" y="1671"/>
      <point x="1713" y="1802"/>
      <point x="1824" y="1802" type="qcurve" smooth="yes"/>
      <point x="1903" y="1802"/>
      <point x="1988" y="1762" type="qcurve"/>
      <point x="2012" y="1783"/>
      <point x="2041" y="1783" type="qcurve" smooth="yes"/>
      <point x="2073" y="1783"/>
      <point x="2119" y="1735"/>
      <point x="2119" y="1703" type="qcurve" smooth="yes"/>
      <point x="2119" y="1696"/>
      <point x="2117" y="1682"/>
      <point x="2114" y="1675" type="qcurve"/>
      <point x="2171" y="1620"/>
      <point x="2230" y="1497"/>
      <point x="2230" y="1428" type="qcurve" smooth="yes"/>
      <point x="2230" y="1362"/>
      <point x="2173" y="1231"/>
      <point x="2154" y="1231" type="qcurve" smooth="yes"/>
      <point x="2148" y="1231"/>
      <point x="2143" y="1235" type="qcurve"/>
    </contour>
  </outline>
</glyph>
<glyph name="uni23F3" format="2">
  <advance width="2600"/>
  <unicode hex="23F3"/>
  <outline>
    <contour>
      <point x="1993" y="-49" type="qcurve"/>
      <point x="2036" y="-59"/>
      <point x="2091" y="-126"/>
      <point x="2091" y="-171" type="qcurve" smooth="yes"/>
      <point x="2091" y="-223"/>
      <point x="2019" y="-295"/>
      <point x="1967" y="-295" type="qcurve" smooth="yes"/>
      <point x="633" y="-295" type="line" smooth="yes"/>
      <point x="581" y="-295"/>
      <point x="508" y="-221"/>
      <point x="508" y="-171" type="qcurve" smooth="yes"/>
      <point x="508" y="-126"/>
      <point x="562" y="-61"/>
      <point x="604" y="-51" type="qcurve"/>
      <point x="611" y="236"/>
      <point x="794" y="571"/>
      <point x="1093" y="722"/>
      <point x="1119" y="777"/>
      <point x="1119" y="797" type="qcurve" smooth="yes"/>
      <point x="1119" y="867"/>
      <point x="906" y="958"/>
      <point x="720" y="1126"/>
      <point x="607" y="1433"/>
      <point x="603" y="1658" type="qcurve"/>
      <point x="562" y="1668"/>
      <point x="508" y="1733"/>
      <point x="508" y="1778" type="qcurve" smooth="yes"/>
      <point x="508" y="1828"/>
      <point x="581" y="1902"/>
      <point x="633" y="1902" type="qcurve" smooth="yes"/>
      <point x="1967" y="1902" type="line" smooth="yes"/>
      <point x="2019" y="1902"/>
      <point x="2091" y="1830"/>
      <point x="2091" y="1778" type="qcurve" smooth="yes"/>
      <point x="2091" y="1734"/>
      <point x="2036" y="1666"/>
      <point x="1993" y="1658" type="qcurve"/>
      <point x="1989" y="1367"/>
      <point x="1808" y="1027"/>
      <point x="1502" y="871"/>
      <point x="1477" y="815"/>
      <point x="1477" y="797" type="qcurve" smooth="yes"/>
      <point x="1477" y="729"/>
      <point x="1692" y="636"/>
      <point x="1874" y="470"/>
      <point x="1987" y="172"/>
    </contour>
    <contour>
      <point x="682" y="-47" type="qcurve"/>
      <point x="1915" y="-47" type="line"/>
      <point x="1911" y="130"/>
      <point x="1833" y="383"/>
      <point x="1691" y="545"/>
      <point x="1399" y="684"/>
      <point x="1399" y="797" type="qcurve" smooth="yes"/>
      <point x="1399" y="918"/>
      <point x="1741" y="1071"/>
      <point x="1909" y="1376"/>
      <point x="1915" y="1649" type="qcurve"/>
      <point x="682" y="1649" type="line"/>
      <point x="686" y="1379"/>
      <point x="849" y="1076"/>
      <point x="1127" y="947"/>
      <point x="1197" y="858"/>
      <point x="1197" y="797" type="qcurve" smooth="yes"/>
      <point x="1197" y="678"/>
      <point x="849" y="523"/>
      <point x="688" y="213"/>
    </contour>
    <contour>
      <point x="1803" y="245" type="line"/>
      <point x="1819" y="199"/>
      <point x="1839" y="84"/>
      <point x="1844" y="12" type="qcurve"/>
      <point x="754" y="12" type="line"/>
      <point x="758" y="84"/>
      <point x="779" y="199"/>
      <point x="795" y="245" type="qcurve"/>
      <point x="1266" y="245" type="line"/>
      <point x="1266" y="797" type="line" smooth="yes"/>
      <point x="1266" y="865"/>
      <point x="1190" y="986"/>
      <point x="1096" y="1034" type="qcurve" smooth="yes"/>
      <point x="1043" y="1061" type="line" smooth="yes"/>
      <point x="1016" y="1075"/>
      <point x="959" y="1110"/>
      <point x="930" y="1134" type="qcurve"/>
      <point x="1666" y="1134" type="line"/>
      <point x="1619" y="1095"/>
      <point x="1330" y="940"/>
      <point x="1330" y="797" type="qcurve" smooth="yes"/>
      <point x="1330" y="245" type="line"/>
    </contour>
  </outline>
</glyph>
<glyph name="uni24C2" format="2">
  <advance width="2600"/>
  <unicode hex="24C2"/>
  <outline>
    <contour>
      <point x="1300" y="-300" type="qcurve" smooth="yes"/>
      <point x="1016" y="-300"/>
      <point x="531" y="-14"/>
      <point x="258" y="467"/>
      <point x="258" y="742" type="qcurve" smooth="yes"/>
      <point x="258" y="1014"/>
      <point x="527" y="1494"/>
      <point x="1015" y="1783"/>
      <point x="1300" y="1783" type="qcurve" smooth="yes"/>
      <point x="1580" y="1783"/>
      <point x="2062" y="1504"/>
      <point x="2341" y="1022"/>
      <point x="2341" y="742" type="qcurve" smooth="yes"/>
      <point x="2341" y="459"/>
      <point x="2059" y="-24"/>
      <point x="1578" y="-300"/>
    </contour>
    <contour>
      <point x="1300" y="1683" type="qcurve" smooth="yes"/>
      <point x="1047" y="1683"/>
      <point x="612" y="1431"/>
      <point x="358" y="995"/>
      <point x="358" y="742" type="qcurve" smooth="yes"/>
      <point x="358" y="488"/>
      <point x="611" y="53"/>
      <point x="1046" y="-200"/>
      <point x="1300" y="-200" type="qcurve" smooth="yes"/>
      <point x="1553" y="-200"/>
      <point x="1989" y="54"/>
      <point x="2241" y="489"/>
      <point x="2241" y="742" type="qcurve" smooth="yes"/>
      <point x="2241" y="995"/>
      <point x="1988" y="1430"/>
      <point x="1553" y="1683"/>
    </contour>
    <contour>
      <point x="1799" y="1353" type="line" smooth="yes"/>
      <point x="1812" y="1353"/>
      <point x="1824" y="1337"/>
      <point x="1825" y="1329" type="qcurve" smooth="yes"/>
      <point x="1918" y="220" type="line"/>
      <point x="1918" y="211"/>
      <point x="1903" y="196"/>
      <point x="1892" y="196" type="qcurve" smooth="yes"/>
      <point x="1662" y="196" type="line" smooth="yes"/>
      <point x="1651" y="196"/>
      <point x="1637" y="210"/>
      <point x="1636" y="219" type="qcurve" smooth="yes"/>
      <point x="1589" y="690" type="line"/>
      <point x="1411" y="213" type="line" smooth="yes"/>
      <point x="1408" y="206"/>
      <point x="1394" y="196"/>
      <point x="1386" y="196" type="qcurve" smooth="yes"/>
      <point x="1214" y="196" type="line" smooth="yes"/>
      <point x="1203" y="196"/>
      <point x="1191" y="206"/>
      <point x="1189" y="213" type="qcurve"/>
      <point x="1010" y="690" type="line"/>
      <point x="965" y="219" type="line"/>
      <point x="963" y="210"/>
      <point x="948" y="196"/>
      <point x="939" y="196" type="qcurve" smooth="yes"/>
      <point x="707" y="196" type="line" smooth="yes"/>
      <point x="696" y="196"/>
      <point x="681" y="211"/>
      <point x="681" y="224" type="qcurve"/>
      <point x="774" y="1329" type="line"/>
      <point x="774" y="1338"/>
      <point x="788" y="1353"/>
      <point x="800" y="1353" type="qcurve" smooth="yes"/>
      <point x="1047" y="1353" type="line" smooth="yes"/>
      <point x="1068" y="1353"/>
      <point x="1071" y="1335" type="qcurve"/>
      <point x="1300" y="593" type="line"/>
      <point x="1528" y="1335" type="line"/>
      <point x="1530" y="1343"/>
      <point x="1543" y="1353"/>
      <point x="1552" y="1353" type="qcurve" smooth="yes"/>
    </contour>
  </outline>
</glyph>
<glyph name="H18543" format="2">
  <advance width="2600"/>
  <unicode hex="25AA"/>
  <outline>
    <contour>
      <point x="1557" y="501" type="line"/>
      <point x="1044" y="501" type="line"/>
      <point x="1044" y="1017" type="line"/>
      <point x="1557" y="1017" type="line"/>
    </contour>
  </outline>
</glyph>
<glyph name="H18551" format="2">
  <advance width="2600"/>
  <unicode hex="25AB"/>
  <outline>
    <contour>
      <point x="1556" y="1015" type="line"/>
      <point x="1556" y="502" type="line"/>
      <point x="1043" y="502" type="line"/>
      <point x="1043" y="1015" type="line"/>
    </contour>
    <contour>
      <point x="1459" y="917" type="line"/>
      <point x="1141" y="917" type="line"/>
      <point x="1141" y="599" type="line"/>
      <point x="1459" y="599" type="line"/>
    </contour>
  </outline>
</glyph>
<glyph name="uni25B6" format="2">
  <advance width="2600"/>
  <unicode hex="25B6"/>
  <outline>
    <contour>
      <point x="2073" y="731" type="line"/>
      <point x="526" y="-162" type="line"/>
      <point x="526" y="1623" type="line"/>
    </contour>
  </outline>
</glyph>
<glyph name="uni25C0" format="2">
  <advance width="2600"/>
  <unicode hex="25C0"/>
  <outline>
    <contour>
      <point x="2073" y="1624" type="line"/>
      <point x="2073" y="-161" type="line"/>
      <point x="526" y="732" type="line"/>
    </contour>
  </outline>
</glyph>
<glyph name="lozenge" format="2">
  <advance width="2600"/>
  <unicode hex="25CA"/>
  <outline>
    <contour>
      <point x="1970" y="739" type="line"/>
      <point x="1351" y="-271" type="line"/>
      <point x="1247" y="-271" type="line"/>
      <point x="630" y="736" type="line"/>
      <point x="1247" y="1750" type="line"/>
      <point x="1351" y="1750" type="line"/>
    </contour>
    <contour>
      <point x="1718" y="739" type="line"/>
      <point x="1300" y="1440" type="line"/>
      <point x="882" y="739" type="line"/>
      <point x="1300" y="35" type="line"/>
    </contour>
  </outline>
</glyph>
<glyph name="uni25FB" format="2">
  <advance width="2600"/>
  <unicode hex="25FB"/>
  <outline>
    <contour>
      <point x="2065" y="1531" type="line"/>
      <point x="2065" y="0" type="line"/>
      <point x="534" y="0" type="line"/>
      <point x="534" y="1531" type="line"/>
    </contour>
    <contour>
      <point x="1947" y="1413" type="line"/>
      <point x="652" y="1413" type="line"/>
      <point x="652" y="118" type="line"/>
      <point x="1947" y="118" type="line"/>
    </contour>
  </outline>
</glyph>
<glyph name="uni25FC" format="2">
  <advance width="2600"/>
  <unicode hex="25FC"/>
  <outline>
    <contour>
      <point x="2065" y="0" type="line"/>
      <point x="534" y="0" type="line"/>
      <point x="534" y="1531" type="line"/>
      <point x="2065" y="1531" type="line"/>
    </contour>
  </outline>
</glyph>
<glyph name="uni25FD" format="2">
  <advance width="2600"/>
  <unicode hex="25FD"/>
  <outline>
    <contour>
      <point x="1741" y="1192" type="line"/>
      <point x="1741" y="309" type="line"/>
      <point x="859" y="309" type="line"/>
      <point x="859" y="1192" type="line"/>
    </contour>
    <contour>
      <point x="1623" y="1075" type="line"/>
      <point x="977" y="1075" type="line"/>
      <point x="977" y="426" type="line"/>
      <point x="1623" y="426" type="line"/>
    </contour>
  </outline>
</glyph>
<glyph name="uni25FE" format="2">
  <advance width="2600"/>
  <unicode hex="25FE"/>
  <outline>
    <contour>
      <point x="1741" y="310" type="line"/>
      <point x="859" y="310" type="line"/>
      <point x="859" y="1192" type="line"/>
      <point x="1741" y="1192" type="line"/>
    </contour>
  </outline>
</glyph>
<glyph name="uni2600" format="2">
  <advance width="2600"/>
  <unicode hex="2600"/>
  <outline>
    <contour>
      <point x="1300" y="268" type="qcurve" smooth="yes"/>
      <point x="1099" y="268"/>
      <point x="815" y="552"/>
      <point x="815" y="753" type="qcurve" smooth="yes"/>
      <point x="815" y="954"/>
      <point x="1099" y="1238"/>
      <point x="1300" y="1238" type="qcurve" smooth="yes"/>
      <point x="1499" y="1238"/>
      <point x="1785" y="955"/>
      <point x="1785" y="753" type="qcurve" smooth="yes"/>
      <point x="1785" y="551"/>
      <point x="1499" y="268"/>
    </contour>
    <contour>
      <point x="1195" y="1326" type="line" smooth="yes"/>
      <point x="1182" y="1326"/>
      <point x="1166" y="1345"/>
      <point x="1166" y="1356" type="qcurve" smooth="yes"/>
      <point x="1166" y="1363"/>
      <point x="1167" y="1365" type="qcurve"/>
      <point x="1273" y="1649" type="line" smooth="yes"/>
      <point x="1280" y="1668"/>
      <point x="1300" y="1668" type="qcurve" smooth="yes"/>
      <point x="1320" y="1668"/>
      <point x="1327" y="1649" type="qcurve" smooth="yes"/>
      <point x="1432" y="1365" type="line"/>
      <point x="1433" y="1356" type="line"/>
      <point x="1433" y="1345"/>
      <point x="1417" y="1326"/>
      <point x="1404" y="1326" type="qcurve" smooth="yes"/>
    </contour>
    <contour>
      <point x="1632" y="1232" type="line"/>
      <point x="1623" y="1239"/>
      <point x="1623" y="1253" type="qcurve" smooth="yes"/>
      <point x="1623" y="1270"/>
      <point x="1640" y="1279" type="qcurve"/>
      <point x="1914" y="1406" type="line" smooth="yes"/>
      <point x="1918" y="1408"/>
      <point x="1926" y="1408" type="qcurve" smooth="yes"/>
      <point x="1937" y="1408"/>
      <point x="1955" y="1392"/>
      <point x="1955" y="1379" type="qcurve" smooth="yes"/>
      <point x="1955" y="1376"/>
      <point x="1954" y="1373" type="qcurve" smooth="yes"/>
      <point x="1952" y="1367" type="line"/>
      <point x="1826" y="1093" type="line" smooth="yes"/>
      <point x="1819" y="1079"/>
      <point x="1806" y="1076" type="qcurve"/>
      <point x="1788" y="1076"/>
      <point x="1778" y="1085" type="qcurve"/>
    </contour>
    <contour>
      <point x="2196" y="780" type="line" smooth="yes"/>
      <point x="2215" y="773"/>
      <point x="2215" y="753" type="qcurve" smooth="yes"/>
      <point x="2215" y="733"/>
      <point x="2196" y="726" type="qcurve" smooth="yes"/>
      <point x="1912" y="620" type="line"/>
      <point x="1903" y="619" type="line"/>
      <point x="1890" y="619"/>
      <point x="1873" y="635"/>
      <point x="1873" y="649" type="qcurve" smooth="yes"/>
      <point x="1873" y="857" type="line" smooth="yes"/>
      <point x="1873" y="868"/>
      <point x="1889" y="886"/>
      <point x="1900" y="886" type="qcurve" smooth="yes"/>
      <point x="1908" y="886"/>
      <point x="1912" y="885" type="qcurve"/>
    </contour>
    <contour>
      <point x="1952" y="139" type="line"/>
      <point x="1954" y="133" type="line"/>
      <point x="1954" y="129"/>
      <point x="1955" y="126" type="qcurve"/>
      <point x="1955" y="114"/>
      <point x="1939" y="97"/>
      <point x="1926" y="97" type="qcurve" smooth="yes"/>
      <point x="1920" y="97"/>
      <point x="1914" y="100" type="qcurve" smooth="yes"/>
      <point x="1640" y="226" type="line" smooth="yes"/>
      <point x="1623" y="233"/>
      <point x="1623" y="252" type="qcurve" smooth="yes"/>
      <point x="1623" y="265"/>
      <point x="1632" y="273" type="qcurve"/>
      <point x="1778" y="421" type="line" smooth="yes"/>
      <point x="1787" y="430"/>
      <point x="1800" y="430" type="qcurve" smooth="yes"/>
      <point x="1817" y="430"/>
      <point x="1826" y="413" type="qcurve"/>
    </contour>
    <contour>
      <point x="1404" y="180" type="line" smooth="yes"/>
      <point x="1415" y="180"/>
      <point x="1433" y="161"/>
      <point x="1433" y="150" type="qcurve" smooth="yes"/>
      <point x="1433" y="143"/>
      <point x="1432" y="139" type="qcurve"/>
      <point x="1327" y="-143" type="line" smooth="yes"/>
      <point x="1324" y="-152"/>
      <point x="1309" y="-162"/>
      <point x="1300" y="-162" type="qcurve" smooth="yes"/>
      <point x="1291" y="-162"/>
      <point x="1276" y="-152"/>
      <point x="1273" y="-143" type="qcurve" smooth="yes"/>
      <point x="1167" y="139" type="line"/>
      <point x="1167" y="142"/>
      <point x="1166" y="149" type="qcurve"/>
      <point x="1166" y="161"/>
      <point x="1182" y="179"/>
      <point x="1195" y="180" type="qcurve"/>
    </contour>
    <contour>
      <point x="968" y="273" type="line"/>
      <point x="977" y="265"/>
      <point x="977" y="252" type="qcurve" smooth="yes"/>
      <point x="977" y="244"/>
      <point x="966" y="229"/>
      <point x="959" y="226" type="qcurve" smooth="yes"/>
      <point x="686" y="100" type="line" smooth="yes"/>
      <point x="680" y="97"/>
      <point x="674" y="97" type="qcurve" smooth="yes"/>
      <point x="660" y="97"/>
      <point x="644" y="113"/>
      <point x="644" y="126" type="qcurve"/>
      <point x="645" y="133" type="line"/>
      <point x="645" y="136"/>
      <point x="647" y="139" type="qcurve"/>
      <point x="773" y="413" type="line" smooth="yes"/>
      <point x="780" y="430"/>
      <point x="799" y="430" type="qcurve" smooth="yes"/>
      <point x="812" y="430"/>
      <point x="820" y="421" type="qcurve"/>
    </contour>
    <contour>
      <point x="686" y="620" type="line"/>
      <point x="404" y="726" type="line" smooth="yes"/>
      <point x="395" y="729"/>
      <point x="385" y="744"/>
      <point x="385" y="753" type="qcurve" smooth="yes"/>
      <point x="385" y="762"/>
      <point x="395" y="777"/>
      <point x="404" y="780" type="qcurve" smooth="yes"/>
      <point x="692" y="887" type="line"/>
      <point x="697" y="887" type="line" smooth="yes"/>
      <point x="710" y="887"/>
      <point x="726" y="868"/>
      <point x="726" y="857" type="qcurve" smooth="yes"/>
      <point x="726" y="649" type="line" smooth="yes"/>
      <point x="726" y="636"/>
      <point x="710" y="619"/>
      <point x="697" y="619" type="qcurve"/>
    </contour>
    <contour>
      <point x="647" y="1367" type="line"/>
      <point x="644" y="1371"/>
      <point x="644" y="1379" type="qcurve" smooth="yes"/>
      <point x="644" y="1393"/>
      <point x="663" y="1408"/>
      <point x="674" y="1408" type="qcurve" smooth="yes"/>
      <point x="682" y="1408"/>
      <point x="686" y="1406" type="qcurve" smooth="yes"/>
      <point x="959" y="1279" type="line" smooth="yes"/>
      <point x="966" y="1276"/>
      <point x="977" y="1262"/>
      <point x="977" y="1253" type="qcurve" smooth="yes"/>
      <point x="977" y="1239"/>
      <point x="968" y="1232" type="qcurve"/>
      <point x="820" y="1085" type="line"/>
      <point x="812" y="1076"/>
      <point x="800" y="1076" type="qcurve" smooth="yes"/>
      <point x="781" y="1076"/>
      <point x="773" y="1093" type="qcurve" smooth="yes"/>
    </contour>
  </outline>
</glyph>
<glyph name="uni2601" format="2">
  <advance width="2600"/>
  <unicode hex="2601"/>
  <outline>
    <contour>
      <point x="2048" y="958" type="qcurve"/>
      <point x="2165" y="958"/>
      <point x="2333" y="790"/>
      <point x="2333" y="673" type="qcurve" smooth="yes"/>
      <point x="2333" y="557"/>
      <point x="2165" y="389"/>
      <point x="2048" y="389" type="qcurve" smooth="yes"/>
      <point x="2025" y="389"/>
      <point x="1981" y="395"/>
      <point x="1960" y="403" type="qcurve"/>
      <point x="1925" y="282"/>
      <point x="1727" y="132"/>
      <point x="1604" y="132" type="qcurve" smooth="yes"/>
      <point x="1541" y="132"/>
      <point x="1427" y="172"/>
      <point x="1381" y="207" type="qcurve"/>
      <point x="1320" y="157"/>
      <point x="1169" y="101"/>
      <point x="1084" y="101" type="qcurve" smooth="yes"/>
      <point x="946" y="101"/>
      <point x="716" y="248"/>
      <point x="659" y="370" type="qcurve"/>
      <point x="648" y="370"/>
      <point x="629" y="369" type="qcurve"/>
      <point x="474" y="369"/>
      <point x="267" y="576"/>
      <point x="267" y="721" type="qcurve" smooth="yes"/>
      <point x="267" y="861"/>
      <point x="463" y="1065"/>
      <point x="601" y="1071" type="qcurve"/>
      <point x="613" y="1191"/>
      <point x="797" y="1365"/>
      <point x="923" y="1365" type="qcurve" smooth="yes"/>
      <point x="964" y="1365"/>
      <point x="1038" y="1345"/>
      <point x="1071" y="1328" type="qcurve"/>
      <point x="1123" y="1393"/>
      <point x="1273" y="1469"/>
      <point x="1363" y="1469" type="qcurve" smooth="yes"/>
      <point x="1478" y="1469"/>
      <point x="1668" y="1339"/>
      <point x="1710" y="1237" type="qcurve"/>
      <point x="1733" y="1241"/>
      <point x="1764" y="1241" type="qcurve" smooth="yes"/>
      <point x="1880" y="1241"/>
      <point x="2048" y="1074"/>
    </contour>
    <contour>
      <point x="2048" y="840" type="qcurve" smooth="yes"/>
      <point x="1999" y="840"/>
      <point x="1930" y="910"/>
      <point x="1930" y="958" type="qcurve" smooth="yes"/>
      <point x="1930" y="1026"/>
      <point x="1832" y="1123"/>
      <point x="1764" y="1123" type="qcurve" smooth="yes"/>
      <point x="1751" y="1123"/>
      <point x="1723" y="1119"/>
      <point x="1710" y="1119" type="qcurve" smooth="yes"/>
      <point x="1633" y="1119"/>
      <point x="1564" y="1271"/>
      <point x="1436" y="1351"/>
      <point x="1363" y="1351" type="qcurve" smooth="yes"/>
      <point x="1305" y="1351"/>
      <point x="1201" y="1301"/>
      <point x="1126" y="1210"/>
      <point x="1071" y="1210" type="qcurve" smooth="yes"/>
      <point x="1044" y="1210"/>
      <point x="966" y="1247"/>
      <point x="923" y="1247" type="qcurve" smooth="yes"/>
      <point x="851" y="1247"/>
      <point x="733" y="1152"/>
      <point x="703" y="965"/>
      <point x="529" y="947"/>
      <point x="426" y="868"/>
      <point x="402" y="809" type="qcurve" smooth="yes"/>
      <point x="385" y="767"/>
      <point x="385" y="721" type="qcurve" smooth="yes"/>
      <point x="385" y="624"/>
      <point x="522" y="486"/>
      <point x="625" y="486" type="qcurve" smooth="yes"/>
      <point x="638" y="486"/>
      <point x="645" y="488" type="qcurve"/>
      <point x="737" y="488"/>
      <point x="806" y="334"/>
      <point x="980" y="219"/>
      <point x="1084" y="219" type="qcurve" smooth="yes"/>
      <point x="1149" y="219"/>
      <point x="1262" y="263"/>
      <point x="1338" y="325"/>
      <point x="1381" y="325" type="qcurve" smooth="yes"/>
      <point x="1422" y="325"/>
      <point x="1527" y="249"/>
      <point x="1604" y="249" type="qcurve" smooth="yes"/>
      <point x="1681" y="249"/>
      <point x="1817" y="343"/>
      <point x="1877" y="521"/>
      <point x="1960" y="521" type="qcurve" smooth="yes"/>
      <point x="1982" y="521"/>
      <point x="2025" y="507"/>
      <point x="2048" y="507" type="qcurve" smooth="yes"/>
      <point x="2115" y="507"/>
      <point x="2215" y="603"/>
      <point x="2215" y="673" type="qcurve" smooth="yes"/>
      <point x="2215" y="743"/>
      <point x="2114" y="840"/>
    </contour>
  </outline>
</glyph>
<glyph name="uni260E" format="2">
  <advance width="2600"/>
  <unicode hex="260E"/>
  <outline>
    <contour>
      <point x="2052" y="407" type="line" smooth="yes"/>
      <point x="2068" y="362"/>
      <point x="2076" y="270"/>
      <point x="2076" y="224" type="qcurve" smooth="yes"/>
      <point x="2076" y="184"/>
      <point x="2073" y="105"/>
      <point x="2073" y="65" type="qcurve" smooth="yes"/>
      <point x="2073" y="-8"/>
      <point x="1999" y="-66"/>
      <point x="1914" y="-66" type="qcurve" smooth="yes"/>
      <point x="679" y="-66" type="line" smooth="yes"/>
      <point x="594" y="-66"/>
      <point x="518" y="-8"/>
      <point x="518" y="65" type="qcurve" smooth="yes"/>
      <point x="518" y="105"/>
      <point x="515" y="184"/>
      <point x="515" y="223" type="qcurve" smooth="yes"/>
      <point x="515" y="344"/>
      <point x="576" y="507"/>
      <point x="685" y="872" type="qcurve"/>
      <point x="812" y="906"/>
      <point x="963" y="1037"/>
      <point x="963" y="1119" type="qcurve" smooth="yes"/>
      <point x="963" y="1148"/>
      <point x="952" y="1200"/>
      <point x="944" y="1225" type="qcurve"/>
      <point x="1008" y="1258"/>
      <point x="1186" y="1291"/>
      <point x="1293" y="1291" type="qcurve" smooth="yes"/>
      <point x="1420" y="1291"/>
      <point x="1601" y="1256"/>
      <point x="1655" y="1225" type="qcurve"/>
      <point x="1647" y="1200"/>
      <point x="1636" y="1148"/>
      <point x="1636" y="1119" type="qcurve" smooth="yes"/>
      <point x="1636" y="1039"/>
      <point x="1782" y="908"/>
      <point x="1907" y="874" type="qcurve"/>
      <point x="1942" y="756"/>
      <point x="1979" y="640" type="qcurve" smooth="yes"/>
    </contour>
    <contour>
      <point x="1292" y="854" type="qcurve" smooth="yes"/>
      <point x="1338" y="854"/>
      <point x="1367" y="871"/>
      <point x="1367" y="902" type="qcurve" smooth="yes"/>
      <point x="1367" y="928"/>
      <point x="1337" y="949"/>
      <point x="1305" y="949" type="qcurve" smooth="yes"/>
      <point x="1254" y="949"/>
      <point x="1233" y="928"/>
      <point x="1233" y="906" type="qcurve" smooth="yes"/>
      <point x="1233" y="874"/>
      <point x="1257" y="854"/>
    </contour>
    <contour>
      <point x="1312" y="699" type="qcurve" smooth="yes"/>
      <point x="1345" y="699"/>
      <point x="1370" y="721"/>
      <point x="1370" y="751" type="qcurve" smooth="yes"/>
      <point x="1370" y="778"/>
      <point x="1339" y="803"/>
      <point x="1304" y="803" type="qcurve" smooth="yes"/>
      <point x="1252" y="803"/>
      <point x="1231" y="781"/>
      <point x="1231" y="759" type="qcurve" smooth="yes"/>
      <point x="1231" y="724"/>
      <point x="1256" y="699"/>
    </contour>
    <contour>
      <point x="1305" y="531" type="qcurve" smooth="yes"/>
      <point x="1345" y="531"/>
      <point x="1373" y="553"/>
      <point x="1373" y="586" type="qcurve" smooth="yes"/>
      <point x="1373" y="614"/>
      <point x="1341" y="645"/>
      <point x="1280" y="645" type="qcurve" smooth="yes"/>
      <point x="1254" y="645"/>
      <point x="1227" y="620"/>
      <point x="1227" y="592" type="qcurve" smooth="yes"/>
      <point x="1227" y="557"/>
      <point x="1254" y="531"/>
    </contour>
    <contour>
      <point x="1026" y="472" type="qcurve"/>
      <point x="993" y="472"/>
      <point x="963" y="439"/>
      <point x="963" y="396" type="qcurve" smooth="yes"/>
      <point x="963" y="370"/>
      <point x="987" y="347"/>
      <point x="1017" y="347" type="qcurve" smooth="yes"/>
      <point x="1077" y="347"/>
      <point x="1117" y="372"/>
      <point x="1117" y="420" type="qcurve" smooth="yes"/>
      <point x="1117" y="462"/>
      <point x="1031" y="471"/>
    </contour>
    <contour>
      <point x="1043" y="645" type="qcurve" smooth="yes"/>
      <point x="1013" y="645"/>
      <point x="978" y="619"/>
      <point x="978" y="579" type="qcurve" smooth="yes"/>
      <point x="978" y="548"/>
      <point x="1009" y="531"/>
      <point x="1051" y="531" type="qcurve" smooth="yes"/>
      <point x="1102" y="531"/>
      <point x="1125" y="569"/>
      <point x="1125" y="599" type="qcurve" smooth="yes"/>
      <point x="1125" y="621"/>
      <point x="1092" y="645"/>
    </contour>
    <contour>
      <point x="1131" y="747" type="line"/>
      <point x="1131" y="753"/>
      <point x="1132" y="761" type="qcurve"/>
      <point x="1132" y="787"/>
      <point x="1094" y="803"/>
      <point x="1068" y="803" type="qcurve" smooth="yes"/>
      <point x="1023" y="803"/>
      <point x="991" y="779"/>
      <point x="991" y="743" type="qcurve" smooth="yes"/>
      <point x="991" y="712"/>
      <point x="1028" y="699"/>
      <point x="1069" y="699" type="qcurve" smooth="yes"/>
      <point x="1100" y="699"/>
      <point x="1127" y="718"/>
      <point x="1129" y="734" type="qcurve" smooth="yes"/>
    </contour>
    <contour>
      <point x="1079" y="949" type="qcurve" smooth="yes"/>
      <point x="1040" y="949"/>
      <point x="1004" y="932"/>
      <point x="1004" y="900" type="qcurve" smooth="yes"/>
      <point x="1004" y="875"/>
      <point x="1023" y="854"/>
      <point x="1052" y="854" type="qcurve" smooth="yes"/>
      <point x="1111" y="854"/>
      <point x="1138" y="878"/>
      <point x="1138" y="910" type="qcurve" smooth="yes"/>
      <point x="1138" y="933"/>
      <point x="1105" y="949"/>
    </contour>
    <contour>
      <point x="1377" y="400" type="qcurve" smooth="yes"/>
      <point x="1377" y="413" type="line" smooth="yes"/>
      <point x="1377" y="463"/>
      <point x="1289" y="471"/>
      <point x="1284" y="472" type="qcurve"/>
      <point x="1253" y="472"/>
      <point x="1225" y="444"/>
      <point x="1225" y="418" type="qcurve" smooth="yes"/>
      <point x="1225" y="377"/>
      <point x="1248" y="347"/>
      <point x="1283" y="347" type="qcurve" smooth="yes"/>
      <point x="1349" y="347"/>
      <point x="1377" y="374"/>
    </contour>
    <contour>
      <point x="1465" y="889" type="line"/>
      <point x="1467" y="869"/>
      <point x="1498" y="854"/>
      <point x="1525" y="854" type="qcurve" smooth="yes"/>
      <point x="1568" y="854"/>
      <point x="1597" y="870"/>
      <point x="1597" y="897" type="qcurve" smooth="yes"/>
      <point x="1597" y="923"/>
      <point x="1568" y="949"/>
      <point x="1531" y="949" type="qcurve" smooth="yes"/>
      <point x="1496" y="949"/>
      <point x="1462" y="937"/>
      <point x="1462" y="914" type="qcurve" smooth="yes"/>
      <point x="1462" y="906"/>
      <point x="1463" y="900" type="qcurve" smooth="yes"/>
    </contour>
    <contour>
      <point x="1554" y="699" type="qcurve" smooth="yes"/>
      <point x="1585" y="699"/>
      <point x="1609" y="718"/>
      <point x="1609" y="745" type="qcurve" smooth="yes"/>
      <point x="1609" y="772"/>
      <point x="1581" y="803"/>
      <point x="1540" y="803" type="qcurve" smooth="yes"/>
      <point x="1497" y="803"/>
      <point x="1469" y="789"/>
      <point x="1469" y="764" type="qcurve" smooth="yes"/>
      <point x="1469" y="729"/>
      <point x="1495" y="699"/>
    </contour>
    <contour>
      <point x="1558" y="531" type="qcurve" smooth="yes"/>
      <point x="1594" y="531"/>
      <point x="1624" y="549"/>
      <point x="1624" y="580" type="qcurve" smooth="yes"/>
      <point x="1624" y="617"/>
      <point x="1590" y="645"/>
      <point x="1527" y="645" type="qcurve" smooth="yes"/>
      <point x="1514" y="645"/>
      <point x="1477" y="630"/>
      <point x="1477" y="603" type="qcurve" smooth="yes"/>
      <point x="1477" y="562"/>
      <point x="1503" y="531"/>
    </contour>
    <contour>
      <point x="1541" y="472" type="qcurve"/>
      <point x="1515" y="472"/>
      <point x="1485" y="449"/>
      <point x="1485" y="425" type="qcurve" smooth="yes"/>
      <point x="1485" y="382"/>
      <point x="1512" y="347"/>
      <point x="1549" y="347" type="qcurve" smooth="yes"/>
      <point x="1598" y="347"/>
      <point x="1639" y="362"/>
      <point x="1639" y="388" type="qcurve" smooth="yes"/>
      <point x="1639" y="440"/>
      <point x="1606" y="470"/>
      <point x="1579" y="470" type="qcurve" smooth="yes"/>
      <point x="1558" y="470"/>
    </contour>
    <contour>
      <point x="2294" y="1150" type="line"/>
      <point x="2294" y="1132" type="line" smooth="yes"/>
      <point x="2294" y="1035"/>
      <point x="2173" y="930"/>
      <point x="2065" y="930" type="qcurve" smooth="yes"/>
      <point x="1957" y="930"/>
      <point x="1714" y="1037"/>
      <point x="1714" y="1120" type="qcurve" smooth="yes"/>
      <point x="1714" y="1147"/>
      <point x="1735" y="1203"/>
      <point x="1735" y="1229" type="qcurve" smooth="yes"/>
      <point x="1735" y="1298"/>
      <point x="1473" y="1370"/>
      <point x="1291" y="1370" type="qcurve" smooth="yes"/>
      <point x="1138" y="1370"/>
      <point x="864" y="1296"/>
      <point x="864" y="1230" type="qcurve" smooth="yes"/>
      <point x="864" y="1204"/>
      <point x="884" y="1147"/>
      <point x="884" y="1120" type="qcurve" smooth="yes"/>
      <point x="884" y="1043"/>
      <point x="655" y="930"/>
      <point x="534" y="930" type="qcurve" smooth="yes"/>
      <point x="426" y="930"/>
      <point x="305" y="1036"/>
      <point x="305" y="1132" type="qcurve" smooth="yes"/>
      <point x="305" y="1387"/>
      <point x="875" y="1698"/>
      <point x="1299" y="1698" type="qcurve" smooth="yes"/>
      <point x="1708" y="1698"/>
      <point x="2266" y="1411"/>
      <point x="2292" y="1168" type="qcurve" smooth="yes"/>
    </contour>
  </outline>
</glyph>
<glyph name="uni2611" format="2">
  <advance width="2600"/>
  <unicode hex="2611"/>
  <outline>
    <contour>
      <point x="2290" y="1821" type="line" smooth="yes"/>
      <point x="2310" y="1821"/>
      <point x="2339" y="1792"/>
      <point x="2339" y="1772" type="qcurve" smooth="yes"/>
      <point x="2339" y="-208" type="line" smooth="yes"/>
      <point x="2339" y="-228"/>
      <point x="2310" y="-257"/>
      <point x="2290" y="-257" type="qcurve" smooth="yes"/>
      <point x="310" y="-257" type="line" smooth="yes"/>
      <point x="290" y="-257"/>
      <point x="261" y="-228"/>
      <point x="261" y="-208" type="qcurve" smooth="yes"/>
      <point x="261" y="1772" type="line" smooth="yes"/>
      <point x="261" y="1792"/>
      <point x="290" y="1821"/>
      <point x="310" y="1821" type="qcurve" smooth="yes"/>
    </contour>
    <contour>
      <point x="2218" y="1701" type="line"/>
      <point x="381" y="1701" type="line"/>
      <point x="381" y="-136" type="line"/>
      <point x="2218" y="-136" type="line"/>
    </contour>
    <contour>
      <point x="1057" y="153" type="line"/>
      <point x="447" y="760" type="line"/>
      <point x="600" y="912" type="line"/>
      <point x="1057" y="459" type="line"/>
      <point x="2000" y="1411" type="line"/>
      <point x="2153" y="1259" type="line"/>
    </contour>
  </outline>
</glyph>
<glyph name="uni2614" format="2">
  <advance width="2600"/>
  <unicode hex="2614"/>
  <outline>
    <contour>
      <point x="1401" y="1362" type="line"/>
      <point x="1635" y="1343"/>
      <point x="2033" y="1142"/>
      <point x="2262" y="819"/>
      <point x="2262" y="635" type="qcurve" smooth="yes"/>
      <point x="2262" y="584"/>
      <point x="2249" y="538"/>
      <point x="2220" y="538" type="qcurve" smooth="yes"/>
      <point x="2198" y="538"/>
      <point x="2160" y="591"/>
      <point x="2027" y="668"/>
      <point x="1941" y="668" type="qcurve" smooth="yes"/>
      <point x="1870" y="668"/>
      <point x="1750" y="613"/>
      <point x="1672" y="532"/>
      <point x="1647" y="478"/>
      <point x="1621" y="478" type="qcurve" smooth="yes"/>
      <point x="1593" y="478"/>
      <point x="1565" y="539"/>
      <point x="1471" y="628"/>
      <point x="1403" y="650" type="qcurve"/>
      <point x="1403" y="66" type="line" smooth="yes"/>
      <point x="1403" y="-76"/>
      <point x="1198" y="-281"/>
      <point x="1055" y="-281" type="qcurve" smooth="yes"/>
      <point x="961" y="-281"/>
      <point x="799" y="-185"/>
      <point x="715" y="-37"/>
      <point x="715" y="6" type="qcurve" smooth="yes"/>
      <point x="715" y="45"/>
      <point x="771" y="104"/>
      <point x="814" y="104" type="qcurve" smooth="yes"/>
      <point x="845" y="104"/>
      <point x="900" y="65"/>
      <point x="922" y="-19"/>
      <point x="1003" y="-85"/>
      <point x="1055" y="-85" type="qcurve" smooth="yes"/>
      <point x="1117" y="-85"/>
      <point x="1206" y="4"/>
      <point x="1206" y="66" type="qcurve" smooth="yes"/>
      <point x="1206" y="653" type="line"/>
      <point x="1132" y="631"/>
      <point x="1032" y="536"/>
      <point x="1007" y="479"/>
      <point x="979" y="479" type="qcurve" smooth="yes"/>
      <point x="952" y="479"/>
      <point x="929" y="532"/>
      <point x="850" y="613"/>
      <point x="728" y="668"/>
      <point x="659" y="668" type="qcurve" smooth="yes"/>
      <point x="576" y="668"/>
      <point x="445" y="595"/>
      <point x="403" y="538"/>
      <point x="380" y="538" type="qcurve" smooth="yes"/>
      <point x="357" y="538"/>
      <point x="338" y="590"/>
      <point x="338" y="635" type="qcurve" smooth="yes"/>
      <point x="338" y="819"/>
      <point x="568" y="1141"/>
      <point x="969" y="1345"/>
      <point x="1208" y="1362" type="qcurve"/>
      <point x="1223" y="1573" type="line" smooth="yes"/>
      <point x="1225" y="1604"/>
      <point x="1272" y="1645"/>
      <point x="1307" y="1645" type="qcurve" smooth="yes"/>
      <point x="1338" y="1645"/>
      <point x="1383" y="1604"/>
      <point x="1385" y="1573" type="qcurve" smooth="yes"/>
    </contour>
    <contour>
      <point x="1582" y="903" type="qcurve" smooth="yes"/>
      <point x="1582" y="855"/>
      <point x="1651" y="786"/>
      <point x="1699" y="786" type="qcurve" smooth="yes"/>
      <point x="1747" y="786"/>
      <point x="1816" y="855"/>
      <point x="1816" y="903" type="qcurve" smooth="yes"/>
      <point x="1816" y="961"/>
      <point x="1729" y="1175"/>
      <point x="1699" y="1175" type="qcurve" smooth="yes"/>
      <point x="1685" y="1175"/>
      <point x="1656" y="1137"/>
      <point x="1582" y="965"/>
    </contour>
    <contour>
      <point x="1868" y="1823" type="qcurve" smooth="yes"/>
      <point x="1897" y="1823"/>
      <point x="1984" y="1608"/>
      <point x="1984" y="1551" type="qcurve" smooth="yes"/>
      <point x="1984" y="1503"/>
      <point x="1916" y="1434"/>
      <point x="1868" y="1434" type="qcurve" smooth="yes"/>
      <point x="1819" y="1434"/>
      <point x="1751" y="1502"/>
      <point x="1751" y="1551" type="qcurve" smooth="yes"/>
      <point x="1751" y="1612"/>
      <point x="1838" y="1823"/>
    </contour>
    <contour>
      <point x="702" y="1823" type="qcurve" smooth="yes"/>
      <point x="732" y="1823"/>
      <point x="819" y="1609"/>
      <point x="819" y="1551" type="qcurve" smooth="yes"/>
      <point x="819" y="1505"/>
      <point x="752" y="1434"/>
      <point x="702" y="1434" type="qcurve" smooth="yes"/>
      <point x="652" y="1434"/>
      <point x="585" y="1505"/>
      <point x="585" y="1551" type="qcurve" smooth="yes"/>
      <point x="585" y="1606"/>
      <point x="645" y="1758"/>
      <point x="684" y="1823"/>
    </contour>
  </outline>
</glyph>
<glyph name="uni2615" format="2">
  <advance width="2600"/>
  <unicode hex="2615"/>
  <outline>
    <contour>
      <point x="1848" y="817" type="line" smooth="yes"/>
      <point x="2045" y="796"/>
      <point x="2203" y="650"/>
      <point x="2203" y="515" type="qcurve" smooth="yes"/>
      <point x="2203" y="444"/>
      <point x="2153" y="323"/>
      <point x="2058" y="210"/>
      <point x="1928" y="124"/>
      <point x="1784" y="72"/>
      <point x="1665" y="60"/>
      <point x="1620" y="19"/>
      <point x="1608" y="11" type="qcurve" smooth="yes"/>
      <point x="1559" y="-20" type="line" smooth="yes"/>
      <point x="1459" y="-80"/>
      <point x="1270" y="-129"/>
      <point x="1166" y="-129" type="qcurve" smooth="yes"/>
      <point x="971" y="-129"/>
      <point x="716" y="-21"/>
      <point x="518" y="185"/>
      <point x="406" y="422"/>
      <point x="406" y="599" type="qcurve" smooth="yes"/>
      <point x="406" y="731"/>
      <point x="498" y="899"/>
      <point x="711" y="1053"/>
      <point x="972" y="1108"/>
      <point x="1156" y="1108" type="qcurve" smooth="yes"/>
      <point x="1345" y="1108"/>
      <point x="1651" y="989"/>
      <point x="1745" y="894" type="qcurve" smooth="yes"/>
      <point x="1809" y="829" type="line" smooth="yes"/>
      <point x="1817" y="821"/>
      <point x="1828" y="820" type="qcurve"/>
    </contour>
    <contour>
      <point x="1121" y="1019" type="qcurve" smooth="yes"/>
      <point x="832" y="1019"/>
      <point x="511" y="808"/>
      <point x="511" y="588" type="qcurve" smooth="yes"/>
      <point x="511" y="351"/>
      <point x="837" y="-32"/>
      <point x="1168" y="-32" type="qcurve" smooth="yes"/>
      <point x="1256" y="-32"/>
      <point x="1489" y="42"/>
      <point x="1623" y="143"/>
      <point x="1638" y="143"/>
      <point x="1775" y="161"/>
      <point x="1933" y="231"/>
      <point x="2056" y="346"/>
      <point x="2104" y="462"/>
      <point x="2104" y="504" type="qcurve" smooth="yes"/>
      <point x="2104" y="598"/>
      <point x="2015" y="699"/>
      <point x="1846" y="737"/>
      <point x="1744" y="741"/>
      <point x="1691" y="830"/>
      <point x="1529" y="944"/>
      <point x="1274" y="1019"/>
    </contour>
    <contour>
      <point x="1117" y="472" type="qcurve" smooth="yes"/>
      <point x="1009" y="472"/>
      <point x="791" y="525"/>
      <point x="662" y="646"/>
      <point x="662" y="718" type="qcurve" smooth="yes"/>
      <point x="662" y="826"/>
      <point x="937" y="968"/>
      <point x="1159" y="968" type="qcurve" smooth="yes"/>
      <point x="1339" y="968"/>
      <point x="1569" y="816"/>
      <point x="1569" y="725" type="qcurve" smooth="yes"/>
      <point x="1569" y="625"/>
      <point x="1324" y="472"/>
    </contour>
    <contour>
      <point x="1692" y="241" type="qcurve" smooth="yes"/>
      <point x="1665" y="241"/>
      <point x="1665" y="252" type="qcurve" smooth="yes"/>
      <point x="1665" y="262"/>
      <point x="1718" y="393"/>
      <point x="1759" y="600"/>
      <point x="1759" y="610" type="qcurve" smooth="yes"/>
      <point x="1759" y="615"/>
      <point x="1761" y="617" type="qcurve"/>
      <point x="1763" y="623"/>
      <point x="1785" y="627"/>
      <point x="1799" y="627" type="qcurve" smooth="yes"/>
      <point x="1908" y="627"/>
      <point x="1993" y="562"/>
      <point x="1993" y="502" type="qcurve" smooth="yes"/>
      <point x="1993" y="412"/>
      <point x="1809" y="241"/>
    </contour>
    <contour>
      <point x="1840" y="541" type="qcurve" smooth="yes"/>
      <point x="1835" y="541"/>
      <point x="1827" y="539" type="qcurve"/>
      <point x="1825" y="520"/>
      <point x="1818" y="486" type="qcurve" smooth="yes"/>
      <point x="1803" y="421" type="line" smooth="yes"/>
      <point x="1799" y="404"/>
      <point x="1787" y="371"/>
      <point x="1782" y="354" type="qcurve"/>
      <point x="1780" y="349" type="line"/>
      <point x="1778" y="346"/>
      <point x="1778" y="343" type="qcurve" smooth="yes"/>
      <point x="1778" y="337"/>
      <point x="1786" y="337" type="qcurve" smooth="yes"/>
      <point x="1794" y="337"/>
      <point x="1821" y="355"/>
      <point x="1831" y="363" type="qcurve" smooth="yes"/>
      <point x="1839" y="370" type="line" smooth="yes"/>
      <point x="1861" y="389"/>
      <point x="1897" y="449"/>
      <point x="1897" y="484" type="qcurve" smooth="yes"/>
      <point x="1897" y="511"/>
      <point x="1859" y="541"/>
    </contour>
    <contour>
      <point x="1686" y="1614" type="qcurve" smooth="yes"/>
      <point x="1786" y="1614"/>
      <point x="1931" y="1690"/>
      <point x="1981" y="1824"/>
      <point x="2015" y="1824" type="qcurve" smooth="yes"/>
      <point x="2036" y="1824"/>
      <point x="2061" y="1712"/>
      <point x="2061" y="1652" type="qcurve" smooth="yes"/>
      <point x="2061" y="1483"/>
      <point x="1863" y="1266"/>
      <point x="1688" y="1266" type="qcurve" smooth="yes"/>
      <point x="1637" y="1266"/>
      <point x="1480" y="1289"/>
      <point x="1429" y="1289" type="qcurve" smooth="yes"/>
      <point x="1317" y="1289"/>
      <point x="1129" y="1235"/>
      <point x="1078" y="1187" type="qcurve" smooth="yes"/>
      <point x="1053" y="1164" type="line" smooth="yes"/>
      <point x="1039" y="1150"/>
      <point x="1023" y="1150" type="qcurve" smooth="yes"/>
      <point x="1001" y="1150"/>
      <point x="983" y="1187"/>
      <point x="983" y="1222" type="qcurve" smooth="yes"/>
      <point x="983" y="1342"/>
      <point x="1104" y="1543"/>
      <point x="1331" y="1634"/>
      <point x="1434" y="1634" type="qcurve" smooth="yes"/>
      <point x="1497" y="1634"/>
      <point x="1623" y="1614"/>
    </contour>
    <contour>
      <point x="1057" y="1256" type="qcurve"/>
      <point x="1102" y="1301"/>
      <point x="1248" y="1385"/>
      <point x="1387" y="1385" type="qcurve" smooth="yes"/>
      <point x="1439" y="1385"/>
      <point x="1626" y="1356"/>
      <point x="1681" y="1356" type="qcurve" smooth="yes"/>
      <point x="1776" y="1356"/>
      <point x="1920" y="1454"/>
      <point x="1988" y="1606"/>
      <point x="1988" y="1641" type="qcurve" smooth="yes"/>
      <point x="1988" y="1653"/>
      <point x="1982" y="1653" type="qcurve" smooth="yes"/>
      <point x="1976" y="1653"/>
      <point x="1937" y="1595"/>
      <point x="1812" y="1530"/>
      <point x="1723" y="1530" type="qcurve" smooth="yes"/>
      <point x="1654" y="1530"/>
      <point x="1519" y="1550"/>
      <point x="1450" y="1550" type="qcurve" smooth="yes"/>
      <point x="1323" y="1550"/>
      <point x="1150" y="1469"/>
      <point x="1055" y="1303"/>
      <point x="1055" y="1263" type="qcurve" smooth="yes"/>
      <point x="1055" y="1256"/>
    </contour>
  </outline>
</glyph>
<glyph name="uni261D" format="2">
  <advance width="2600"/>
  <unicode hex="261D"/>
  <outline>
    <contour>
      <point x="1600" y="88" type="qcurve"/>
      <point x="1645" y="88"/>
      <point x="1677" y="40"/>
      <point x="1677" y="-55" type="qcurve" smooth="yes"/>
      <point x="1677" y="-89" type="line"/>
      <point x="1676" y="-101" type="line"/>
      <point x="1676" y="-115" type="line"/>
      <point x="1705" y="-117" type="line" smooth="yes"/>
      <point x="1728" y="-119"/>
      <point x="1771" y="-149"/>
      <point x="1779" y="-214"/>
      <point x="1779" y="-239" type="qcurve"/>
      <point x="1778" y="-267" type="line"/>
      <point x="1778" y="-310" type="line" smooth="yes"/>
      <point x="1778" y="-333"/>
      <point x="1777" y="-359" type="qcurve"/>
      <point x="778" y="-357" type="line"/>
      <point x="782" y="-229" type="line" smooth="yes"/>
      <point x="782" y="-206"/>
      <point x="785" y="-188" type="qcurve"/>
      <point x="787" y="-162" type="line" smooth="yes"/>
      <point x="791" y="-101"/>
      <point x="812" y="-71"/>
      <point x="852" y="-68" type="qcurve"/>
      <point x="865" y="-68" type="line"/>
      <point x="869" y="-30"/>
      <point x="884" y="49"/>
      <point x="902" y="119"/>
      <point x="939" y="119" type="qcurve" smooth="yes"/>
      <point x="947" y="119" type="line"/>
      <point x="968" y="116" type="line"/>
      <point x="948" y="198"/>
      <point x="836" y="265"/>
      <point x="735" y="392"/>
      <point x="655" y="643"/>
      <point x="634" y="695" type="qcurve" smooth="yes"/>
      <point x="598" y="779" type="line" smooth="yes"/>
      <point x="582" y="816"/>
      <point x="563" y="885"/>
      <point x="563" y="926" type="qcurve" smooth="yes"/>
      <point x="563" y="1015"/>
      <point x="691" y="1148"/>
      <point x="778" y="1148" type="qcurve"/>
      <point x="797" y="1147" type="line"/>
      <point x="805" y="1147"/>
      <point x="823" y="1153"/>
      <point x="866" y="1257"/>
      <point x="965" y="1311"/>
      <point x="1013" y="1311" type="qcurve" smooth="yes"/>
      <point x="1027" y="1311"/>
      <point x="1050" y="1305"/>
      <point x="1059" y="1305" type="qcurve" smooth="yes"/>
      <point x="1078" y="1305"/>
      <point x="1114" y="1361"/>
      <point x="1216" y="1426"/>
      <point x="1278" y="1426" type="qcurve" smooth="yes"/>
      <point x="1299" y="1426"/>
      <point x="1336" y="1421"/>
      <point x="1352" y="1416" type="qcurve"/>
      <point x="1354" y="1548" type="line"/>
      <point x="1355" y="1802" type="line" smooth="yes"/>
      <point x="1360" y="1901"/>
      <point x="1490" y="2044"/>
      <point x="1588" y="2044" type="qcurve" smooth="yes"/>
      <point x="1704" y="2044"/>
      <point x="1851" y="1902"/>
      <point x="1851" y="1796" type="qcurve" smooth="yes"/>
      <point x="1851" y="1786"/>
      <point x="1849" y="1743" type="qcurve" smooth="yes"/>
      <point x="1844" y="1637" type="line"/>
      <point x="1837" y="1503" type="line" smooth="yes"/>
      <point x="1833" y="1431"/>
      <point x="1830" y="1364" type="qcurve" smooth="yes"/>
      <point x="1821" y="1162" type="line"/>
      <point x="1821" y="1140"/>
      <point x="1852" y="1109" type="qcurve"/>
      <point x="1932" y="1079"/>
      <point x="2037" y="938"/>
      <point x="2037" y="794" type="qcurve" smooth="yes"/>
      <point x="2037" y="685"/>
      <point x="1964" y="476"/>
      <point x="1823" y="314"/>
      <point x="1668" y="230"/>
      <point x="1619" y="183"/>
      <point x="1604" y="150"/>
    </contour>
    <contour>
      <point x="1475" y="1222" type="line"/>
      <point x="1487" y="1183" type="line"/>
      <point x="1498" y="1140" type="line"/>
      <point x="1535" y="1146"/>
      <point x="1577" y="1146" type="qcurve" smooth="yes"/>
      <point x="1602" y="1146"/>
      <point x="1638" y="1144"/>
      <point x="1653" y="1143" type="qcurve"/>
      <point x="1707" y="1136" type="line"/>
      <point x="1708" y="1177" type="line" smooth="yes"/>
      <point x="1708" y="1209"/>
      <point x="1712" y="1256" type="qcurve" smooth="yes"/>
      <point x="1717" y="1359" type="line"/>
      <point x="1727" y="1587" type="line" smooth="yes"/>
      <point x="1727" y="1617"/>
      <point x="1734" y="1737"/>
      <point x="1735" y="1760" type="qcurve" smooth="yes"/>
      <point x="1736" y="1794" type="line" smooth="yes"/>
      <point x="1736" y="1857"/>
      <point x="1655" y="1930"/>
      <point x="1595" y="1930" type="qcurve" smooth="yes"/>
      <point x="1545" y="1930"/>
      <point x="1483" y="1855"/>
      <point x="1480" y="1800" type="qcurve" smooth="yes"/>
    </contour>
    <contour>
      <point x="1178" y="1150" type="qcurve" smooth="yes"/>
      <point x="1192" y="1096" type="line" smooth="yes"/>
      <point x="1218" y="997"/>
      <point x="1277" y="823"/>
      <point x="1345" y="823" type="qcurve" smooth="yes"/>
      <point x="1367" y="823"/>
      <point x="1396" y="840"/>
      <point x="1405" y="851" type="qcurve"/>
      <point x="1373" y="874"/>
      <point x="1347" y="946"/>
      <point x="1347" y="993" type="qcurve" smooth="yes"/>
      <point x="1347" y="1035"/>
      <point x="1377" y="1089"/>
      <point x="1404" y="1106" type="qcurve"/>
      <point x="1402" y="1114"/>
      <point x="1361" y="1314"/>
      <point x="1266" y="1314" type="qcurve" smooth="yes"/>
      <point x="1217" y="1314"/>
      <point x="1164" y="1259"/>
      <point x="1164" y="1218" type="qcurve" smooth="yes"/>
      <point x="1164" y="1205"/>
      <point x="1169" y="1180"/>
    </contour>
    <contour>
      <point x="903" y="1018" type="qcurve" smooth="yes"/>
      <point x="922" y="971" type="line" smooth="yes"/>
      <point x="932" y="945"/>
      <point x="957" y="888"/>
      <point x="970" y="862" type="qcurve" smooth="yes"/>
      <point x="993" y="815" type="line" smooth="yes"/>
      <point x="1016" y="767"/>
      <point x="1063" y="740"/>
      <point x="1089" y="740" type="qcurve" smooth="yes"/>
      <point x="1122" y="740"/>
      <point x="1181" y="785"/>
      <point x="1181" y="819" type="qcurve" smooth="yes"/>
      <point x="1181" y="832"/>
      <point x="1177" y="845" type="qcurve" smooth="yes"/>
      <point x="1142" y="964" type="line" smooth="yes"/>
      <point x="1121" y="1032"/>
      <point x="1069" y="1192"/>
      <point x="993" y="1192" type="qcurve" smooth="yes"/>
      <point x="942" y="1192"/>
      <point x="888" y="1133"/>
      <point x="888" y="1084" type="qcurve" smooth="yes"/>
      <point x="888" y="1066"/>
      <point x="893" y="1045"/>
    </contour>
    <contour>
      <point x="937" y="718" type="qcurve" smooth="yes"/>
      <point x="937" y="731"/>
      <point x="931" y="746" type="qcurve" smooth="yes"/>
      <point x="847" y="956" type="line" smooth="yes"/>
      <point x="833" y="990"/>
      <point x="784" y="1019"/>
      <point x="758" y="1019" type="qcurve" smooth="yes"/>
      <point x="711" y="1019"/>
      <point x="662" y="963"/>
      <point x="662" y="917" type="qcurve" smooth="yes"/>
      <point x="662" y="871"/>
      <point x="745" y="712"/>
      <point x="792" y="639"/>
      <point x="835" y="639" type="qcurve" smooth="yes"/>
      <point x="873" y="639"/>
      <point x="937" y="683"/>
    </contour>
    <contour>
      <point x="1588" y="-95" type="line" smooth="yes"/>
      <point x="1588" y="-38"/>
      <point x="1579" y="-14"/>
      <point x="1560" y="-14" type="qcurve" smooth="yes"/>
      <point x="1512" y="-14"/>
      <point x="1382" y="-10"/>
      <point x="1319" y="-7" type="qcurve" smooth="yes"/>
      <point x="1082" y="4" type="line" smooth="yes"/>
      <point x="1035" y="6"/>
      <point x="1021" y="7" type="qcurve" smooth="yes"/>
      <point x="1005" y="8" type="line"/>
      <point x="985" y="8"/>
      <point x="974" y="-29"/>
      <point x="971" y="-42" type="qcurve" smooth="yes"/>
      <point x="964" y="-71" type="line" smooth="yes"/>
      <point x="961" y="-85"/>
      <point x="960" y="-92" type="qcurve"/>
      <point x="1002" y="-97" type="line" smooth="yes"/>
      <point x="1091" y="-108"/>
      <point x="1532" y="-124"/>
      <point x="1551" y="-124" type="qcurve" smooth="yes"/>
      <point x="1588" y="-125" type="line"/>
    </contour>
    <contour>
      <point x="1728" y="1038" type="qcurve" smooth="yes"/>
      <point x="1713" y="1038"/>
      <point x="1693" y="1041" type="qcurve" smooth="yes"/>
      <point x="1649" y="1046" type="line" smooth="yes"/>
      <point x="1625" y="1049"/>
      <point x="1573" y="1054"/>
      <point x="1548" y="1054" type="qcurve" smooth="yes"/>
      <point x="1490" y="1054"/>
      <point x="1429" y="1007"/>
      <point x="1429" y="961" type="qcurve" smooth="yes"/>
      <point x="1429" y="899"/>
      <point x="1559" y="822"/>
      <point x="1619" y="822" type="qcurve" smooth="yes"/>
      <point x="1627" y="822"/>
      <point x="1630" y="823" type="qcurve"/>
      <point x="1627" y="815"/>
      <point x="1609" y="732"/>
      <point x="1609" y="702" type="qcurve"/>
      <point x="1539" y="685"/>
      <point x="1418" y="635"/>
      <point x="1380" y="597" type="qcurve" smooth="yes"/>
      <point x="1352" y="569" type="line" smooth="yes"/>
      <point x="1340" y="556"/>
      <point x="1319" y="539"/>
      <point x="1308" y="539" type="qcurve" smooth="yes"/>
      <point x="1286" y="539"/>
      <point x="1286" y="561" type="qcurve" smooth="yes"/>
      <point x="1286" y="584"/>
      <point x="1334" y="690"/>
      <point x="1346" y="710" type="qcurve"/>
      <point x="1337" y="708" type="line"/>
      <point x="1332" y="708"/>
      <point x="1320" y="707" type="qcurve"/>
      <point x="1298" y="707"/>
      <point x="1264" y="717"/>
      <point x="1252" y="723" type="qcurve"/>
      <point x="1245" y="715"/>
      <point x="1180" y="635"/>
      <point x="1109" y="635" type="qcurve" smooth="yes"/>
      <point x="1082" y="635"/>
      <point x="1035" y="644"/>
      <point x="1027" y="649" type="qcurve"/>
      <point x="1020" y="607"/>
      <point x="941" y="539"/>
      <point x="855" y="539" type="qcurve" smooth="yes"/>
      <point x="844" y="539"/>
      <point x="840" y="540" type="qcurve"/>
      <point x="848" y="458"/>
      <point x="912" y="365"/>
      <point x="1029" y="278"/>
      <point x="1074" y="175"/>
      <point x="1080" y="102" type="qcurve"/>
      <point x="1141" y="95"/>
      <point x="1405" y="82"/>
      <point x="1497" y="82" type="qcurve"/>
      <point x="1502" y="134" type="line" smooth="yes"/>
      <point x="1509" y="214"/>
      <point x="1616" y="316"/>
      <point x="1791" y="422"/>
      <point x="1924" y="648"/>
      <point x="1924" y="790" type="qcurve" smooth="yes"/>
      <point x="1924" y="932"/>
      <point x="1799" y="1035"/>
    </contour>
  </outline>
</glyph>
<glyph name="smileface" format="2">
  <advance width="2600"/>
  <unicode hex="263A"/>
  <outline>
    <contour>
      <point x="1300" y="-205" type="qcurve" smooth="yes"/>
      <point x="1051" y="-205"/>
      <point x="617" y="46"/>
      <point x="366" y="480"/>
      <point x="366" y="729" type="qcurve" smooth="yes"/>
      <point x="366" y="978"/>
      <point x="617" y="1412"/>
      <point x="1051" y="1663"/>
      <point x="1300" y="1663" type="qcurve" smooth="yes"/>
      <point x="1549" y="1663"/>
      <point x="1983" y="1412"/>
      <point x="2234" y="978"/>
      <point x="2234" y="729" type="qcurve" smooth="yes"/>
      <point x="2234" y="480"/>
      <point x="1983" y="46"/>
      <point x="1549" y="-205"/>
    </contour>
    <contour>
      <point x="1300" y="1546" type="qcurve" smooth="yes"/>
      <point x="1087" y="1546"/>
      <point x="709" y="1333"/>
      <point x="483" y="952"/>
      <point x="483" y="729" type="qcurve" smooth="yes"/>
      <point x="483" y="509"/>
      <point x="703" y="132"/>
      <point x="1080" y="-88"/>
      <point x="1300" y="-88" type="qcurve" smooth="yes"/>
      <point x="1523" y="-88"/>
      <point x="1904" y="138"/>
      <point x="2117" y="516"/>
      <point x="2117" y="729" type="qcurve" smooth="yes"/>
      <point x="2117" y="946"/>
      <point x="1897" y="1326"/>
      <point x="1517" y="1546"/>
    </contour>
    <contour>
      <point x="975" y="1077" type="qcurve" smooth="yes"/>
      <point x="1033" y="1077"/>
      <point x="1115" y="978"/>
      <point x="1115" y="910" type="qcurve" smooth="yes"/>
      <point x="1115" y="841"/>
      <point x="1032" y="744"/>
      <point x="975" y="744" type="qcurve" smooth="yes"/>
      <point x="918" y="744"/>
      <point x="836" y="841"/>
      <point x="836" y="910" type="qcurve" smooth="yes"/>
      <point x="836" y="977"/>
      <point x="917" y="1077"/>
    </contour>
    <contour>
      <point x="1623" y="1077" type="qcurve" smooth="yes"/>
      <point x="1681" y="1077"/>
      <point x="1763" y="978"/>
      <point x="1763" y="910" type="qcurve" smooth="yes"/>
      <point x="1763" y="841"/>
      <point x="1680" y="744"/>
      <point x="1623" y="744" type="qcurve" smooth="yes"/>
      <point x="1566" y="744"/>
      <point x="1484" y="841"/>
      <point x="1484" y="910" type="qcurve" smooth="yes"/>
      <point x="1484" y="977"/>
      <point x="1565" y="1077"/>
    </contour>
    <contour>
      <point x="1300" y="200" type="qcurve" smooth="yes"/>
      <point x="1194" y="200"/>
      <point x="961" y="280"/>
      <point x="767" y="492"/>
      <point x="767" y="570" type="qcurve" smooth="yes"/>
      <point x="767" y="590"/>
      <point x="792" y="618"/>
      <point x="815" y="618" type="qcurve" smooth="yes"/>
      <point x="849" y="618"/>
      <point x="973" y="483"/>
      <point x="1175" y="388"/>
      <point x="1300" y="388" type="qcurve" smooth="yes"/>
      <point x="1420" y="388"/>
      <point x="1622" y="478"/>
      <point x="1750" y="618"/>
      <point x="1784" y="618" type="qcurve" smooth="yes"/>
      <point x="1804" y="618"/>
      <point x="1832" y="593"/>
      <point x="1832" y="570" type="qcurve" smooth="yes"/>
      <point x="1832" y="494"/>
      <point x="1640" y="280"/>
      <point x="1404" y="200"/>
    </contour>
  </outline>
</glyph>
<glyph name="uni2648" format="2">
  <advance width="2600"/>
  <unicode hex="2648"/>
  <outline>
    <contour>
      <point x="2174" y="813" type="qcurve"/>
      <point x="1962" y="987" type="line"/>
      <point x="1972" y="999"/>
      <point x="1997" y="1081"/>
      <point x="1997" y="1121" type="qcurve" smooth="yes"/>
      <point x="1997" y="1235"/>
      <point x="1830" y="1395"/>
      <point x="1718" y="1395" type="qcurve" smooth="yes"/>
      <point x="1603" y="1395"/>
      <point x="1438" y="1232"/>
      <point x="1438" y="1117" type="qcurve" smooth="yes"/>
      <point x="1438" y="-175" type="line"/>
      <point x="1163" y="-175" type="line"/>
      <point x="1163" y="1117" type="line" smooth="yes"/>
      <point x="1163" y="1231"/>
      <point x="999" y="1395"/>
      <point x="885" y="1395" type="qcurve" smooth="yes"/>
      <point x="770" y="1395"/>
      <point x="605" y="1234"/>
      <point x="605" y="1121" type="qcurve" smooth="yes"/>
      <point x="605" y="1078"/>
      <point x="629" y="1001"/>
      <point x="641" y="987" type="qcurve"/>
      <point x="427" y="813" type="line"/>
      <point x="380" y="871"/>
      <point x="330" y="1044"/>
      <point x="330" y="1117" type="qcurve" smooth="yes"/>
      <point x="330" y="1345"/>
      <point x="657" y="1670"/>
      <point x="885" y="1670" type="qcurve" smooth="yes"/>
      <point x="1010" y="1670"/>
      <point x="1223" y="1568"/>
      <point x="1301" y="1481" type="qcurve"/>
      <point x="1378" y="1568"/>
      <point x="1593" y="1670"/>
      <point x="1718" y="1670" type="qcurve" smooth="yes"/>
      <point x="1954" y="1670"/>
      <point x="2271" y="1358"/>
      <point x="2271" y="1117" type="qcurve" smooth="yes"/>
      <point x="2271" y="1050"/>
      <point x="2221" y="871"/>
    </contour>
  </outline>
</glyph>
<glyph name="uni2649" format="2">
  <advance width="2600"/>
  <unicode hex="2649"/>
  <outline>
    <contour>
      <point x="1739" y="1067" type="qcurve"/>
      <point x="1875" y="966"/>
      <point x="2035" y="656"/>
      <point x="2035" y="479" type="qcurve" smooth="yes"/>
      <point x="2035" y="281"/>
      <point x="1831" y="-64"/>
      <point x="1490" y="-255"/>
      <point x="1300" y="-255" type="qcurve" smooth="yes"/>
      <point x="1109" y="-255"/>
      <point x="769" y="-65"/>
      <point x="564" y="280"/>
      <point x="564" y="479" type="qcurve" smooth="yes"/>
      <point x="564" y="656"/>
      <point x="724" y="966"/>
      <point x="860" y="1067" type="qcurve"/>
      <point x="724" y="1169"/>
      <point x="564" y="1479"/>
      <point x="564" y="1655" type="qcurve"/>
      <point x="860" y="1655" type="line"/>
      <point x="860" y="1472"/>
      <point x="1120" y="1215"/>
      <point x="1300" y="1215" type="qcurve" smooth="yes"/>
      <point x="1480" y="1215"/>
      <point x="1740" y="1472"/>
      <point x="1740" y="1655" type="qcurve"/>
      <point x="2035" y="1655" type="line"/>
      <point x="2035" y="1479"/>
      <point x="1875" y="1169"/>
    </contour>
    <contour>
      <point x="1300" y="921" type="qcurve" smooth="yes"/>
      <point x="1121" y="921"/>
      <point x="860" y="661"/>
      <point x="860" y="479" type="qcurve" smooth="yes"/>
      <point x="860" y="298"/>
      <point x="1120" y="40"/>
      <point x="1300" y="40" type="qcurve" smooth="yes"/>
      <point x="1480" y="40"/>
      <point x="1740" y="298"/>
      <point x="1740" y="479" type="qcurve" smooth="yes"/>
      <point x="1740" y="661"/>
      <point x="1479" y="921"/>
    </contour>
  </outline>
</glyph>
<glyph name="uni264A" format="2">
  <advance width="2600"/>
  <unicode hex="264A"/>
  <outline>
    <contour>
      <point x="2119" y="1351" type="line"/>
      <point x="2063" y="1337"/>
      <point x="1915" y="1308"/>
      <point x="1825" y="1294" type="qcurve"/>
      <point x="1825" y="182" type="line"/>
      <point x="1915" y="168"/>
      <point x="2063" y="140"/>
      <point x="2119" y="126" type="qcurve"/>
      <point x="2119" y="-178" type="line"/>
      <point x="1961" y="-135"/>
      <point x="1519" y="-74"/>
      <point x="1300" y="-74" type="qcurve" smooth="yes"/>
      <point x="1081" y="-74"/>
      <point x="638" y="-135"/>
      <point x="480" y="-178" type="qcurve"/>
      <point x="480" y="126" type="line"/>
      <point x="537" y="140"/>
      <point x="684" y="168"/>
      <point x="774" y="182" type="qcurve"/>
      <point x="774" y="1294" type="line"/>
      <point x="684" y="1308"/>
      <point x="537" y="1337"/>
      <point x="480" y="1351" type="qcurve"/>
      <point x="480" y="1653" type="line"/>
      <point x="679" y="1603"/>
      <point x="1102" y="1551"/>
      <point x="1300" y="1551" type="qcurve" smooth="yes"/>
      <point x="1498" y="1551"/>
      <point x="1920" y="1603"/>
      <point x="2119" y="1653" type="qcurve"/>
    </contour>
    <contour>
      <point x="1530" y="1264" type="line"/>
      <point x="1476" y="1260"/>
      <point x="1360" y="1256"/>
      <point x="1300" y="1256" type="qcurve" smooth="yes"/>
      <point x="1239" y="1256"/>
      <point x="1125" y="1260"/>
      <point x="1069" y="1264" type="qcurve"/>
      <point x="1069" y="212" type="line"/>
      <point x="1125" y="217"/>
      <point x="1239" y="220"/>
      <point x="1300" y="220" type="qcurve" smooth="yes"/>
      <point x="1360" y="220"/>
      <point x="1476" y="217"/>
      <point x="1530" y="212" type="qcurve"/>
    </contour>
  </outline>
</glyph>
<glyph name="uni264B" format="2">
  <advance width="2600"/>
  <unicode hex="264B"/>
  <outline>
    <contour>
      <point x="452" y="90" type="qcurve"/>
      <point x="582" y="354" type="line"/>
      <point x="754" y="279"/>
      <point x="1121" y="195"/>
      <point x="1300" y="195" type="qcurve" smooth="yes"/>
      <point x="1369" y="195"/>
      <point x="1507" y="215"/>
      <point x="1574" y="232" type="qcurve"/>
      <point x="1481" y="294"/>
      <point x="1369" y="499"/>
      <point x="1369" y="616" type="qcurve" smooth="yes"/>
      <point x="1369" y="806"/>
      <point x="1642" y="1078"/>
      <point x="1830" y="1078" type="qcurve" smooth="yes"/>
      <point x="2020" y="1078"/>
      <point x="2292" y="806"/>
      <point x="2292" y="616" type="qcurve" smooth="yes"/>
      <point x="2292" y="416"/>
      <point x="2032" y="91"/>
      <point x="1561" y="-99"/>
      <point x="1300" y="-99" type="qcurve" smooth="yes"/>
      <point x="1093" y="-99"/>
      <point x="675" y="-9"/>
    </contour>
    <contour>
      <point x="1830" y="449" type="qcurve" smooth="yes"/>
      <point x="1900" y="449"/>
      <point x="1998" y="549"/>
      <point x="1998" y="616" type="qcurve" smooth="yes"/>
      <point x="1998" y="682"/>
      <point x="1900" y="783"/>
      <point x="1830" y="783" type="qcurve" smooth="yes"/>
      <point x="1760" y="783"/>
      <point x="1663" y="682"/>
      <point x="1663" y="616" type="qcurve" smooth="yes"/>
      <point x="1663" y="549"/>
      <point x="1761" y="449"/>
    </contour>
    <contour>
      <point x="1300" y="1643" type="qcurve" smooth="yes"/>
      <point x="1511" y="1643"/>
      <point x="1954" y="1543"/>
      <point x="2148" y="1454" type="qcurve"/>
      <point x="2017" y="1190" type="line"/>
      <point x="1779" y="1288"/>
      <point x="1451" y="1349"/>
      <point x="1300" y="1349" type="qcurve" smooth="yes"/>
      <point x="1230" y="1349"/>
      <point x="1092" y="1329"/>
      <point x="1026" y="1312" type="qcurve"/>
      <point x="1121" y="1248"/>
      <point x="1230" y="1044"/>
      <point x="1230" y="928" type="qcurve" smooth="yes"/>
      <point x="1230" y="738"/>
      <point x="958" y="466"/>
      <point x="770" y="466" type="qcurve" smooth="yes"/>
      <point x="581" y="466"/>
      <point x="307" y="738"/>
      <point x="307" y="928" type="qcurve" smooth="yes"/>
      <point x="307" y="1133"/>
      <point x="580" y="1460"/>
      <point x="1045" y="1643"/>
    </contour>
    <contour>
      <point x="770" y="1095" type="qcurve" smooth="yes"/>
      <point x="700" y="1095"/>
      <point x="603" y="998"/>
      <point x="603" y="928" type="qcurve" smooth="yes"/>
      <point x="603" y="860"/>
      <point x="700" y="761"/>
      <point x="770" y="761" type="qcurve" smooth="yes"/>
      <point x="839" y="761"/>
      <point x="936" y="860"/>
      <point x="936" y="928" type="qcurve" smooth="yes"/>
      <point x="936" y="998"/>
      <point x="838" y="1095"/>
    </contour>
  </outline>
</glyph>
<glyph name="uni264C" format="2">
  <advance width="2600"/>
  <unicode hex="264C"/>
  <outline>
    <contour>
      <point x="2229" y="-233" type="line"/>
      <point x="2116" y="-308"/>
      <point x="1980" y="-308" type="qcurve" smooth="yes"/>
      <point x="1784" y="-308"/>
      <point x="1529" y="-17"/>
      <point x="1529" y="207" type="qcurve" smooth="yes"/>
      <point x="1529" y="330"/>
      <point x="1581" y="617"/>
      <point x="1721" y="981"/>
      <point x="1721" y="1133" type="qcurve" smooth="yes"/>
      <point x="1721" y="1286"/>
      <point x="1543" y="1455"/>
      <point x="1399" y="1455" type="qcurve" smooth="yes"/>
      <point x="1267" y="1455"/>
      <point x="1077" y="1265"/>
      <point x="1077" y="1133" type="qcurve" smooth="yes"/>
      <point x="1078" y="1104" type="line" smooth="yes"/>
      <point x="1080" y="1061"/>
      <point x="1119" y="918"/>
      <point x="1207" y="765"/>
      <point x="1265" y="569"/>
      <point x="1265" y="465" type="qcurve" smooth="yes"/>
      <point x="1265" y="280"/>
      <point x="1002" y="17"/>
      <point x="818" y="17" type="qcurve" smooth="yes"/>
      <point x="632" y="17"/>
      <point x="370" y="283"/>
      <point x="370" y="465" type="qcurve" smooth="yes"/>
      <point x="370" y="648"/>
      <point x="634" y="911"/>
      <point x="815" y="911" type="qcurve"/>
      <point x="799" y="969"/>
      <point x="783" y="1073"/>
      <point x="783" y="1111" type="qcurve" smooth="yes"/>
      <point x="782" y="1135" type="line" smooth="yes"/>
      <point x="782" y="1388"/>
      <point x="1146" y="1750"/>
      <point x="1399" y="1750" type="qcurve" smooth="yes"/>
      <point x="1669" y="1750"/>
      <point x="2015" y="1405"/>
      <point x="2015" y="1133" type="qcurve" smooth="yes"/>
      <point x="2015" y="917"/>
      <point x="1824" y="435"/>
      <point x="1824" y="213" type="qcurve" smooth="yes"/>
      <point x="1824" y="113"/>
      <point x="1904" y="-13"/>
      <point x="1980" y="-13" type="qcurve" smooth="yes"/>
      <point x="2026" y="-13"/>
      <point x="2065" y="11" type="qcurve"/>
    </contour>
    <contour>
      <point x="818" y="617" type="qcurve" smooth="yes"/>
      <point x="754" y="617"/>
      <point x="665" y="526"/>
      <point x="665" y="465" type="qcurve" smooth="yes"/>
      <point x="665" y="402"/>
      <point x="754" y="311"/>
      <point x="818" y="311" type="qcurve" smooth="yes"/>
      <point x="881" y="311"/>
      <point x="970" y="402"/>
      <point x="970" y="465" type="qcurve" smooth="yes"/>
      <point x="970" y="526"/>
      <point x="881" y="617"/>
    </contour>
  </outline>
</glyph>
<glyph name="uni264D" format="2">
  <advance width="2600"/>
  <unicode hex="264D"/>
  <outline>
    <contour>
      <point x="1784" y="100" type="qcurve"/>
      <point x="1820" y="77"/>
      <point x="1939" y="49"/>
      <point x="2026" y="49" type="qcurve"/>
      <point x="2026" y="-245" type="line"/>
      <point x="1880" y="-245"/>
      <point x="1674" y="-186"/>
      <point x="1556" y="-98"/>
      <point x="1542" y="-79" type="qcurve"/>
      <point x="1532" y="-67" type="line"/>
      <point x="1337" y="-174"/>
      <point x="1089" y="-256" type="qcurve"/>
      <point x="997" y="23" type="line"/>
      <point x="1125" y="66"/>
      <point x="1332" y="157"/>
      <point x="1418" y="206" type="qcurve"/>
      <point x="1410" y="257"/>
      <point x="1408" y="358"/>
      <point x="1408" y="401" type="qcurve" smooth="yes"/>
      <point x="1408" y="1356" type="line" smooth="yes"/>
      <point x="1408" y="1402"/>
      <point x="1343" y="1465"/>
      <point x="1300" y="1465" type="qcurve" smooth="yes"/>
      <point x="1255" y="1465"/>
      <point x="1190" y="1402"/>
      <point x="1190" y="1356" type="qcurve" smooth="yes"/>
      <point x="1190" y="501" type="line"/>
      <point x="896" y="501" type="line"/>
      <point x="896" y="1356" type="line" smooth="yes"/>
      <point x="896" y="1402"/>
      <point x="831" y="1465"/>
      <point x="788" y="1465" type="qcurve" smooth="yes"/>
      <point x="742" y="1465"/>
      <point x="679" y="1402"/>
      <point x="679" y="1356" type="qcurve" smooth="yes"/>
      <point x="679" y="501" type="line"/>
      <point x="385" y="501" type="line"/>
      <point x="385" y="1356" type="line" smooth="yes"/>
      <point x="385" y="1522"/>
      <point x="623" y="1759"/>
      <point x="788" y="1759" type="qcurve" smooth="yes"/>
      <point x="861" y="1759"/>
      <point x="991" y="1711"/>
      <point x="1044" y="1667" type="qcurve"/>
      <point x="1097" y="1711"/>
      <point x="1227" y="1759"/>
      <point x="1300" y="1759" type="qcurve" smooth="yes"/>
      <point x="1453" y="1759"/>
      <point x="1685" y="1551"/>
      <point x="1701" y="1396" type="qcurve"/>
      <point x="1753" y="1411"/>
      <point x="1812" y="1411" type="qcurve" smooth="yes"/>
      <point x="1995" y="1411"/>
      <point x="2215" y="1189"/>
      <point x="2215" y="1008" type="qcurve" smooth="yes"/>
      <point x="2215" y="727"/>
      <point x="2001" y="275"/>
    </contour>
    <contour>
      <point x="1703" y="1012" type="qcurve" smooth="yes"/>
      <point x="1703" y="423" type="line"/>
      <point x="1811" y="537"/>
      <point x="1921" y="823"/>
      <point x="1921" y="1008" type="qcurve" smooth="yes"/>
      <point x="1921" y="1055"/>
      <point x="1856" y="1117"/>
      <point x="1812" y="1117" type="qcurve" smooth="yes"/>
      <point x="1767" y="1117"/>
      <point x="1703" y="1057"/>
    </contour>
  </outline>
</glyph>
<glyph name="uni264E" format="2">
  <advance width="2600"/>
  <unicode hex="264E"/>
  <outline>
    <contour>
      <point x="2133" y="553" type="line"/>
      <point x="2133" y="258" type="line"/>
      <point x="1441" y="258" type="line"/>
      <point x="1441" y="564" type="line"/>
      <point x="1570" y="608"/>
      <point x="1737" y="838"/>
      <point x="1737" y="978" type="qcurve" smooth="yes"/>
      <point x="1737" y="1158"/>
      <point x="1480" y="1415"/>
      <point x="1300" y="1415" type="qcurve" smooth="yes"/>
      <point x="1120" y="1415"/>
      <point x="863" y="1158"/>
      <point x="863" y="978" type="qcurve" smooth="yes"/>
      <point x="863" y="836"/>
      <point x="1030" y="607"/>
      <point x="1158" y="564" type="qcurve"/>
      <point x="1158" y="258" type="line"/>
      <point x="466" y="258" type="line"/>
      <point x="466" y="553" type="line"/>
      <point x="704" y="553" type="line"/>
      <point x="639" y="645"/>
      <point x="569" y="860"/>
      <point x="569" y="978" type="qcurve" smooth="yes"/>
      <point x="569" y="1173"/>
      <point x="763" y="1510"/>
      <point x="1101" y="1709"/>
      <point x="1300" y="1709" type="qcurve" smooth="yes"/>
      <point x="1600" y="1709"/>
      <point x="2032" y="1277"/>
      <point x="2032" y="978" type="qcurve" smooth="yes"/>
      <point x="2032" y="860"/>
      <point x="1960" y="645"/>
      <point x="1895" y="553" type="qcurve"/>
    </contour>
    <contour>
      <point x="2133" y="136" type="line"/>
      <point x="2133" y="-158" type="line"/>
      <point x="466" y="-158" type="line"/>
      <point x="466" y="136" type="line"/>
    </contour>
  </outline>
</glyph>
<glyph name="uni264F" format="2">
  <advance width="2600"/>
  <unicode hex="264F"/>
  <outline>
    <contour>
      <point x="1888" y="-281" type="line"/>
      <point x="1888" y="-4" type="line"/>
      <point x="1778" y="-4" type="line" smooth="yes"/>
      <point x="1609" y="-4"/>
      <point x="1363" y="241"/>
      <point x="1363" y="412" type="qcurve" smooth="yes"/>
      <point x="1363" y="1251" type="line" smooth="yes"/>
      <point x="1363" y="1302"/>
      <point x="1292" y="1373"/>
      <point x="1241" y="1373" type="qcurve" smooth="yes"/>
      <point x="1190" y="1373"/>
      <point x="1119" y="1302"/>
      <point x="1119" y="1251" type="qcurve" smooth="yes"/>
      <point x="1119" y="355" type="line"/>
      <point x="825" y="355" type="line"/>
      <point x="825" y="1251" type="line" smooth="yes"/>
      <point x="825" y="1301"/>
      <point x="754" y="1373"/>
      <point x="704" y="1373" type="qcurve" smooth="yes"/>
      <point x="653" y="1373"/>
      <point x="582" y="1301"/>
      <point x="582" y="1251" type="qcurve" smooth="yes"/>
      <point x="582" y="355" type="line"/>
      <point x="288" y="355" type="line"/>
      <point x="288" y="1251" type="line" smooth="yes"/>
      <point x="288" y="1423"/>
      <point x="532" y="1667"/>
      <point x="704" y="1667" type="qcurve" smooth="yes"/>
      <point x="780" y="1667"/>
      <point x="918" y="1615"/>
      <point x="973" y="1568" type="qcurve"/>
      <point x="1027" y="1615"/>
      <point x="1163" y="1667"/>
      <point x="1241" y="1667" type="qcurve" smooth="yes"/>
      <point x="1413" y="1667"/>
      <point x="1658" y="1421"/>
      <point x="1658" y="1251" type="qcurve" smooth="yes"/>
      <point x="1658" y="412" type="line" smooth="yes"/>
      <point x="1658" y="362"/>
      <point x="1729" y="290"/>
      <point x="1778" y="290" type="qcurve" smooth="yes"/>
      <point x="1888" y="290" type="line"/>
      <point x="1888" y="568" type="line"/>
      <point x="2312" y="144" type="line"/>
    </contour>
  </outline>
</glyph>
<glyph name="uni2650" format="2">
  <advance width="2600"/>
  <unicode hex="2650"/>
  <outline>
    <contour>
      <point x="2117" y="1549" type="line"/>
      <point x="2117" y="457" type="line"/>
      <point x="1841" y="457" type="line"/>
      <point x="1841" y="1079" type="line"/>
      <point x="1219" y="457" type="line"/>
      <point x="1478" y="198" type="line"/>
      <point x="1284" y="3" type="line"/>
      <point x="1025" y="263" type="line"/>
      <point x="678" y="-85" type="line"/>
      <point x="483" y="110" type="line"/>
      <point x="830" y="457" type="line"/>
      <point x="571" y="717" type="line"/>
      <point x="766" y="910" type="line"/>
      <point x="1025" y="651" type="line"/>
      <point x="1647" y="1273" type="line"/>
      <point x="1025" y="1273" type="line"/>
      <point x="1025" y="1549" type="line"/>
    </contour>
  </outline>
</glyph>
<glyph name="uni2651" format="2">
  <advance width="2600"/>
  <unicode hex="2651"/>
  <outline>
    <contour>
      <point x="1763" y="-49" type="qcurve" smooth="yes"/>
      <point x="1688" y="-49"/>
      <point x="1554" y="-7"/>
      <point x="1496" y="30" type="qcurve"/>
      <point x="1436" y="-91"/>
      <point x="1197" y="-237"/>
      <point x="1059" y="-237" type="qcurve"/>
      <point x="1059" y="39" type="line"/>
      <point x="1147" y="39"/>
      <point x="1275" y="167"/>
      <point x="1275" y="255" type="qcurve" smooth="yes"/>
      <point x="1275" y="1158" type="line" smooth="yes"/>
      <point x="1275" y="1246"/>
      <point x="1147" y="1374"/>
      <point x="1059" y="1374" type="qcurve" smooth="yes"/>
      <point x="970" y="1374"/>
      <point x="842" y="1247"/>
      <point x="842" y="1158" type="qcurve" smooth="yes"/>
      <point x="842" y="437" type="line"/>
      <point x="567" y="437" type="line"/>
      <point x="567" y="1158" type="line" smooth="yes"/>
      <point x="567" y="1246"/>
      <point x="439" y="1374"/>
      <point x="351" y="1374" type="qcurve"/>
      <point x="351" y="1650" type="line"/>
      <point x="455" y="1650"/>
      <point x="637" y="1568"/>
      <point x="704" y="1498" type="qcurve"/>
      <point x="772" y="1568"/>
      <point x="953" y="1650"/>
      <point x="1059" y="1650" type="qcurve" smooth="yes"/>
      <point x="1261" y="1650"/>
      <point x="1551" y="1360"/>
      <point x="1551" y="1158" type="qcurve" smooth="yes"/>
      <point x="1551" y="876" type="line"/>
      <point x="1599" y="899"/>
      <point x="1705" y="924"/>
      <point x="1763" y="924" type="qcurve" smooth="yes"/>
      <point x="1963" y="924"/>
      <point x="2249" y="637"/>
      <point x="2249" y="437" type="qcurve" smooth="yes"/>
      <point x="2249" y="238"/>
      <point x="1962" y="-49"/>
    </contour>
    <contour>
      <point x="1763" y="650" type="qcurve" smooth="yes"/>
      <point x="1674" y="650"/>
      <point x="1551" y="525"/>
      <point x="1551" y="437" type="qcurve" smooth="yes"/>
      <point x="1551" y="351"/>
      <point x="1674" y="226"/>
      <point x="1763" y="226" type="qcurve" smooth="yes"/>
      <point x="1851" y="226"/>
      <point x="1974" y="351"/>
      <point x="1974" y="437" type="qcurve" smooth="yes"/>
      <point x="1974" y="524"/>
      <point x="1851" y="650"/>
    </contour>
  </outline>
</glyph>
<glyph name="uni2652" format="2">
  <advance width="2600"/>
  <unicode hex="2652"/>
  <outline>
    <contour>
      <point x="1948" y="650" type="line"/>
      <point x="2200" y="477" type="line"/>
      <point x="2200" y="157" type="line"/>
      <point x="2193" y="147" type="line"/>
      <point x="1948" y="316" type="line"/>
      <point x="1625" y="94" type="line"/>
      <point x="1303" y="316" type="line"/>
      <point x="979" y="94" type="line"/>
      <point x="656" y="316" type="line"/>
      <point x="411" y="147" type="line"/>
      <point x="400" y="164" type="line"/>
      <point x="400" y="473" type="line"/>
      <point x="656" y="650" type="line"/>
      <point x="979" y="427" type="line"/>
      <point x="1303" y="650" type="line"/>
      <point x="1625" y="427" type="line"/>
    </contour>
    <contour>
      <point x="2200" y="1204" type="line"/>
      <point x="2200" y="883" type="line"/>
      <point x="2193" y="873" type="line"/>
      <point x="1948" y="1043" type="line"/>
      <point x="1625" y="820" type="line"/>
      <point x="1303" y="1043" type="line"/>
      <point x="979" y="820" type="line"/>
      <point x="656" y="1043" type="line"/>
      <point x="411" y="873" type="line"/>
      <point x="400" y="890" type="line"/>
      <point x="400" y="1201" type="line"/>
      <point x="656" y="1376" type="line"/>
      <point x="979" y="1154" type="line"/>
      <point x="1303" y="1376" type="line"/>
      <point x="1625" y="1154" type="line"/>
      <point x="1948" y="1376" type="line"/>
    </contour>
  </outline>
</glyph>
<glyph name="uni2653" format="2">
  <advance width="2600"/>
  <unicode hex="2653"/>
  <outline>
    <contour>
      <point x="2166" y="602" type="line"/>
      <point x="1830" y="602" type="line"/>
      <point x="1846" y="403"/>
      <point x="1957" y="-2"/>
      <point x="2040" y="-173" type="qcurve"/>
      <point x="1716" y="-173" type="line"/>
      <point x="1642" y="8"/>
      <point x="1546" y="411"/>
      <point x="1534" y="602" type="qcurve"/>
      <point x="1051" y="602" type="line"/>
      <point x="1038" y="404"/>
      <point x="942" y="2"/>
      <point x="868" y="-173" type="qcurve"/>
      <point x="546" y="-173" type="line"/>
      <point x="624" y="-13"/>
      <point x="739" y="397"/>
      <point x="755" y="602" type="qcurve"/>
      <point x="434" y="602" type="line"/>
      <point x="434" y="897" type="line"/>
      <point x="755" y="897" type="line"/>
      <point x="739" y="1095"/>
      <point x="628" y="1499"/>
      <point x="546" y="1672" type="qcurve"/>
      <point x="868" y="1672" type="line"/>
      <point x="946" y="1484"/>
      <point x="1038" y="1089"/>
      <point x="1051" y="897" type="qcurve"/>
      <point x="1534" y="897" type="line"/>
      <point x="1546" y="1082"/>
      <point x="1638" y="1476"/>
      <point x="1716" y="1672" type="qcurve"/>
      <point x="2040" y="1672" type="line"/>
      <point x="1952" y="1487"/>
      <point x="1845" y="1089"/>
      <point x="1830" y="897" type="qcurve"/>
      <point x="2166" y="897" type="line"/>
    </contour>
  </outline>
</glyph>
<glyph name="spade" format="2">
  <advance width="2600"/>
  <unicode hex="2660"/>
  <outline>
    <contour>
      <point x="1319" y="1683" type="line"/>
      <point x="1367" y="1655" type="line" smooth="yes"/>
      <point x="1567" y="1535"/>
      <point x="1973" y="1171"/>
      <point x="2195" y="785"/>
      <point x="2195" y="601" type="qcurve" smooth="yes"/>
      <point x="2195" y="410"/>
      <point x="1919" y="134"/>
      <point x="1728" y="134" type="qcurve" smooth="yes"/>
      <point x="1641" y="134"/>
      <point x="1487" y="192"/>
      <point x="1425" y="245" type="qcurve"/>
      <point x="1450" y="92"/>
      <point x="1548" y="-167"/>
      <point x="1558" y="-177" type="qcurve"/>
      <point x="1560" y="-182"/>
      <point x="1563" y="-193"/>
      <point x="1563" y="-198" type="qcurve" smooth="yes"/>
      <point x="1563" y="-213"/>
      <point x="1540" y="-236"/>
      <point x="1523" y="-236" type="qcurve" smooth="yes"/>
      <point x="1076" y="-236" type="line" smooth="yes"/>
      <point x="1060" y="-236"/>
      <point x="1036" y="-213"/>
      <point x="1036" y="-198" type="qcurve" smooth="yes"/>
      <point x="1036" y="-183"/>
      <point x="1066" y="-132"/>
      <point x="1148" y="96"/>
      <point x="1174" y="245" type="qcurve"/>
      <point x="1112" y="192"/>
      <point x="958" y="134"/>
      <point x="873" y="134" type="qcurve" smooth="yes"/>
      <point x="680" y="134"/>
      <point x="404" y="410"/>
      <point x="404" y="601" type="qcurve" smooth="yes"/>
      <point x="404" y="791"/>
      <point x="638" y="1184"/>
      <point x="1041" y="1540"/>
      <point x="1233" y="1655" type="qcurve" smooth="yes"/>
      <point x="1281" y="1683" type="line"/>
      <point x="1290" y="1687" type="line" smooth="yes"/>
      <point x="1294" y="1689"/>
      <point x="1299" y="1689" type="qcurve" smooth="yes"/>
      <point x="1304" y="1689"/>
      <point x="1309" y="1687" type="qcurve" smooth="yes"/>
    </contour>
  </outline>
</glyph>
<glyph name="club" format="2">
  <advance width="2600"/>
  <unicode hex="2663"/>
  <outline>
    <contour>
      <point x="1786" y="80" type="qcurve" smooth="yes"/>
      <point x="1682" y="80"/>
      <point x="1501" y="165"/>
      <point x="1437" y="237" type="qcurve"/>
      <point x="1458" y="134"/>
      <point x="1516" y="-35"/>
      <point x="1543" y="-91" type="qcurve" smooth="yes"/>
      <point x="1558" y="-123" type="line" smooth="yes"/>
      <point x="1560" y="-127"/>
      <point x="1563" y="-137"/>
      <point x="1563" y="-142" type="qcurve" smooth="yes"/>
      <point x="1563" y="-159"/>
      <point x="1540" y="-180"/>
      <point x="1523" y="-180" type="qcurve" smooth="yes"/>
      <point x="1075" y="-180" type="line" smooth="yes"/>
      <point x="1061" y="-180"/>
      <point x="1036" y="-159"/>
      <point x="1036" y="-142" type="qcurve" smooth="yes"/>
      <point x="1036" y="-129"/>
      <point x="1072" y="-63"/>
      <point x="1137" y="119"/>
      <point x="1163" y="237" type="qcurve"/>
      <point x="1098" y="165"/>
      <point x="918" y="80"/>
      <point x="812" y="80" type="qcurve" smooth="yes"/>
      <point x="620" y="80"/>
      <point x="345" y="356"/>
      <point x="345" y="548" type="qcurve" smooth="yes"/>
      <point x="345" y="740"/>
      <point x="622" y="1016"/>
      <point x="812" y="1016" type="qcurve" smooth="yes"/>
      <point x="846" y="1016"/>
      <point x="878" y="1010" type="qcurve"/>
      <point x="856" y="1057"/>
      <point x="831" y="1158"/>
      <point x="831" y="1213" type="qcurve" smooth="yes"/>
      <point x="831" y="1404"/>
      <point x="1107" y="1681"/>
      <point x="1300" y="1681" type="qcurve" smooth="yes"/>
      <point x="1491" y="1681"/>
      <point x="1767" y="1406"/>
      <point x="1767" y="1213" type="qcurve" smooth="yes"/>
      <point x="1767" y="1105"/>
      <point x="1721" y="1010" type="qcurve"/>
      <point x="1754" y="1016"/>
      <point x="1786" y="1016" type="qcurve" smooth="yes"/>
      <point x="1978" y="1016"/>
      <point x="2255" y="740"/>
      <point x="2255" y="548" type="qcurve" smooth="yes"/>
      <point x="2255" y="356"/>
      <point x="1980" y="80"/>
    </contour>
  </outline>
</glyph>
<glyph name="heart" format="2">
  <advance width="2600"/>
  <unicode hex="2665"/>
  <outline>
    <contour>
      <point x="1366" y="9" type="qcurve" smooth="yes"/>
      <point x="1319" y="-19" type="line"/>
      <point x="1311" y="-25"/>
      <point x="1300" y="-25" type="qcurve" smooth="yes"/>
      <point x="1288" y="-25"/>
      <point x="1281" y="-19" type="qcurve"/>
      <point x="1234" y="9" type="line" smooth="yes"/>
      <point x="1033" y="128"/>
      <point x="631" y="494"/>
      <point x="423" y="865"/>
      <point x="423" y="1040" type="qcurve" smooth="yes"/>
      <point x="423" y="1227"/>
      <point x="693" y="1498"/>
      <point x="882" y="1498" type="qcurve" smooth="yes"/>
      <point x="1016" y="1498"/>
      <point x="1246" y="1349"/>
      <point x="1300" y="1228" type="qcurve"/>
      <point x="1356" y="1352"/>
      <point x="1585" y="1498"/>
      <point x="1718" y="1498" type="qcurve" smooth="yes"/>
      <point x="1908" y="1498"/>
      <point x="2176" y="1227"/>
      <point x="2176" y="1040" type="qcurve" smooth="yes"/>
      <point x="2176" y="867"/>
      <point x="1973" y="500"/>
      <point x="1577" y="136"/>
    </contour>
  </outline>
</glyph>
<glyph name="diamond" format="2">
  <advance width="2600"/>
  <unicode hex="2666"/>
  <outline>
    <contour>
      <point x="2093" y="763" type="line" smooth="yes"/>
      <point x="2101" y="752"/>
      <point x="2101" y="738" type="qcurve" smooth="yes"/>
      <point x="2101" y="732"/>
      <point x="2098" y="719"/>
      <point x="2093" y="714" type="qcurve"/>
      <point x="1330" y="-262" type="line" smooth="yes"/>
      <point x="1319" y="-277"/>
      <point x="1300" y="-277" type="qcurve" smooth="yes"/>
      <point x="1281" y="-277"/>
      <point x="1268" y="-262" type="qcurve"/>
      <point x="507" y="714" type="line"/>
      <point x="502" y="719"/>
      <point x="499" y="732"/>
      <point x="499" y="738" type="qcurve" smooth="yes"/>
      <point x="499" y="752"/>
      <point x="507" y="763" type="qcurve" smooth="yes"/>
      <point x="1268" y="1738" type="line"/>
      <point x="1273" y="1746"/>
      <point x="1291" y="1752"/>
      <point x="1300" y="1752" type="qcurve" smooth="yes"/>
      <point x="1308" y="1752"/>
      <point x="1325" y="1746"/>
      <point x="1330" y="1738" type="qcurve"/>
    </contour>
  </outline>
</glyph>
<glyph name="uni2668" format="2">
  <advance width="2600"/>
  <unicode hex="2668"/>
  <outline>
    <contour>
      <point x="831" y="346" type="line" smooth="yes"/>
      <point x="843" y="371"/>
      <point x="862" y="470"/>
      <point x="862" y="538" type="qcurve" smooth="yes"/>
      <point x="862" y="687"/>
      <point x="763" y="1008"/>
      <point x="763" y="1129" type="qcurve" smooth="yes"/>
      <point x="763" y="1260"/>
      <point x="869" y="1458"/>
      <point x="1035" y="1566"/>
      <point x="1059" y="1566" type="qcurve" smooth="yes"/>
      <point x="1067" y="1566"/>
      <point x="1080" y="1557"/>
      <point x="1080" y="1547" type="qcurve" smooth="yes"/>
      <point x="1080" y="1533"/>
      <point x="1069" y="1528" type="qcurve"/>
      <point x="1058" y="1528"/>
      <point x="1004" y="1421"/>
      <point x="1004" y="1309" type="qcurve" smooth="yes"/>
      <point x="1004" y="1172"/>
      <point x="1088" y="842"/>
      <point x="1088" y="734" type="qcurve" smooth="yes"/>
      <point x="1088" y="579"/>
      <point x="959" y="352"/>
      <point x="847" y="298" type="qcurve"/>
      <point x="845" y="298"/>
      <point x="840" y="296"/>
      <point x="838" y="296" type="qcurve" smooth="yes"/>
      <point x="830" y="296"/>
      <point x="818" y="308"/>
      <point x="818" y="316" type="qcurve" smooth="yes"/>
      <point x="818" y="324"/>
      <point x="822" y="329" type="qcurve"/>
    </contour>
    <contour>
      <point x="1143" y="1128" type="qcurve" smooth="yes"/>
      <point x="1143" y="1258"/>
      <point x="1248" y="1458"/>
      <point x="1413" y="1566"/>
      <point x="1439" y="1566" type="qcurve" smooth="yes"/>
      <point x="1448" y="1566"/>
      <point x="1459" y="1554"/>
      <point x="1459" y="1546" type="qcurve" smooth="yes"/>
      <point x="1459" y="1533"/>
      <point x="1422" y="1508"/>
      <point x="1382" y="1403"/>
      <point x="1382" y="1308" type="qcurve" smooth="yes"/>
      <point x="1382" y="1170"/>
      <point x="1466" y="843"/>
      <point x="1466" y="732" type="qcurve" smooth="yes"/>
      <point x="1466" y="605"/>
      <point x="1378" y="404"/>
      <point x="1239" y="296"/>
      <point x="1218" y="296" type="qcurve" smooth="yes"/>
      <point x="1209" y="296"/>
      <point x="1196" y="309"/>
      <point x="1196" y="318" type="qcurve" smooth="yes"/>
      <point x="1196" y="324"/>
      <point x="1215" y="353"/>
      <point x="1241" y="459"/>
      <point x="1241" y="538" type="qcurve" smooth="yes"/>
      <point x="1241" y="687"/>
      <point x="1143" y="1005"/>
    </contour>
    <contour>
      <point x="1580" y="329" type="qcurve"/>
      <point x="1596" y="361"/>
      <point x="1621" y="465"/>
      <point x="1621" y="536" type="qcurve" smooth="yes"/>
      <point x="1621" y="683"/>
      <point x="1521" y="1003"/>
      <point x="1521" y="1129" type="qcurve" smooth="yes"/>
      <point x="1521" y="1259"/>
      <point x="1626" y="1457"/>
      <point x="1792" y="1566"/>
      <point x="1817" y="1566" type="qcurve" smooth="yes"/>
      <point x="1826" y="1566"/>
      <point x="1839" y="1555"/>
      <point x="1839" y="1546" type="qcurve" smooth="yes"/>
      <point x="1839" y="1535"/>
      <point x="1803" y="1511"/>
      <point x="1762" y="1406"/>
      <point x="1762" y="1309" type="qcurve" smooth="yes"/>
      <point x="1762" y="1172"/>
      <point x="1845" y="847"/>
      <point x="1845" y="734" type="qcurve" smooth="yes"/>
      <point x="1845" y="603"/>
      <point x="1754" y="404"/>
      <point x="1618" y="298"/>
      <point x="1604" y="298" type="qcurve" smooth="yes"/>
      <point x="1602" y="298"/>
      <point x="1598" y="296"/>
      <point x="1596" y="296" type="qcurve" smooth="yes"/>
      <point x="1589" y="296"/>
      <point x="1576" y="308"/>
      <point x="1576" y="316" type="qcurve" smooth="yes"/>
      <point x="1576" y="324"/>
    </contour>
    <contour>
      <point x="1300" y="-162" type="qcurve" smooth="yes"/>
      <point x="1049" y="-162"/>
      <point x="619" y="-9"/>
      <point x="371" y="252"/>
      <point x="371" y="402" type="qcurve" smooth="yes"/>
      <point x="371" y="481"/>
      <point x="437" y="623"/>
      <point x="555" y="744"/>
      <point x="581" y="753"/>
      <point x="591" y="753" type="qcurve" smooth="yes"/>
      <point x="605" y="753"/>
      <point x="625" y="735"/>
      <point x="625" y="720" type="qcurve" smooth="yes"/>
      <point x="625" y="704"/>
      <point x="562" y="591"/>
      <point x="562" y="523" type="qcurve" smooth="yes"/>
      <point x="562" y="342"/>
      <point x="996" y="80"/>
      <point x="1300" y="80" type="qcurve" smooth="yes"/>
      <point x="1499" y="80"/>
      <point x="1848" y="203"/>
      <point x="2039" y="408"/>
      <point x="2039" y="523" type="qcurve" smooth="yes"/>
      <point x="2039" y="574"/>
      <point x="1999" y="667"/>
      <point x="1976" y="699"/>
      <point x="1976" y="720" type="qcurve" smooth="yes"/>
      <point x="1976" y="735"/>
      <point x="1994" y="753"/>
      <point x="2008" y="753" type="qcurve" smooth="yes"/>
      <point x="2049" y="753"/>
      <point x="2228" y="531"/>
      <point x="2228" y="402" type="qcurve" smooth="yes"/>
      <point x="2228" y="251"/>
      <point x="1980" y="-10"/>
      <point x="1551" y="-162"/>
    </contour>
  </outline>
</glyph>
<glyph name="uni267B" format="2">
  <advance width="2600"/>
  <unicode hex="267B"/>
  <outline>
    <contour>
      <point x="1228" y="1441" type="qcurve" smooth="yes"/>
      <point x="1245" y="1441" type="line" smooth="yes"/>
      <point x="1249" y="1441"/>
      <point x="1292" y="1443"/>
      <point x="1324" y="1443" type="qcurve" smooth="yes"/>
      <point x="1496" y="1443" type="line" smooth="yes"/>
      <point x="1540" y="1441"/>
      <point x="1589" y="1411"/>
      <point x="1628" y="1350" type="qcurve" smooth="yes"/>
      <point x="1671" y="1285" type="line"/>
      <point x="1691" y="1255" type="line" smooth="yes"/>
      <point x="1712" y="1220"/>
      <point x="1745" y="1189"/>
      <point x="1761" y="1189" type="qcurve" smooth="yes"/>
      <point x="1769" y="1189"/>
      <point x="1831" y="1226"/>
      <point x="1856" y="1226" type="qcurve" smooth="yes"/>
      <point x="1870" y="1226"/>
      <point x="1888" y="1208"/>
      <point x="1888" y="1185" type="qcurve" smooth="yes"/>
      <point x="1888" y="1173"/>
      <point x="1886" y="1160" type="qcurve" smooth="yes"/>
      <point x="1882" y="1136" type="line" smooth="yes"/>
      <point x="1874" y="1072"/>
      <point x="1847" y="952"/>
      <point x="1829" y="851"/>
      <point x="1758" y="851" type="qcurve" smooth="yes"/>
      <point x="1700" y="852" type="line" smooth="yes"/>
      <point x="1588" y="852"/>
      <point x="1402" y="883"/>
      <point x="1402" y="914" type="qcurve" smooth="yes"/>
      <point x="1402" y="940"/>
      <point x="1493" y="1004"/>
      <point x="1493" y="1026" type="qcurve" smooth="yes"/>
      <point x="1493" y="1057"/>
      <point x="1385" y="1161"/>
      <point x="1197" y="1396"/>
      <point x="1185" y="1401"/>
      <point x="1185" y="1415" type="qcurve" smooth="yes"/>
      <point x="1185" y="1429"/>
      <point x="1208" y="1441"/>
    </contour>
    <contour>
      <point x="1097" y="882" type="qcurve" smooth="yes"/>
      <point x="1085" y="882"/>
      <point x="996" y="941"/>
      <point x="943" y="982" type="qcurve" smooth="yes"/>
      <point x="916" y="1001" type="line" smooth="yes"/>
      <point x="881" y="1025"/>
      <point x="846" y="1063"/>
      <point x="845" y="1081" type="qcurve"/>
      <point x="845" y="1120"/>
      <point x="910" y="1206"/>
      <point x="1028" y="1399"/>
      <point x="1067" y="1399" type="qcurve" smooth="yes"/>
      <point x="1101" y="1399"/>
      <point x="1231" y="1270"/>
      <point x="1313" y="1184"/>
      <point x="1313" y="1156" type="qcurve" smooth="yes"/>
      <point x="1313" y="1122"/>
      <point x="1230" y="1026"/>
      <point x="1131" y="882"/>
    </contour>
    <contour>
      <point x="761" y="330" type="qcurve" smooth="yes"/>
      <point x="735" y="257" type="line" smooth="yes"/>
      <point x="711" y="191"/>
      <point x="679" y="129"/>
      <point x="669" y="129" type="qcurve" smooth="yes"/>
      <point x="663" y="129"/>
      <point x="645" y="149"/>
      <point x="636" y="164" type="qcurve" smooth="yes"/>
      <point x="628" y="177" type="line"/>
      <point x="590" y="227"/>
      <point x="523" y="354"/>
      <point x="484" y="421"/>
      <point x="484" y="455" type="qcurve"/>
      <point x="486" y="477" type="line" smooth="yes"/>
      <point x="488" y="496"/>
      <point x="560" y="647"/>
      <point x="561" y="649" type="qcurve" smooth="yes"/>
      <point x="577" y="679" type="line" smooth="yes"/>
      <point x="585" y="694"/>
      <point x="596" y="721"/>
      <point x="596" y="733" type="qcurve" smooth="yes"/>
      <point x="596" y="746"/>
      <point x="581" y="755" type="qcurve" smooth="yes"/>
      <point x="549" y="774" type="line" smooth="yes"/>
      <point x="531" y="784"/>
      <point x="501" y="809"/>
      <point x="501" y="828" type="qcurve" smooth="yes"/>
      <point x="501" y="864"/>
      <point x="761" y="944"/>
      <point x="785" y="958"/>
      <point x="822" y="958" type="qcurve" smooth="yes"/>
      <point x="853" y="958"/>
      <point x="908" y="906"/>
      <point x="936" y="840" type="qcurve" smooth="yes"/>
      <point x="970" y="761" type="line"/>
      <point x="978" y="739"/>
      <point x="1023" y="622"/>
      <point x="1023" y="602" type="qcurve" smooth="yes"/>
      <point x="1023" y="585"/>
      <point x="1005" y="563"/>
      <point x="986" y="563" type="qcurve" smooth="yes"/>
      <point x="968" y="563"/>
      <point x="901" y="595"/>
      <point x="886" y="595" type="qcurve" smooth="yes"/>
      <point x="859" y="595"/>
      <point x="814" y="459"/>
      <point x="802" y="446"/>
    </contour>
    <contour>
      <point x="1095" y="0" type="qcurve" smooth="yes"/>
      <point x="1028" y="0"/>
      <point x="890" y="9"/>
      <point x="822" y="14" type="qcurve"/>
      <point x="788" y="14"/>
      <point x="740" y="34"/>
      <point x="740" y="62" type="qcurve" smooth="yes"/>
      <point x="740" y="131"/>
      <point x="787" y="270"/>
      <point x="831" y="385"/>
      <point x="867" y="385" type="qcurve" smooth="yes"/>
      <point x="878" y="385"/>
      <point x="890" y="384" type="qcurve"/>
      <point x="911" y="381" type="line" smooth="yes"/>
      <point x="1087" y="361"/>
      <point x="1189" y="351"/>
      <point x="1189" y="308" type="qcurve" smooth="yes"/>
      <point x="1189" y="246"/>
      <point x="1159" y="48"/>
      <point x="1136" y="0"/>
    </contour>
    <contour>
      <point x="1595" y="37" type="qcurve" smooth="yes"/>
      <point x="1587" y="29"/>
      <point x="1587" y="14" type="qcurve" smooth="yes"/>
      <point x="1588" y="-25" type="line"/>
      <point x="1588" y="-47" type="line" smooth="yes"/>
      <point x="1588" y="-68"/>
      <point x="1572" y="-96"/>
      <point x="1558" y="-96" type="qcurve" smooth="yes"/>
      <point x="1540" y="-96"/>
      <point x="1527" y="-81"/>
      <point x="1316" y="101"/>
      <point x="1280" y="160"/>
      <point x="1280" y="180" type="qcurve" smooth="yes"/>
      <point x="1280" y="205"/>
      <point x="1396" y="362"/>
      <point x="1490" y="484"/>
      <point x="1523" y="484" type="qcurve" smooth="yes"/>
      <point x="1540" y="484"/>
      <point x="1553" y="463"/>
      <point x="1553" y="447" type="qcurve" smooth="yes"/>
      <point x="1553" y="438"/>
      <point x="1556" y="423"/>
      <point x="1556" y="400" type="qcurve" smooth="yes"/>
      <point x="1556" y="369"/>
      <point x="1575" y="336"/>
      <point x="1600" y="336" type="qcurve" smooth="yes"/>
      <point x="1643" y="336"/>
      <point x="1802" y="363"/>
      <point x="1876" y="376" type="qcurve" smooth="yes"/>
      <point x="1949" y="388" type="line" smooth="yes"/>
      <point x="1984" y="394"/>
      <point x="2043" y="402"/>
      <point x="2058" y="402" type="qcurve" smooth="yes"/>
      <point x="2069" y="402"/>
      <point x="2087" y="397"/>
      <point x="2087" y="388" type="qcurve" smooth="yes"/>
      <point x="2087" y="379"/>
      <point x="2032" y="271"/>
      <point x="1994" y="214"/>
      <point x="1949" y="120"/>
      <point x="1901" y="75"/>
      <point x="1775" y="67"/>
      <point x="1710" y="63"/>
      <point x="1607" y="49"/>
    </contour>
    <contour>
      <point x="1817" y="408" type="qcurve" smooth="yes"/>
      <point x="1791" y="408"/>
      <point x="1716" y="524"/>
      <point x="1682" y="625"/>
      <point x="1666" y="657" type="qcurve" smooth="yes"/>
      <point x="1652" y="685"/>
      <point x="1652" y="718" type="qcurve" smooth="yes"/>
      <point x="1652" y="749"/>
      <point x="1854" y="830"/>
      <point x="1858" y="832" type="qcurve"/>
      <point x="1906" y="850" type="line" smooth="yes"/>
      <point x="1931" y="859"/>
      <point x="1947" y="859" type="qcurve" smooth="yes"/>
      <point x="1989" y="859"/>
      <point x="2065" y="678"/>
      <point x="2115" y="562"/>
      <point x="2115" y="529" type="qcurve" smooth="yes"/>
      <point x="2115" y="499"/>
      <point x="2040" y="457"/>
      <point x="1927" y="432"/>
      <point x="1855" y="408"/>
    </contour>
  </outline>
</glyph>
<glyph name="uni267F" format="2">
  <advance width="2600"/>
  <unicode hex="267F"/>
  <outline>
    <contour>
      <point x="1541" y="184" type="qcurve" smooth="yes"/>
      <point x="1607" y="188" type="line"/>
      <point x="1583" y="-21"/>
      <point x="1266" y="-303"/>
      <point x="1057" y="-303" type="qcurve" smooth="yes"/>
      <point x="831" y="-303"/>
      <point x="505" y="23"/>
      <point x="505" y="249" type="qcurve" smooth="yes"/>
      <point x="505" y="449"/>
      <point x="766" y="758"/>
      <point x="962" y="792" type="qcurve"/>
      <point x="965" y="727"/>
      <point x="981" y="601"/>
      <point x="999" y="540" type="qcurve"/>
      <point x="895" y="518"/>
      <point x="761" y="354"/>
      <point x="761" y="249" type="qcurve" smooth="yes"/>
      <point x="761" y="127"/>
      <point x="936" y="-48"/>
      <point x="1057" y="-48" type="qcurve" smooth="yes"/>
      <point x="1164" y="-48"/>
      <point x="1329" y="89"/>
      <point x="1349" y="192" type="qcurve"/>
      <point x="1382" y="186"/>
      <point x="1445" y="182"/>
      <point x="1473" y="182" type="qcurve" smooth="yes"/>
      <point x="1508" y="182"/>
    </contour>
    <contour>
      <point x="1642" y="307" type="qcurve" smooth="yes"/>
      <point x="1602" y="307"/>
      <point x="1521" y="300"/>
      <point x="1475" y="300" type="qcurve" smooth="yes"/>
      <point x="1307" y="300"/>
      <point x="1163" y="425"/>
      <point x="1077" y="665"/>
      <point x="1077" y="940" type="qcurve" smooth="yes"/>
      <point x="1077" y="1071"/>
      <point x="1160" y="1219"/>
      <point x="1236" y="1219" type="qcurve" smooth="yes"/>
      <point x="1306" y="1219"/>
      <point x="1387" y="1163"/>
      <point x="1495" y="1018"/>
      <point x="1656" y="934"/>
      <point x="1833" y="895"/>
      <point x="1930" y="870"/>
      <point x="2038" y="792"/>
      <point x="2038" y="740" type="qcurve" smooth="yes"/>
      <point x="2038" y="709"/>
      <point x="2004" y="673"/>
      <point x="1978" y="673" type="qcurve" smooth="yes"/>
      <point x="1929" y="673"/>
      <point x="1854" y="725"/>
      <point x="1746" y="731"/>
      <point x="1634" y="746"/>
      <point x="1552" y="787" type="qcurve" smooth="yes"/>
      <point x="1522" y="801" type="line" smooth="yes"/>
      <point x="1510" y="807"/>
      <point x="1505" y="807" type="qcurve" smooth="yes"/>
      <point x="1496" y="807"/>
      <point x="1496" y="793" type="qcurve" smooth="yes"/>
      <point x="1498" y="699"/>
      <point x="1528" y="627"/>
      <point x="1598" y="576"/>
      <point x="1802" y="546"/>
      <point x="1906" y="485"/>
      <point x="1969" y="369"/>
      <point x="1981" y="313" type="qcurve" smooth="yes"/>
      <point x="1986" y="284" type="line" smooth="yes"/>
      <point x="2018" y="78"/>
      <point x="2074" y="34"/>
      <point x="2157" y="36"/>
      <point x="2214" y="-7"/>
      <point x="2214" y="-41" type="qcurve" smooth="yes"/>
      <point x="2214" y="-93"/>
      <point x="2072" y="-169"/>
      <point x="1999" y="-169" type="qcurve" smooth="yes"/>
      <point x="1893" y="-169"/>
      <point x="1843" y="-3"/>
      <point x="1805" y="164"/>
      <point x="1744" y="307"/>
    </contour>
    <contour>
      <point x="1209" y="1747" type="qcurve" smooth="yes"/>
      <point x="1300" y="1747"/>
      <point x="1431" y="1617"/>
      <point x="1431" y="1526" type="qcurve" smooth="yes"/>
      <point x="1431" y="1434"/>
      <point x="1302" y="1304"/>
      <point x="1209" y="1304" type="qcurve" smooth="yes"/>
      <point x="1121" y="1304"/>
      <point x="989" y="1434"/>
      <point x="989" y="1526" type="qcurve" smooth="yes"/>
      <point x="989" y="1617"/>
      <point x="1120" y="1747"/>
    </contour>
  </outline>
</glyph>
<glyph name="uni2693" format="2">
  <advance width="2600"/>
  <unicode hex="2693"/>
  <outline>
    <contour>
      <point x="2204" y="303" type="qcurve" smooth="yes"/>
      <point x="2186" y="303"/>
      <point x="2140" y="350"/>
      <point x="2122" y="350" type="qcurve" smooth="yes"/>
      <point x="2098" y="350"/>
      <point x="2087" y="298"/>
      <point x="1984" y="91"/>
      <point x="1808" y="-105"/>
      <point x="1572" y="-223"/>
      <point x="1308" y="-274"/>
      <point x="1051" y="-230"/>
      <point x="823" y="-126"/>
      <point x="651" y="40"/>
      <point x="591" y="146" type="qcurve" smooth="yes"/>
      <point x="541" y="231"/>
      <point x="502" y="350"/>
      <point x="478" y="350" type="qcurve" smooth="yes"/>
      <point x="460" y="350"/>
      <point x="414" y="303"/>
      <point x="396" y="303" type="qcurve" smooth="yes"/>
      <point x="362" y="303"/>
      <point x="362" y="338" type="qcurve" smooth="yes"/>
      <point x="362" y="366"/>
      <point x="395" y="478"/>
      <point x="416" y="535" type="qcurve" smooth="yes"/>
      <point x="434" y="582" type="line" smooth="yes"/>
      <point x="446" y="613"/>
      <point x="487" y="649"/>
      <point x="512" y="649" type="qcurve" smooth="yes"/>
      <point x="543" y="649"/>
      <point x="622" y="600"/>
      <point x="698" y="549"/>
      <point x="768" y="485"/>
      <point x="768" y="467" type="qcurve" smooth="yes"/>
      <point x="768" y="435"/>
      <point x="715" y="435" type="qcurve" smooth="yes"/>
      <point x="691" y="435"/>
      <point x="660" y="428"/>
      <point x="660" y="411" type="qcurve" smooth="yes"/>
      <point x="660" y="361"/>
      <point x="920" y="92"/>
      <point x="1040" y="92" type="qcurve" smooth="yes"/>
      <point x="1097" y="92"/>
      <point x="1149" y="165"/>
      <point x="1153" y="218" type="qcurve" smooth="yes"/>
      <point x="1160" y="290" type="line"/>
      <point x="1189" y="535" type="line"/>
      <point x="1193" y="565" type="line" smooth="yes"/>
      <point x="1195" y="580"/>
      <point x="1195" y="596" type="qcurve" smooth="yes"/>
      <point x="1195" y="663"/>
      <point x="1031" y="709"/>
      <point x="893" y="731"/>
      <point x="893" y="790" type="qcurve" smooth="yes"/>
      <point x="893" y="831"/>
      <point x="941" y="866"/>
      <point x="1037" y="866" type="qcurve" smooth="yes"/>
      <point x="1156" y="866"/>
      <point x="1221" y="906"/>
      <point x="1221" y="997" type="qcurve" smooth="yes"/>
      <point x="1221" y="1028"/>
      <point x="1199" y="1069"/>
      <point x="1177" y="1082" type="qcurve"/>
      <point x="1148" y="1097" type="line" smooth="yes"/>
      <point x="1055" y="1145"/>
      <point x="951" y="1303"/>
      <point x="951" y="1397" type="qcurve" smooth="yes"/>
      <point x="951" y="1526"/>
      <point x="1158" y="1701"/>
      <point x="1300" y="1701" type="qcurve" smooth="yes"/>
      <point x="1442" y="1701"/>
      <point x="1648" y="1527"/>
      <point x="1648" y="1399" type="qcurve" smooth="yes"/>
      <point x="1648" y="1273"/>
      <point x="1524" y="1128"/>
      <point x="1379" y="1065"/>
      <point x="1379" y="998" type="qcurve" smooth="yes"/>
      <point x="1379" y="980"/>
      <point x="1382" y="962" type="qcurve"/>
      <point x="1386" y="927" type="line" smooth="yes"/>
      <point x="1390" y="897"/>
      <point x="1466" y="866"/>
      <point x="1564" y="866" type="qcurve" smooth="yes"/>
      <point x="1654" y="866"/>
      <point x="1706" y="829"/>
      <point x="1706" y="790" type="qcurve" smooth="yes"/>
      <point x="1706" y="732"/>
      <point x="1581" y="711"/>
      <point x="1477" y="683"/>
      <point x="1405" y="646"/>
      <point x="1405" y="594" type="qcurve" smooth="yes"/>
      <point x="1405" y="576"/>
      <point x="1410" y="549"/>
      <point x="1411" y="535" type="qcurve" smooth="yes"/>
      <point x="1438" y="290" type="line"/>
      <point x="1445" y="219" type="line" smooth="yes"/>
      <point x="1450" y="168"/>
      <point x="1502" y="92"/>
      <point x="1559" y="92" type="qcurve" smooth="yes"/>
      <point x="1623" y="92"/>
      <point x="1781" y="188"/>
      <point x="1837" y="255" type="qcurve" smooth="yes"/>
      <point x="1859" y="280" type="line" smooth="yes"/>
      <point x="1887" y="313"/>
      <point x="1938" y="389"/>
      <point x="1938" y="411" type="qcurve" smooth="yes"/>
      <point x="1938" y="426"/>
      <point x="1912" y="435"/>
      <point x="1885" y="435" type="qcurve" smooth="yes"/>
      <point x="1860" y="435"/>
      <point x="1830" y="449"/>
      <point x="1830" y="466" type="qcurve" smooth="yes"/>
      <point x="1830" y="492"/>
      <point x="1959" y="589"/>
      <point x="2056" y="649"/>
      <point x="2086" y="649" type="qcurve" smooth="yes"/>
      <point x="2146" y="649"/>
      <point x="2238" y="383"/>
      <point x="2238" y="337" type="qcurve" smooth="yes"/>
      <point x="2238" y="303"/>
    </contour>
    <contour>
      <point x="1434" y="1388" type="qcurve" smooth="yes"/>
      <point x="1434" y="1444"/>
      <point x="1356" y="1522"/>
      <point x="1300" y="1522" type="qcurve" smooth="yes"/>
      <point x="1244" y="1522"/>
      <point x="1166" y="1444"/>
      <point x="1166" y="1388" type="qcurve" smooth="yes"/>
      <point x="1166" y="1333"/>
      <point x="1244" y="1253"/>
      <point x="1300" y="1253" type="qcurve" smooth="yes"/>
      <point x="1356" y="1253"/>
      <point x="1434" y="1333"/>
    </contour>
  </outline>
</glyph>
<glyph name="uni26A0" format="2">
  <advance width="2600"/>
  <unicode hex="26A0"/>
  <outline>
    <contour>
      <point x="2414" y="-175" type="line" smooth="yes"/>
      <point x="2422" y="-189"/>
      <point x="2422" y="-205" type="qcurve" smooth="yes"/>
      <point x="2422" y="-229"/>
      <point x="2387" y="-263"/>
      <point x="2363" y="-263" type="qcurve" smooth="yes"/>
      <point x="236" y="-263" type="line" smooth="yes"/>
      <point x="213" y="-263"/>
      <point x="177" y="-230"/>
      <point x="177" y="-205" type="qcurve" smooth="yes"/>
      <point x="177" y="-189"/>
      <point x="185" y="-175" type="qcurve" smooth="yes"/>
      <point x="1249" y="1668" type="line" smooth="yes"/>
      <point x="1257" y="1682"/>
      <point x="1285" y="1697"/>
      <point x="1300" y="1697" type="qcurve" smooth="yes"/>
      <point x="1333" y="1697"/>
      <point x="1351" y="1668" type="qcurve" smooth="yes"/>
    </contour>
    <contour>
      <point x="2262" y="-145" type="line"/>
      <point x="1300" y="1520" type="line"/>
      <point x="338" y="-145" type="line"/>
    </contour>
    <contour>
      <point x="1214" y="403" type="line" smooth="yes"/>
      <point x="1209" y="403"/>
      <point x="1202" y="410"/>
      <point x="1202" y="413" type="qcurve"/>
      <point x="1155" y="1090" type="line"/>
      <point x="1155" y="1095"/>
      <point x="1163" y="1101"/>
      <point x="1166" y="1101" type="qcurve" smooth="yes"/>
      <point x="1433" y="1101" type="line" smooth="yes"/>
      <point x="1438" y="1101"/>
      <point x="1445" y="1094"/>
      <point x="1445" y="1090" type="qcurve"/>
      <point x="1397" y="413" type="line"/>
      <point x="1397" y="410"/>
      <point x="1391" y="403"/>
      <point x="1386" y="403" type="qcurve" smooth="yes"/>
    </contour>
    <contour>
      <point x="1440" y="48" type="qcurve" smooth="yes"/>
      <point x="1440" y="-12"/>
      <point x="1368" y="-87"/>
      <point x="1302" y="-87" type="qcurve" smooth="yes"/>
      <point x="1236" y="-87"/>
      <point x="1160" y="-17"/>
      <point x="1160" y="48" type="qcurve" smooth="yes"/>
      <point x="1160" y="115"/>
      <point x="1233" y="184"/>
      <point x="1302" y="184" type="qcurve" smooth="yes"/>
      <point x="1364" y="184"/>
      <point x="1440" y="114"/>
    </contour>
  </outline>
</glyph>
<glyph name="uni26A1" format="2">
  <advance width="2600"/>
  <unicode hex="26A1"/>
  <outline>
    <contour>
      <point x="2125" y="770" type="line"/>
      <point x="2130" y="770"/>
      <point x="2140" y="760"/>
      <point x="2140" y="755" type="qcurve" smooth="yes"/>
      <point x="2140" y="741"/>
      <point x="2130" y="735" type="qcurve" smooth="yes"/>
      <point x="511" y="-283" type="line"/>
      <point x="508" y="-286"/>
      <point x="501" y="-286" type="qcurve" smooth="yes"/>
      <point x="494" y="-286"/>
      <point x="481" y="-276"/>
      <point x="481" y="-267" type="qcurve" smooth="yes"/>
      <point x="481" y="-264"/>
      <point x="483" y="-256"/>
      <point x="486" y="-253" type="qcurve" smooth="yes"/>
      <point x="1197" y="520" type="line"/>
      <point x="474" y="733" type="line"/>
      <point x="469" y="735"/>
      <point x="460" y="745"/>
      <point x="460" y="752" type="qcurve" smooth="yes"/>
      <point x="460" y="763"/>
      <point x="468" y="769" type="qcurve"/>
      <point x="2085" y="1755" type="line"/>
      <point x="2089" y="1758"/>
      <point x="2096" y="1758" type="qcurve" smooth="yes"/>
      <point x="2102" y="1758"/>
      <point x="2115" y="1748"/>
      <point x="2115" y="1739" type="qcurve" smooth="yes"/>
      <point x="2115" y="1736"/>
      <point x="2113" y="1728"/>
      <point x="2110" y="1725" type="qcurve" smooth="yes"/>
      <point x="1400" y="952" type="line"/>
    </contour>
  </outline>
</glyph>
<glyph name="uni26AA" format="2">
  <advance width="2600"/>
  <unicode hex="26AA"/>
  <outline>
    <contour>
      <point x="1300" y="528" type="qcurve" smooth="yes"/>
      <point x="1204" y="528"/>
      <point x="1066" y="665"/>
      <point x="1066" y="762" type="qcurve" smooth="yes"/>
      <point x="1066" y="858"/>
      <point x="1204" y="996"/>
      <point x="1300" y="996" type="qcurve" smooth="yes"/>
      <point x="1396" y="996"/>
      <point x="1534" y="858"/>
      <point x="1534" y="762" type="qcurve" smooth="yes"/>
      <point x="1534" y="665"/>
      <point x="1396" y="528"/>
    </contour>
    <contour>
      <point x="1300" y="878" type="qcurve" smooth="yes"/>
      <point x="1252" y="878"/>
      <point x="1184" y="810"/>
      <point x="1184" y="762" type="qcurve" smooth="yes"/>
      <point x="1184" y="714"/>
      <point x="1252" y="646"/>
      <point x="1300" y="646" type="qcurve" smooth="yes"/>
      <point x="1348" y="646"/>
      <point x="1416" y="714"/>
      <point x="1416" y="762" type="qcurve" smooth="yes"/>
      <point x="1416" y="810"/>
      <point x="1348" y="878"/>
    </contour>
  </outline>
</glyph>
<glyph name="uni26AB" format="2">
  <advance width="2600"/>
  <unicode hex="26AB"/>
  <outline>
    <contour>
      <point x="1300" y="529" type="qcurve" smooth="yes"/>
      <point x="1204" y="529"/>
      <point x="1066" y="666"/>
      <point x="1066" y="763" type="qcurve" smooth="yes"/>
      <point x="1066" y="859"/>
      <point x="1204" y="997"/>
      <point x="1300" y="997" type="qcurve" smooth="yes"/>
      <point x="1396" y="997"/>
      <point x="1534" y="859"/>
      <point x="1534" y="763" type="qcurve" smooth="yes"/>
      <point x="1534" y="666"/>
      <point x="1396" y="529"/>
    </contour>
  </outline>
</glyph>
<glyph name="uni26BD" format="2">
  <advance width="2600"/>
  <unicode hex="26BD"/>
  <outline>
    <contour>
      <point x="1300" y="-318" type="qcurve" smooth="yes"/>
      <point x="1022" y="-318"/>
      <point x="536" y="-40"/>
      <point x="253" y="448"/>
      <point x="253" y="729" type="qcurve" smooth="yes"/>
      <point x="253" y="1007"/>
      <point x="531" y="1493"/>
      <point x="1018" y="1777"/>
      <point x="1300" y="1777" type="qcurve" smooth="yes"/>
      <point x="1581" y="1777"/>
      <point x="2069" y="1493"/>
      <point x="2347" y="1007"/>
      <point x="2347" y="729" type="qcurve" smooth="yes"/>
      <point x="2347" y="447"/>
      <point x="2063" y="-41"/>
      <point x="1577" y="-318"/>
    </contour>
    <contour>
      <point x="2008" y="549" type="qcurve"/>
      <point x="2069" y="586"/>
      <point x="2180" y="679"/>
      <point x="2229" y="738" type="qcurve"/>
      <point x="2229" y="846"/>
      <point x="2182" y="1031"/>
      <point x="2161" y="1069"/>
      <point x="2038" y="1184"/>
      <point x="1959" y="1233" type="qcurve"/>
      <point x="1920" y="1197"/>
      <point x="1820" y="1131"/>
      <point x="1759" y="1086"/>
      <point x="1726" y="1077" type="qcurve"/>
      <point x="1729" y="1046"/>
      <point x="1733" y="965"/>
      <point x="1733" y="917" type="qcurve" smooth="yes"/>
      <point x="1733" y="876"/>
      <point x="1729" y="787"/>
      <point x="1725" y="737" type="qcurve"/>
      <point x="1789" y="719"/>
      <point x="1978" y="596"/>
    </contour>
    <contour>
      <point x="371" y="726" type="qcurve"/>
      <point x="371" y="555"/>
      <point x="488" y="250"/>
      <point x="590" y="129" type="qcurve"/>
      <point x="610" y="134"/>
      <point x="648" y="142"/>
      <point x="668" y="147" type="qcurve"/>
      <point x="642" y="206"/>
      <point x="600" y="365"/>
      <point x="596" y="458" type="qcurve"/>
      <point x="547" y="490"/>
      <point x="448" y="628"/>
      <point x="419" y="727" type="qcurve"/>
      <point x="396" y="727" type="line" smooth="yes"/>
      <point x="384" y="727"/>
    </contour>
    <contour>
      <point x="655" y="1397" type="qcurve"/>
      <point x="638" y="1332"/>
      <point x="626" y="1217"/>
      <point x="626" y="1173" type="qcurve" smooth="yes"/>
      <point x="626" y="1152" type="line" smooth="yes"/>
      <point x="626" y="1142"/>
      <point x="627" y="1134" type="qcurve"/>
      <point x="683" y="1129"/>
      <point x="781" y="1103"/>
      <point x="834" y="1090" type="qcurve" smooth="yes"/>
      <point x="856" y="1084" type="line"/>
      <point x="867" y="1080"/>
      <point x="878" y="1075" type="qcurve"/>
      <point x="967" y="1164"/>
      <point x="1183" y="1283"/>
      <point x="1297" y="1312" type="qcurve"/>
      <point x="1295" y="1325"/>
      <point x="1295" y="1337" type="qcurve" smooth="yes"/>
      <point x="1295" y="1360" type="line" smooth="yes"/>
      <point x="1295" y="1408"/>
      <point x="1312" y="1540"/>
      <point x="1330" y="1575" type="qcurve"/>
      <point x="1263" y="1605"/>
      <point x="1126" y="1643"/>
      <point x="1086" y="1635"/>
      <point x="947" y="1595"/>
      <point x="867" y="1552" type="qcurve" smooth="yes"/>
      <point x="750" y="1489"/>
    </contour>
    <contour>
      <point x="1118" y="-81" type="qcurve"/>
      <point x="1218" y="-52"/>
      <point x="1376" y="33"/>
      <point x="1438" y="84" type="qcurve"/>
      <point x="1405" y="149"/>
      <point x="1337" y="358"/>
      <point x="1333" y="400" type="qcurve"/>
      <point x="1209" y="423"/>
      <point x="974" y="520"/>
      <point x="885" y="581" type="qcurve"/>
      <point x="857" y="562"/>
      <point x="795" y="535"/>
      <point x="768" y="519" type="qcurve" smooth="yes"/>
      <point x="710" y="488" type="line" smooth="yes"/>
      <point x="680" y="472"/>
      <point x="655" y="462" type="qcurve"/>
      <point x="660" y="365"/>
      <point x="708" y="200"/>
      <point x="736" y="141" type="qcurve"/>
      <point x="758" y="125" type="line" smooth="yes"/>
      <point x="777" y="110"/>
      <point x="930" y="14"/>
    </contour>
    <contour>
      <point x="1666" y="736" type="qcurve"/>
      <point x="1670" y="784"/>
      <point x="1674" y="871"/>
      <point x="1674" y="910" type="qcurve" smooth="yes"/>
      <point x="1674" y="961"/>
      <point x="1669" y="1048"/>
      <point x="1666" y="1081" type="qcurve"/>
      <point x="1654" y="1087"/>
      <point x="1617" y="1107" type="qcurve" smooth="yes"/>
      <point x="1533" y="1153" type="line" smooth="yes"/>
      <point x="1416" y="1216"/>
      <point x="1340" y="1250"/>
      <point x="1337" y="1252" type="qcurve"/>
      <point x="1323" y="1259" type="line"/>
      <point x="1211" y="1232"/>
      <point x="1007" y="1118"/>
      <point x="922" y="1036" type="qcurve"/>
      <point x="925" y="1028"/>
      <point x="926" y="1020" type="qcurve"/>
      <point x="926" y="1003" type="line" smooth="yes"/>
      <point x="926" y="940"/>
      <point x="922" y="814"/>
      <point x="922" y="751" type="qcurve" smooth="yes"/>
      <point x="922" y="721"/>
      <point x="926" y="660"/>
      <point x="926" y="625" type="qcurve"/>
      <point x="1007" y="570"/>
      <point x="1232" y="478"/>
      <point x="1347" y="458" type="qcurve"/>
      <point x="1428" y="571"/>
      <point x="1641" y="725"/>
    </contour>
    <contour>
      <point x="2097" y="1207" type="qcurve"/>
      <point x="2030" y="1318"/>
      <point x="1933" y="1408" type="qcurve"/>
      <point x="1949" y="1389"/>
      <point x="1986" y="1311"/>
      <point x="1986" y="1286" type="qcurve"/>
      <point x="2011" y="1271"/>
      <point x="2068" y="1232"/>
    </contour>
    <contour>
      <point x="1559" y="1622" type="qcurve"/>
      <point x="1497" y="1639"/>
      <point x="1368" y="1659"/>
      <point x="1296" y="1659" type="qcurve" smooth="yes"/>
      <point x="1287" y="1659"/>
      <point x="1282" y="1658" type="qcurve"/>
      <point x="1312" y="1647"/>
      <point x="1363" y="1626"/>
      <point x="1385" y="1615" type="qcurve"/>
      <point x="1390" y="1617"/>
      <point x="1441" y="1623"/>
      <point x="1501" y="1623" type="qcurve" smooth="yes"/>
      <point x="1529" y="1623" type="line" smooth="yes"/>
      <point x="1543" y="1623"/>
    </contour>
    <contour>
      <point x="578" y="1314" type="qcurve"/>
      <point x="488" y="1203"/>
      <point x="382" y="935"/>
      <point x="373" y="785" type="qcurve"/>
      <point x="393" y="785" type="line" smooth="yes"/>
      <point x="402" y="785"/>
      <point x="412" y="786" type="qcurve"/>
      <point x="417" y="866"/>
      <point x="528" y="1077"/>
      <point x="568" y="1114" type="qcurve"/>
      <point x="568" y="1125"/>
      <point x="567" y="1139" type="qcurve"/>
      <point x="567" y="1166" type="line" smooth="yes"/>
      <point x="567" y="1197"/>
      <point x="572" y="1270"/>
    </contour>
    <contour>
      <point x="1203" y="-195" type="line"/>
      <point x="1226" y="-198"/>
      <point x="1275" y="-200"/>
      <point x="1300" y="-200" type="qcurve" smooth="yes"/>
      <point x="1478" y="-200"/>
      <point x="1789" y="-77"/>
      <point x="1914" y="31" type="qcurve"/>
      <point x="1895" y="52"/>
      <point x="1864" y="90"/>
      <point x="1853" y="105" type="qcurve"/>
      <point x="1797" y="74"/>
      <point x="1612" y="36"/>
      <point x="1512" y="36" type="qcurve" smooth="yes"/>
      <point x="1502" y="36"/>
      <point x="1493" y="37" type="qcurve"/>
      <point x="1474" y="37" type="line"/>
      <point x="1394" y="-28"/>
      <point x="1235" y="-107"/>
      <point x="1170" y="-127" type="qcurve"/>
    </contour>
    <contour>
      <point x="1958" y="74" type="qcurve"/>
      <point x="2070" y="186"/>
      <point x="2211" y="478"/>
      <point x="2226" y="647" type="qcurve"/>
      <point x="2169" y="589"/>
      <point x="2048" y="501"/>
      <point x="2011" y="484" type="qcurve"/>
      <point x="2006" y="399"/>
      <point x="1943" y="209"/>
      <point x="1899" y="145" type="qcurve"/>
      <point x="1909" y="131"/>
      <point x="1939" y="93"/>
    </contour>
  </outline>
</glyph>
